<svg width="40" height="40" viewBox="0 0 40 40" fill="none" xmlns="http://www.w3.org/2000/svg">
<path d="M12.9995 17.9828C13.0338 17.5545 13.2283 17.1548 13.5442 16.8633C13.86 16.5719 14.274 16.4101 14.7038 16.4102H25.0097C25.4395 16.4101 25.8535 16.5719 26.1693 16.8633C26.4851 17.1548 26.6797 17.5545 26.714 17.9828L27.4003 26.5298C27.4191 26.765 27.3892 27.0015 27.3122 27.2246C27.2351 27.4477 27.1127 27.6523 26.9527 27.8257C26.7927 27.9992 26.5985 28.1375 26.3824 28.2323C26.1662 28.327 25.9329 28.3759 25.6969 28.376H14.0166C13.7806 28.3759 13.5472 28.327 13.331 28.2323C13.1149 28.1375 12.9208 27.9992 12.7608 27.8257C12.6007 27.6523 12.4783 27.4477 12.4013 27.2246C12.3243 27.0015 12.2942 26.765 12.3131 26.5298L12.9995 17.9828Z" stroke="#222222" stroke-width="1.4359" stroke-linecap="round" stroke-linejoin="round"/>
<path d="M23.2761 18.9745V14.701C23.2761 13.7943 22.9159 12.9247 22.2748 12.2836C21.6337 11.6424 20.764 11.2822 19.8573 11.2822C18.9506 11.2822 18.081 11.6424 17.4399 12.2836C16.7987 12.9247 16.4385 13.7943 16.4385 14.701V18.9745" stroke="#222222" stroke-width="1.4359" stroke-linecap="round" stroke-linejoin="round"/>
</svg>
