<svg width="619" height="366" viewBox="0 0 619 366" fill="none" xmlns="http://www.w3.org/2000/svg">
<g clip-path="url(#clip0_4386_11883)">
<rect width="619" height="366" rx="8" fill="#F0F0F0"/>
<g opacity="0.54">
<path opacity="0.21" d="M498.008 -35.3086L527.029 0.47213" stroke="#D6D6D6" stroke-width="4"/>
<path opacity="0.07" d="M530.402 -31.9316L559.424 3.84908" stroke="#D6D6D6" stroke-width="4"/>
<path opacity="0.29" d="M562.807 -28.5508L591.828 7.22994" stroke="#D6D6D6" stroke-width="4"/>
<path opacity="0.11" d="M595.209 -25.1719L624.231 10.6088" stroke="#D6D6D6" stroke-width="4"/>
<path opacity="0.8" d="M170.613 -36.7031L199.635 -0.922401" stroke="#D6D6D6" stroke-width="4"/>
<path opacity="0.52" d="M203.023 -33.3262L232.045 2.45455" stroke="#D6D6D6" stroke-width="4"/>
<path opacity="0.8" d="M235.42 -29.9414L264.441 5.83932" stroke="#D6D6D6" stroke-width="4"/>
<path opacity="0.54" d="M300.221 -23.1868L264.441 5.83474" stroke="#D6D6D6" stroke-width="4"/>
<path opacity="0.12" d="M332.622 -19.804L296.841 9.21756" stroke="#D6D6D6" stroke-width="4"/>
<path opacity="0.6" d="M332.621 -19.8047L361.643 15.976" stroke="#D6D6D6" stroke-width="4"/>
<path opacity="0.78" d="M365.023 -16.4258L394.045 19.3549" stroke="#D6D6D6" stroke-width="4"/>
<path opacity="0.26" d="M397.42 -13.0449L426.441 22.7358" stroke="#D6D6D6" stroke-width="4"/>
<path opacity="0.91" d="M462.221 -6.28644L426.441 22.7351" stroke="#D6D6D6" stroke-width="4"/>
<path opacity="0.63" d="M462.225 -6.28906L491.246 29.4917" stroke="#D6D6D6" stroke-width="4"/>
<path opacity="0.52" d="M527.026 0.471371L491.245 29.4929" stroke="#D6D6D6" stroke-width="4"/>
<path opacity="0.24" d="M527.027 0.470703L556.049 36.2514" stroke="#D6D6D6" stroke-width="4"/>
<path opacity="0.78" d="M559.428 3.84961L588.449 39.6303" stroke="#D6D6D6" stroke-width="4"/>
<path opacity="0.83" d="M591.826 7.23242L620.848 43.0131" stroke="#D6D6D6" stroke-width="4"/>
<path opacity="0.93" d="M-27.166 -24.5801L1.85556 11.2006" stroke="#D6D6D6" stroke-width="4"/>
<path opacity="0.46" d="M5.23242 -21.2031L34.254 14.5776" stroke="#D6D6D6" stroke-width="4"/>
<path opacity="0.56" d="M37.6348 -17.8203L66.6563 17.9604" stroke="#D6D6D6" stroke-width="4"/>
<path opacity="0.62" d="M102.43 -11.0638L66.6497 17.9578" stroke="#D6D6D6" stroke-width="4"/>
<path opacity="0.94" d="M102.43 -11.0605L131.451 24.7202" stroke="#D6D6D6" stroke-width="4"/>
<path opacity="0.08" d="M167.233 -4.30402L131.452 24.7176" stroke="#D6D6D6" stroke-width="4"/>
<path opacity="0.95" d="M199.636 -0.925114L163.855 28.0965" stroke="#D6D6D6" stroke-width="4"/>
<path opacity="0.8" d="M199.643 -0.923828L228.664 34.8569" stroke="#D6D6D6" stroke-width="4"/>
<path opacity="0.4" d="M264.446 5.83856L228.665 34.8601" stroke="#D6D6D6" stroke-width="4"/>
<path opacity="0.75" d="M264.439 5.83594L293.461 41.6167" stroke="#D6D6D6" stroke-width="4"/>
<path opacity="0.83" d="M296.848 9.21875L325.869 44.9995" stroke="#D6D6D6" stroke-width="4"/>
<path opacity="0.92" d="M329.248 12.5957L358.27 48.3764" stroke="#D6D6D6" stroke-width="4"/>
<path opacity="0.32" d="M394.042 19.3581L358.261 48.3797" stroke="#D6D6D6" stroke-width="4"/>
<path opacity="0.67" d="M394.043 19.3516L423.065 55.1323" stroke="#D6D6D6" stroke-width="4"/>
<path opacity="0.48" d="M426.445 22.7324L455.467 58.5131" stroke="#D6D6D6" stroke-width="4"/>
<path opacity="0.57" d="M458.846 26.1152L487.867 61.896" stroke="#D6D6D6" stroke-width="4"/>
<path opacity="0.3" d="M491.244 29.4883L520.266 65.269" stroke="#D6D6D6" stroke-width="4"/>
<path opacity="0.32" d="M556.046 36.2526L520.265 65.2742" stroke="#D6D6D6" stroke-width="4"/>
<path opacity="0.76" d="M556.049 36.252L585.07 72.0327" stroke="#D6D6D6" stroke-width="4"/>
<path opacity="0.37" d="M588.449 39.6289L617.471 75.4096" stroke="#D6D6D6" stroke-width="4"/>
<path opacity="0.16" d="M620.857 43.0117L649.879 78.7924" stroke="#D6D6D6" stroke-width="4"/>
<path opacity="0.76" d="M-30.543 7.81641L-1.52139 43.5971" stroke="#D6D6D6" stroke-width="4"/>
<path opacity="0.08" d="M1.84961 11.1953L30.8712 46.976" stroke="#D6D6D6" stroke-width="4"/>
<path opacity="0.85" d="M34.252 14.5742L63.2735 50.3549" stroke="#D6D6D6" stroke-width="4"/>
<path opacity="0.45" d="M66.6504 17.957L95.672 53.7378" stroke="#D6D6D6" stroke-width="4"/>
<path opacity="0.72" d="M99.0566 21.3359L128.078 57.1167" stroke="#D6D6D6" stroke-width="4"/>
<path opacity="0.63" d="M131.457 24.7188L160.479 60.4995" stroke="#D6D6D6" stroke-width="4"/>
<path opacity="0.83" d="M163.852 28.0996L192.873 63.8803" stroke="#D6D6D6" stroke-width="4"/>
<path opacity="0.08" d="M196.262 31.4766L225.283 67.2573" stroke="#D6D6D6" stroke-width="4"/>
<path opacity="0.95" d="M228.664 34.8594L257.686 70.6401" stroke="#D6D6D6" stroke-width="4"/>
<path opacity="0.45" d="M293.464 41.6198L257.683 70.6414" stroke="#D6D6D6" stroke-width="4"/>
<path opacity="0.86" d="M293.465 41.6191L322.486 77.3999" stroke="#D6D6D6" stroke-width="4"/>
<path opacity="0.63" d="M325.863 44.9941L354.885 80.7749" stroke="#D6D6D6" stroke-width="4"/>
<path opacity="0.9" d="M358.262 48.373L387.283 84.1538" stroke="#D6D6D6" stroke-width="4"/>
<path opacity="0.12" d="M390.668 51.7559L419.69 87.5366" stroke="#D6D6D6" stroke-width="4"/>
<path opacity="0.75" d="M423.066 55.1348L452.088 90.9155" stroke="#D6D6D6" stroke-width="4"/>
<path opacity="0.29" d="M487.864 61.8952L452.083 90.9168" stroke="#D6D6D6" stroke-width="4"/>
<path opacity="0.91" d="M520.268 65.2761L484.488 94.2976" stroke="#D6D6D6" stroke-width="4"/>
<path opacity="0.37" d="M552.667 68.6511L516.886 97.6726" stroke="#D6D6D6" stroke-width="4"/>
<path opacity="0.63" d="M552.666 68.6562L581.688 104.437" stroke="#D6D6D6" stroke-width="4"/>
<path opacity="0.21" d="M617.468 75.4147L581.687 104.436" stroke="#D6D6D6" stroke-width="4"/>
<path opacity="0.77" d="M617.48 75.4141L646.502 111.195" stroke="#D6D6D6" stroke-width="4"/>
<path opacity="0.64" d="M-33.9277 40.2188L-4.90616 75.9995" stroke="#D6D6D6" stroke-width="4"/>
<path opacity="0.72" d="M30.8738 46.9811L-4.90692 76.0027" stroke="#D6D6D6" stroke-width="4"/>
<path opacity="0.12" d="M30.8711 46.9785L59.8927 82.7592" stroke="#D6D6D6" stroke-width="4"/>
<path opacity="0.2" d="M95.6746 53.737L59.8939 82.7586" stroke="#D6D6D6" stroke-width="4"/>
<path opacity="0.69" d="M95.6758 53.7383L124.697 89.519" stroke="#D6D6D6" stroke-width="4"/>
<path opacity="0.45" d="M128.072 57.1191L157.094 92.8999" stroke="#D6D6D6" stroke-width="4"/>
<path opacity="0.86" d="M160.475 60.5L189.496 96.2807" stroke="#D6D6D6" stroke-width="4"/>
<path opacity="0.67" d="M192.883 63.875L221.904 99.6557" stroke="#D6D6D6" stroke-width="4"/>
<path d="M225.285 67.2559L254.307 103.037" stroke="#D6D6D6" stroke-width="4"/>
<path opacity="0.49" d="M257.686 70.6367L286.707 106.417" stroke="#D6D6D6" stroke-width="4"/>
<path opacity="0.62" d="M322.481 77.3952L286.701 106.417" stroke="#D6D6D6" stroke-width="4"/>
<path opacity="0.14" d="M322.482 77.3984L351.504 113.179" stroke="#D6D6D6" stroke-width="4"/>
<path opacity="0.35" d="M354.885 80.7793L383.906 116.56" stroke="#D6D6D6" stroke-width="4"/>
<path opacity="0.88" d="M419.688 87.5358L383.908 116.557" stroke="#D6D6D6" stroke-width="4"/>
<path opacity="0.72" d="M419.688 87.5371L448.709 123.318" stroke="#D6D6D6" stroke-width="4"/>
<path opacity="0.46" d="M452.086 90.9121L481.108 126.693" stroke="#D6D6D6" stroke-width="4"/>
<path opacity="0.61" d="M484.484 94.2949L513.506 130.076" stroke="#D6D6D6" stroke-width="4"/>
<path opacity="0.77" d="M516.889 97.6719L545.91 133.453" stroke="#D6D6D6" stroke-width="4"/>
<path opacity="0.3" d="M549.287 101.053L578.309 136.833" stroke="#D6D6D6" stroke-width="4"/>
<path opacity="0.87" d="M614.089 107.811L578.308 136.833" stroke="#D6D6D6" stroke-width="4"/>
<path opacity="0.48" d="M646.499 111.194L610.718 140.216" stroke="#D6D6D6" stroke-width="4"/>
<path opacity="0.18" d="M-4.9082 76.002L24.1134 111.783" stroke="#D6D6D6" stroke-width="4"/>
<path opacity="0.22" d="M59.8953 82.7585L24.1146 111.78" stroke="#D6D6D6" stroke-width="4"/>
<path opacity="0.91" d="M59.8965 82.7578L88.9181 118.539" stroke="#D6D6D6" stroke-width="4"/>
<path opacity="0.81" d="M92.291 86.1387L121.313 121.919" stroke="#D6D6D6" stroke-width="4"/>
<path opacity="0.63" d="M124.693 89.5215L153.715 125.302" stroke="#D6D6D6" stroke-width="4"/>
<path opacity="0.16" d="M189.495 96.2819L153.714 125.303" stroke="#D6D6D6" stroke-width="4"/>
<path opacity="0.38" d="M189.502 96.2793L218.524 132.06" stroke="#D6D6D6" stroke-width="4"/>
<path opacity="0.18" d="M221.904 99.6562L250.926 135.437" stroke="#D6D6D6" stroke-width="4"/>
<path opacity="0.14" d="M254.301 103.033L283.322 138.814" stroke="#D6D6D6" stroke-width="4"/>
<path opacity="0.68" d="M286.703 106.418L315.725 142.199" stroke="#D6D6D6" stroke-width="4"/>
<path opacity="0.62" d="M319.107 109.793L348.129 145.574" stroke="#D6D6D6" stroke-width="4"/>
<path opacity="0.09" d="M383.905 116.557L348.124 145.579" stroke="#D6D6D6" stroke-width="4"/>
<path opacity="0.99" d="M383.906 116.553L412.928 152.333" stroke="#D6D6D6" stroke-width="4"/>
<path opacity="0.99" d="M416.299 119.934L445.32 155.714" stroke="#D6D6D6" stroke-width="4"/>
<path opacity="0.25" d="M481.112 126.694L445.331 155.716" stroke="#D6D6D6" stroke-width="4"/>
<path opacity="0.88" d="M481.109 126.693L510.131 162.474" stroke="#D6D6D6" stroke-width="4"/>
<path opacity="0.47" d="M513.51 130.074L542.531 165.855" stroke="#D6D6D6" stroke-width="4"/>
<path opacity="0.41" d="M545.906 133.451L574.928 169.232" stroke="#D6D6D6" stroke-width="4"/>
<path opacity="0.66" d="M578.305 136.83L607.326 172.611" stroke="#D6D6D6" stroke-width="4"/>
<path opacity="0.65" d="M610.715 140.215L639.736 175.996" stroke="#D6D6D6" stroke-width="4"/>
<path opacity="0.99" d="M-8.28516 108.4L20.7364 144.181" stroke="#D6D6D6" stroke-width="4"/>
<path opacity="0.19" d="M56.5183 115.153L20.7376 144.175" stroke="#D6D6D6" stroke-width="4"/>
<path opacity="0.81" d="M56.5156 115.156L85.5372 150.937" stroke="#D6D6D6" stroke-width="4"/>
<path opacity="0.07" d="M88.918 118.539L117.94 154.32" stroke="#D6D6D6" stroke-width="4"/>
<path opacity="0.17" d="M121.314 121.916L150.336 157.697" stroke="#D6D6D6" stroke-width="4"/>
<path opacity="0.58" d="M153.715 125.297L182.736 161.078" stroke="#D6D6D6" stroke-width="4"/>
<path opacity="0.39" d="M186.125 128.678L215.147 164.458" stroke="#D6D6D6" stroke-width="4"/>
<path opacity="0.85" d="M218.523 132.061L247.545 167.841" stroke="#D6D6D6" stroke-width="4"/>
<path opacity="0.37" d="M250.928 135.436L279.949 171.216" stroke="#D6D6D6" stroke-width="4"/>
<path opacity="0.91" d="M315.727 142.194L279.947 171.216" stroke="#D6D6D6" stroke-width="4"/>
<path opacity="0.07" d="M315.723 142.197L344.744 177.978" stroke="#D6D6D6" stroke-width="4"/>
<path opacity="0.45" d="M348.127 145.574L377.149 181.355" stroke="#D6D6D6" stroke-width="4"/>
<path opacity="0.34" d="M380.523 148.957L409.545 184.738" stroke="#D6D6D6" stroke-width="4"/>
<path opacity="0.76" d="M412.926 152.338L441.947 188.119" stroke="#D6D6D6" stroke-width="4"/>
<path opacity="0.32" d="M445.328 155.715L474.35 191.496" stroke="#D6D6D6" stroke-width="4"/>
<path opacity="0.53" d="M477.73 159.096L506.752 194.876" stroke="#D6D6D6" stroke-width="4"/>
<path opacity="0.85" d="M510.131 162.477L539.152 198.257" stroke="#D6D6D6" stroke-width="4"/>
<path opacity="0.23" d="M542.531 165.855L571.553 201.636" stroke="#D6D6D6" stroke-width="4"/>
<path opacity="0.2" d="M574.934 169.23L603.955 205.011" stroke="#D6D6D6" stroke-width="4"/>
<path opacity="0.52" d="M607.338 172.613L636.359 208.394" stroke="#D6D6D6" stroke-width="4"/>
<path opacity="0.44" d="M-11.666 140.801L17.3556 176.582" stroke="#D6D6D6" stroke-width="4"/>
<path opacity="0.48" d="M20.7324 144.184L49.754 179.964" stroke="#D6D6D6" stroke-width="4"/>
<path opacity="0.08" d="M53.1348 147.559L82.1563 183.339" stroke="#D6D6D6" stroke-width="4"/>
<path opacity="0.68" d="M85.5312 150.939L114.553 186.72" stroke="#D6D6D6" stroke-width="4"/>
<path opacity="0.97" d="M150.337 157.7L114.556 186.721" stroke="#D6D6D6" stroke-width="4"/>
<path opacity="0.93" d="M182.733 161.077L146.952 190.098" stroke="#D6D6D6" stroke-width="4"/>
<path opacity="0.18" d="M215.145 164.462L179.365 193.483" stroke="#D6D6D6" stroke-width="4"/>
<path opacity="0.24" d="M215.145 164.461L244.166 200.242" stroke="#D6D6D6" stroke-width="4"/>
<path opacity="0.45" d="M247.545 167.838L276.566 203.619" stroke="#D6D6D6" stroke-width="4"/>
<path opacity="0.89" d="M312.346 174.598L276.566 203.62" stroke="#D6D6D6" stroke-width="4"/>
<path opacity="0.94" d="M312.344 174.598L341.365 210.378" stroke="#D6D6D6" stroke-width="4"/>
<path opacity="0.24" d="M344.742 177.982L373.764 213.763" stroke="#D6D6D6" stroke-width="4"/>
<path opacity="0.15" d="M377.145 181.357L406.166 217.138" stroke="#D6D6D6" stroke-width="4"/>
<path opacity="0.55" d="M441.944 188.118L406.163 217.139" stroke="#D6D6D6" stroke-width="4"/>
<path opacity="0.99" d="M441.945 188.115L470.967 223.896" stroke="#D6D6D6" stroke-width="4"/>
<path opacity="0.74" d="M474.348 191.492L503.369 227.273" stroke="#D6D6D6" stroke-width="4"/>
<path opacity="0.39" d="M539.149 198.255L503.368 227.276" stroke="#D6D6D6" stroke-width="4"/>
<path opacity="0.49" d="M539.15 198.254L568.172 234.035" stroke="#D6D6D6" stroke-width="4"/>
<path opacity="0.73" d="M571.551 201.635L600.572 237.415" stroke="#D6D6D6" stroke-width="4"/>
<path opacity="0.11" d="M636.356 208.393L600.576 237.415" stroke="#D6D6D6" stroke-width="4"/>
<path opacity="0.59" d="M-15.0449 173.201L13.9767 208.982" stroke="#D6D6D6" stroke-width="4"/>
<path opacity="0.6" d="M49.7547 179.958L13.9739 208.979" stroke="#D6D6D6" stroke-width="4"/>
<path opacity="0.42" d="M82.1531 183.344L46.3724 212.366" stroke="#D6D6D6" stroke-width="4"/>
<path opacity="0.61" d="M82.1562 183.338L111.178 219.119" stroke="#D6D6D6" stroke-width="4"/>
<path opacity="0.58" d="M114.559 186.719L143.58 222.499" stroke="#D6D6D6" stroke-width="4"/>
<path opacity="0.77" d="M146.951 190.098L175.973 225.878" stroke="#D6D6D6" stroke-width="4"/>
<path opacity="0.16" d="M211.768 196.86L175.988 225.882" stroke="#D6D6D6" stroke-width="4"/>
<path opacity="0.3" d="M211.768 196.859L240.789 232.64" stroke="#D6D6D6" stroke-width="4"/>
<path opacity="0.21" d="M244.164 200.238L273.186 236.019" stroke="#D6D6D6" stroke-width="4"/>
<path opacity="0.93" d="M276.562 203.617L305.584 239.398" stroke="#D6D6D6" stroke-width="4"/>
<path opacity="0.2" d="M308.967 206.998L337.988 242.779" stroke="#D6D6D6" stroke-width="4"/>
<path opacity="0.44" d="M341.363 210.377L370.385 246.158" stroke="#D6D6D6" stroke-width="4"/>
<path opacity="0.78" d="M373.77 213.756L402.791 249.537" stroke="#D6D6D6" stroke-width="4"/>
<path opacity="0.76" d="M406.164 217.139L435.186 252.919" stroke="#D6D6D6" stroke-width="4"/>
<path opacity="0.45" d="M470.966 223.897L435.185 252.919" stroke="#D6D6D6" stroke-width="4"/>
<path opacity="0.48" d="M470.971 223.895L499.992 259.675" stroke="#D6D6D6" stroke-width="4"/>
<path opacity="0.5" d="M535.772 230.653L499.992 259.675" stroke="#D6D6D6" stroke-width="4"/>
<path opacity="0.78" d="M568.171 234.036L532.39 263.057" stroke="#D6D6D6" stroke-width="4"/>
<path opacity="0.08" d="M568.172 234.033L597.193 269.814" stroke="#D6D6D6" stroke-width="4"/>
<path opacity="0.57" d="M600.58 237.414L629.602 273.195" stroke="#D6D6D6" stroke-width="4"/>
<path opacity="0.9" d="M13.9773 208.979L-21.8034 238.001" stroke="#D6D6D6" stroke-width="4"/>
<path opacity="0.89" d="M13.9746 208.98L42.9962 244.761" stroke="#D6D6D6" stroke-width="4"/>
<path opacity="0.27" d="M46.3691 212.361L75.3907 248.142" stroke="#D6D6D6" stroke-width="4"/>
<path opacity="0.39" d="M78.7793 215.744L107.801 251.525" stroke="#D6D6D6" stroke-width="4"/>
<path opacity="0.25" d="M143.577 222.501L107.796 251.522" stroke="#D6D6D6" stroke-width="4"/>
<path opacity="0.41" d="M143.574 222.5L172.596 258.281" stroke="#D6D6D6" stroke-width="4"/>
<path opacity="0.16" d="M175.986 225.877L205.008 261.658" stroke="#D6D6D6" stroke-width="4"/>
<path opacity="0.15" d="M208.385 229.264L237.406 265.044" stroke="#D6D6D6" stroke-width="4"/>
<path opacity="0.87" d="M273.184 236.022L237.404 265.044" stroke="#D6D6D6" stroke-width="4"/>
<path opacity="0.66" d="M273.184 236.02L302.205 271.8" stroke="#D6D6D6" stroke-width="4"/>
<path opacity="0.07" d="M305.584 239.395L334.606 275.175" stroke="#D6D6D6" stroke-width="4"/>
<path opacity="0.14" d="M337.982 242.775L367.004 278.556" stroke="#D6D6D6" stroke-width="4"/>
<path opacity="0.69" d="M370.387 246.156L399.408 281.937" stroke="#D6D6D6" stroke-width="4"/>
<path opacity="0.59" d="M435.196 252.915L399.415 281.936" stroke="#D6D6D6" stroke-width="4"/>
<path opacity="0.9" d="M467.585 256.298L431.804 285.319" stroke="#D6D6D6" stroke-width="4"/>
<path opacity="0.09" d="M499.989 259.678L464.208 288.7" stroke="#D6D6D6" stroke-width="4"/>
<path opacity="0.67" d="M532.389 263.053L496.609 292.075" stroke="#D6D6D6" stroke-width="4"/>
<path opacity="0.74" d="M564.79 266.428L529.009 295.45" stroke="#D6D6D6" stroke-width="4"/>
<path opacity="0.4" d="M597.194 269.815L561.413 298.837" stroke="#D6D6D6" stroke-width="4"/>
<path opacity="0.72" d="M597.203 269.812L626.225 305.593" stroke="#D6D6D6" stroke-width="4"/>
<path opacity="0.11" d="M-21.8066 238.006L7.21494 273.787" stroke="#D6D6D6" stroke-width="4"/>
<path opacity="0.98" d="M42.9929 244.764L7.21222 273.786" stroke="#D6D6D6" stroke-width="4"/>
<path opacity="0.11" d="M42.9961 244.764L72.0177 280.544" stroke="#D6D6D6" stroke-width="4"/>
<path opacity="0.77" d="M75.3945 248.141L104.416 283.921" stroke="#D6D6D6" stroke-width="4"/>
<path opacity="0.82" d="M107.795 251.52L136.816 287.3" stroke="#D6D6D6" stroke-width="4"/>
<path opacity="0.35" d="M140.199 254.898L169.221 290.679" stroke="#D6D6D6" stroke-width="4"/>
<path opacity="0.6" d="M172.604 258.283L201.625 294.064" stroke="#D6D6D6" stroke-width="4"/>
<path opacity="0.5" d="M205.008 261.66L234.029 297.441" stroke="#D6D6D6" stroke-width="4"/>
<path opacity="0.72" d="M237.404 265.037L266.426 300.818" stroke="#D6D6D6" stroke-width="4"/>
<path opacity="0.09" d="M269.805 268.422L298.826 304.203" stroke="#D6D6D6" stroke-width="4"/>
<path opacity="0.75" d="M302.207 271.799L331.229 307.58" stroke="#D6D6D6" stroke-width="4"/>
<path opacity="0.1" d="M334.607 275.176L363.629 310.957" stroke="#D6D6D6" stroke-width="4"/>
<path opacity="0.89" d="M399.411 281.936L363.63 310.958" stroke="#D6D6D6" stroke-width="4"/>
<path opacity="0.52" d="M399.41 281.939L428.432 317.72" stroke="#D6D6D6" stroke-width="4"/>
<path opacity="0.48" d="M431.805 285.318L460.826 321.099" stroke="#D6D6D6" stroke-width="4"/>
<path opacity="0.08" d="M464.213 288.691L493.234 324.472" stroke="#D6D6D6" stroke-width="4"/>
<path opacity="0.51" d="M496.609 292.074L525.631 327.855" stroke="#D6D6D6" stroke-width="4"/>
<path opacity="0.74" d="M529.014 295.451L558.035 331.232" stroke="#D6D6D6" stroke-width="4"/>
<path opacity="0.15" d="M561.406 298.832L590.428 334.613" stroke="#D6D6D6" stroke-width="4"/>
<path opacity="0.19" d="M626.223 305.596L590.443 334.618" stroke="#D6D6D6" stroke-width="4"/>
<path opacity="0.11" d="M-25.1836 270.41L3.83798 306.191" stroke="#D6D6D6" stroke-width="4"/>
<path opacity="0.44" d="M7.2168 273.789L36.2384 309.57" stroke="#D6D6D6" stroke-width="4"/>
<path opacity="0.53" d="M72.0164 280.549L36.2357 309.571" stroke="#D6D6D6" stroke-width="4"/>
<path opacity="0.65" d="M72.0117 280.549L101.033 316.33" stroke="#D6D6D6" stroke-width="4"/>
<path opacity="0.44" d="M104.42 283.934L133.441 319.714" stroke="#D6D6D6" stroke-width="4"/>
<path opacity="0.67" d="M136.818 287.311L165.84 323.091" stroke="#D6D6D6" stroke-width="4"/>
<path opacity="0.76" d="M201.626 294.069L165.845 323.091" stroke="#D6D6D6" stroke-width="4"/>
<path opacity="0.8" d="M201.623 294.072L230.645 329.853" stroke="#D6D6D6" stroke-width="4"/>
<path opacity="0.79" d="M234.025 297.449L263.047 333.23" stroke="#D6D6D6" stroke-width="4"/>
<path opacity="0.73" d="M266.428 300.828L295.449 336.609" stroke="#D6D6D6" stroke-width="4"/>
<path opacity="0.7" d="M298.83 304.209L327.852 339.99" stroke="#D6D6D6" stroke-width="4"/>
<path opacity="0.24" d="M331.227 307.588L360.248 343.369" stroke="#D6D6D6" stroke-width="4"/>
<path opacity="0.84" d="M363.627 310.969L392.649 346.749" stroke="#D6D6D6" stroke-width="4"/>
<path opacity="0.23" d="M396.029 314.348L425.051 350.128" stroke="#D6D6D6" stroke-width="4"/>
<path opacity="0.32" d="M428.426 317.725L457.447 353.505" stroke="#D6D6D6" stroke-width="4"/>
<path opacity="0.71" d="M460.83 321.107L489.852 356.888" stroke="#D6D6D6" stroke-width="4"/>
<path opacity="0.11" d="M493.234 324.488L522.256 360.269" stroke="#D6D6D6" stroke-width="4"/>
<path opacity="0.66" d="M525.631 327.869L554.652 363.65" stroke="#D6D6D6" stroke-width="4"/>
<path opacity="0.24" d="M590.43 334.624L554.65 363.645" stroke="#D6D6D6" stroke-width="4"/>
<path opacity="0.82" d="M622.843 338.007L587.062 367.028" stroke="#D6D6D6" stroke-width="4"/>
<path opacity="0.79" d="M622.842 338.008L651.863 373.789" stroke="#D6D6D6" stroke-width="4"/>
<path opacity="0.89" d="M3.8367 306.192L-31.944 335.214" stroke="#D6D6D6" stroke-width="4"/>
<path opacity="0.42" d="M3.82812 306.191L32.8497 341.972" stroke="#D6D6D6" stroke-width="4"/>
<path opacity="0.25" d="M68.6355 312.948L32.8548 341.97" stroke="#D6D6D6" stroke-width="4"/>
<path opacity="0.72" d="M68.6348 312.951L97.6563 348.732" stroke="#D6D6D6" stroke-width="4"/>
<path opacity="0.24" d="M133.438 319.71L97.6575 348.731" stroke="#D6D6D6" stroke-width="4"/>
<path opacity="0.22" d="M165.839 323.091L130.058 352.112" stroke="#D6D6D6" stroke-width="4"/>
<path opacity="0.65" d="M165.846 323.094L194.867 358.874" stroke="#D6D6D6" stroke-width="4"/>
<path opacity="0.55" d="M198.242 326.473L227.264 362.253" stroke="#D6D6D6" stroke-width="4"/>
<path opacity="0.69" d="M230.645 329.854L259.666 365.634" stroke="#D6D6D6" stroke-width="4"/>
<path opacity="0.35" d="M263.047 333.229L292.068 369.009" stroke="#D6D6D6" stroke-width="4"/>
<path opacity="0.71" d="M295.447 336.609L324.469 372.39" stroke="#D6D6D6" stroke-width="4"/>
<path opacity="0.86" d="M327.842 339.992L356.863 375.773" stroke="#D6D6D6" stroke-width="4"/>
<path opacity="0.23" d="M360.246 343.367L389.268 379.148" stroke="#D6D6D6" stroke-width="4"/>
<path opacity="0.65" d="M392.65 346.754L421.672 382.535" stroke="#D6D6D6" stroke-width="4"/>
<path opacity="0.24" d="M425.047 350.129L454.068 385.91" stroke="#D6D6D6" stroke-width="4"/>
<path opacity="0.89" d="M489.854 356.889L454.074 385.911" stroke="#D6D6D6" stroke-width="4"/>
<path opacity="0.35" d="M522.251 360.268L486.47 389.29" stroke="#D6D6D6" stroke-width="4"/>
<path opacity="0.11" d="M522.248 360.268L551.27 396.048" stroke="#D6D6D6" stroke-width="4"/>
<path opacity="0.2" d="M554.65 363.643L583.672 399.423" stroke="#D6D6D6" stroke-width="4"/>
<path opacity="0.6" d="M587.057 367.023L616.078 402.804" stroke="#D6D6D6" stroke-width="4"/>
<path opacity="0.99" d="M-31.9414 335.215L-2.91983 370.996" stroke="#D6D6D6" stroke-width="4"/>
<path opacity="0.53" d="M32.8562 341.977L-2.9245 370.999" stroke="#D6D6D6" stroke-width="4"/>
<path opacity="0.87" d="M65.2586 345.352L29.4778 374.374" stroke="#D6D6D6" stroke-width="4"/>
<path opacity="0.43" d="M97.657 348.729L61.8763 377.751" stroke="#D6D6D6" stroke-width="4"/>
<path opacity="0.31" d="M97.6582 348.732L126.68 384.513" stroke="#D6D6D6" stroke-width="4"/>
<path opacity="0.45" d="M130.057 352.111L159.078 387.892" stroke="#D6D6D6" stroke-width="4"/>
<path opacity="0.61" d="M194.868 358.872L159.087 387.893" stroke="#D6D6D6" stroke-width="4"/>
<path opacity="0.19" d="M194.865 358.873L223.887 394.654" stroke="#D6D6D6" stroke-width="4"/>
<path opacity="0.6" d="M227.268 362.248L256.289 398.029" stroke="#D6D6D6" stroke-width="4"/>
<path opacity="0.92" d="M259.67 365.631L288.691 401.412" stroke="#D6D6D6" stroke-width="4"/>
</g>
</g>
<defs>
<clipPath id="clip0_4386_11883">
<rect width="619" height="366" rx="8" fill="white"/>
</clipPath>
</defs>
</svg>
