<svg width="67" height="67" viewBox="0 0 67 67" fill="none" xmlns="http://www.w3.org/2000/svg">
<g clip-path="url(#clip0_4644_9956)">
<path d="M46.0625 58.625C52.9886 58.625 58.625 52.9886 58.625 46.0625V12.5625C58.625 5.63638 52.9886 0 46.0625 0H12.5625C5.63638 0 0 5.63638 0 12.5625V46.0625C0 52.9886 5.63638 58.625 12.5625 58.625H46.0625ZM2.79167 46.0625V12.5625C2.79167 7.17458 7.17458 2.79167 12.5625 2.79167H46.0625C51.4504 2.79167 55.8333 7.17458 55.8333 12.5625V46.0625C55.8333 51.4504 51.4504 55.8333 46.0625 55.8333H12.5625C7.17458 55.8333 2.79167 51.4504 2.79167 46.0625ZM67 12.5625V54.4375C67 61.3636 61.3636 67 54.4375 67H12.5625C11.792 67 11.1667 66.3747 11.1667 65.6042C11.1667 64.8337 11.792 64.2083 12.5625 64.2083H54.4375C59.8254 64.2083 64.2083 59.8254 64.2083 54.4375V12.5625C64.2083 11.792 64.8337 11.1667 65.6042 11.1667C66.3747 11.1667 67 11.792 67 12.5625Z" fill="#222222"/>
</g>
<defs>
<clipPath id="clip0_4644_9956">
<rect width="67" height="67" fill="white"/>
</clipPath>
</defs>
</svg>
