<svg width="343" height="93" viewBox="0 0 343 93" fill="none" xmlns="http://www.w3.org/2000/svg">
<path d="M1.49432 4.44957H3.55682V8.24503C3.55682 8.73745 3.64205 9.1276 3.8125 9.41548C3.98674 9.70336 4.24432 9.9098 4.58523 10.0348C4.92614 10.1598 5.35038 10.2223 5.85795 10.2223C6.08523 10.2223 6.32955 10.2147 6.59091 10.1996C6.85606 10.1806 7.12311 10.156 7.39205 10.1257C7.66099 10.0916 7.91856 10.0518 8.16477 10.0064C8.41098 9.95715 8.63068 9.90412 8.82386 9.8473V11.5632C8.63068 11.6238 8.41477 11.6787 8.17614 11.728C7.9375 11.7772 7.68561 11.8189 7.42045 11.853C7.1553 11.8871 6.89015 11.9136 6.625 11.9325C6.35985 11.9515 6.10417 11.9609 5.85795 11.9609C4.9678 11.9609 4.19508 11.834 3.53977 11.5803C2.88826 11.3227 2.38447 10.9212 2.02841 10.3757C1.67235 9.83026 1.49432 9.12003 1.49432 8.24503V4.44957ZM8.47727 4.44957H10.5511V16.0859H8.47727V4.44957ZM16.8892 16.2564C16.0142 16.2564 15.2585 16.0746 14.6222 15.7109C13.9896 15.3435 13.5028 14.8246 13.1619 14.1541C12.821 13.4799 12.6506 12.6863 12.6506 11.7734C12.6506 10.8757 12.821 10.0878 13.1619 9.4098C13.5066 8.72798 13.9877 8.19768 14.6051 7.81889C15.2225 7.43632 15.9479 7.24503 16.7812 7.24503C17.3191 7.24503 17.8267 7.33215 18.304 7.50639C18.785 7.67685 19.2093 7.942 19.5767 8.30185C19.9479 8.66169 20.2396 9.12003 20.4517 9.67685C20.6638 10.2299 20.7699 10.889 20.7699 11.6541V12.2848H13.6165V10.8984H18.7983C18.7945 10.5045 18.7093 10.1541 18.5426 9.8473C18.3759 9.5367 18.143 9.29238 17.8438 9.11435C17.5483 8.93632 17.2036 8.8473 16.8097 8.8473C16.3892 8.8473 16.0199 8.94957 15.7017 9.15412C15.3835 9.35488 15.1354 9.62003 14.9574 9.94957C14.7831 10.2753 14.6941 10.6333 14.6903 11.0234V12.2337C14.6903 12.7412 14.7831 13.1768 14.9688 13.5405C15.1544 13.9003 15.4138 14.1768 15.7472 14.37C16.0805 14.5594 16.4706 14.6541 16.9176 14.6541C17.2169 14.6541 17.4877 14.6125 17.7301 14.5291C17.9725 14.442 18.1828 14.3151 18.3608 14.1484C18.5388 13.9818 18.6733 13.7753 18.7642 13.5291L20.6847 13.745C20.5634 14.2526 20.3324 14.6958 19.9915 15.0746C19.6544 15.4496 19.2225 15.7412 18.696 15.9496C18.1695 16.1541 17.5672 16.2564 16.8892 16.2564ZM22.5099 16.0859V7.35866H24.5668V10.8814H25.3168L27.9418 7.35866H30.419L27.1861 11.6428L30.4531 16.0859H27.9645L25.5724 12.7962H24.5668V16.0859H22.5099ZM39.3949 16.2564C38.5426 16.2564 37.804 16.0689 37.179 15.6939C36.554 15.3189 36.0691 14.7943 35.7244 14.12C35.3835 13.4458 35.2131 12.6579 35.2131 11.7564C35.2131 10.8549 35.3835 10.0651 35.7244 9.38707C36.0691 8.70904 36.554 8.18253 37.179 7.80753C37.804 7.43253 38.5426 7.24503 39.3949 7.24503C40.2472 7.24503 40.9858 7.43253 41.6108 7.80753C42.2358 8.18253 42.7188 8.70904 43.0597 9.38707C43.4044 10.0651 43.5767 10.8549 43.5767 11.7564C43.5767 12.6579 43.4044 13.4458 43.0597 14.12C42.7188 14.7943 42.2358 15.3189 41.6108 15.6939C40.9858 16.0689 40.2472 16.2564 39.3949 16.2564ZM39.4062 14.6087C39.8684 14.6087 40.2547 14.4818 40.5653 14.228C40.8759 13.9704 41.107 13.6257 41.2585 13.1939C41.4138 12.7621 41.4915 12.281 41.4915 11.7507C41.4915 11.2166 41.4138 10.7337 41.2585 10.3018C41.107 9.86624 40.8759 9.51965 40.5653 9.26207C40.2547 9.0045 39.8684 8.87571 39.4062 8.87571C38.9328 8.87571 38.5388 9.0045 38.2244 9.26207C37.9138 9.51965 37.6809 9.86624 37.5256 10.3018C37.3741 10.7337 37.2983 11.2166 37.2983 11.7507C37.2983 12.281 37.3741 12.7621 37.5256 13.1939C37.6809 13.6257 37.9138 13.9704 38.2244 14.228C38.5388 14.4818 38.9328 14.6087 39.4062 14.6087ZM45.3224 16.0859V7.35866H52.6918V16.0859H50.7088V9.04616H47.2884V16.0859H45.3224ZM54.2045 16.0859L54.1932 14.3928H54.4943C54.7216 14.3928 54.9129 14.3416 55.0682 14.2393C55.2235 14.1371 55.3523 13.9666 55.4545 13.728C55.5568 13.4856 55.6364 13.1598 55.6932 12.7507C55.75 12.3416 55.7898 11.8321 55.8125 11.2223L55.9659 7.35866H62.3295V16.0859H60.3409V9.04616H57.8352L57.6989 11.8587C57.6648 12.5859 57.5833 13.2166 57.4545 13.7507C57.3295 14.281 57.1515 14.7185 56.9205 15.0632C56.6932 15.4079 56.4072 15.6655 56.0625 15.8359C55.7178 16.0026 55.3106 16.0859 54.8409 16.0859H54.2045ZM66.9119 16.2621C66.3589 16.2621 65.8608 16.1636 65.4176 15.9666C64.9782 15.7659 64.6297 15.4704 64.3722 15.0803C64.1184 14.6901 63.9915 14.209 63.9915 13.6371C63.9915 13.1446 64.0824 12.7375 64.2642 12.4155C64.446 12.0935 64.6941 11.8359 65.0085 11.6428C65.3229 11.4496 65.6771 11.3037 66.071 11.2053C66.4688 11.103 66.8797 11.0291 67.304 10.9837C67.8153 10.9306 68.2301 10.8833 68.5483 10.8416C68.8665 10.7962 69.0975 10.728 69.2415 10.6371C69.3892 10.5424 69.4631 10.3965 69.4631 10.1996V10.1655C69.4631 9.73745 69.3362 9.40601 69.0824 9.17116C68.8286 8.93632 68.4631 8.81889 67.9858 8.81889C67.482 8.81889 67.0824 8.92874 66.7869 9.14844C66.4953 9.36813 66.2983 9.6276 66.196 9.92685L64.2756 9.65412C64.4271 9.12382 64.6771 8.68063 65.0256 8.32457C65.3741 7.96472 65.8002 7.69579 66.304 7.51776C66.8078 7.33594 67.3646 7.24503 67.9744 7.24503C68.3949 7.24503 68.8134 7.29427 69.2301 7.39276C69.6468 7.49124 70.0275 7.65412 70.3722 7.88139C70.7169 8.10488 70.9934 8.4098 71.2017 8.79616C71.4138 9.18253 71.5199 9.66548 71.5199 10.245V16.0859H69.5426V14.8871H69.4744C69.3494 15.1295 69.1733 15.3568 68.946 15.5689C68.7225 15.7772 68.4403 15.9458 68.0994 16.0746C67.7623 16.1996 67.3665 16.2621 66.9119 16.2621ZM67.446 14.7507C67.8589 14.7507 68.2169 14.6693 68.5199 14.5064C68.8229 14.3397 69.0559 14.12 69.2188 13.8473C69.3854 13.5746 69.4688 13.2772 69.4688 12.9553V11.9268C69.4044 11.9799 69.2945 12.0291 69.1392 12.0746C68.9877 12.12 68.8172 12.1598 68.6278 12.1939C68.4384 12.228 68.2509 12.2583 68.0653 12.2848C67.8797 12.3113 67.7188 12.334 67.5824 12.353C67.2756 12.3946 67.0009 12.4628 66.7585 12.5575C66.5161 12.6522 66.3248 12.7848 66.1847 12.9553C66.0445 13.1219 65.9744 13.3378 65.9744 13.603C65.9744 13.9818 66.1127 14.2678 66.3892 14.4609C66.6657 14.6541 67.018 14.7507 67.446 14.7507ZM72.6108 9.04616V7.35866H80.2472V9.04616H77.4233V16.0859H75.4347V9.04616H72.6108ZM83.277 10.1996H85.8509C86.9645 10.1996 87.8262 10.4704 88.4361 11.0121C89.0459 11.5537 89.3527 12.264 89.3565 13.1428C89.3527 13.7147 89.2126 14.2223 88.9361 14.6655C88.6634 15.1087 88.2656 15.4571 87.7429 15.7109C87.224 15.9609 86.5933 16.0859 85.8509 16.0859H81.8849V7.35866H83.8679V14.3984H85.8509C86.2978 14.3984 86.6652 14.2848 86.9531 14.0575C87.241 13.8265 87.3849 13.531 87.3849 13.1712C87.3849 12.7924 87.241 12.4837 86.9531 12.245C86.6652 12.0064 86.2978 11.8871 85.8509 11.8871H83.277V10.1996ZM90.4418 16.0859V7.35866H92.4986V16.0859H90.4418Z" fill="#222222"/>
<rect width="87" height="3" transform="translate(102 8.58594)" fill="#E8E8E8"/>
<path d="M191.1 9.56632C191.5 9.79726 191.5 10.3746 191.1 10.6056L180.9 16.4945C180.5 16.7255 180 16.4368 180 15.9749V4.19696C180 3.73508 180.5 3.44641 180.9 3.67735L191.1 9.56632Z" fill="#E8E8E8"/>
<path d="M208.108 8.37571H205.983C205.922 8.02723 205.811 7.71851 205.648 7.44957C205.485 7.17685 205.282 6.94579 205.04 6.75639C204.797 6.567 204.521 6.42495 204.21 6.33026C203.903 6.23177 203.572 6.18253 203.216 6.18253C202.583 6.18253 202.023 6.34162 201.534 6.6598C201.045 6.97419 200.663 7.43632 200.386 8.04616C200.11 8.65223 199.972 9.39276 199.972 10.2678C199.972 11.1579 200.11 11.9079 200.386 12.5178C200.667 13.1238 201.049 13.5821 201.534 13.8928C202.023 14.1996 202.581 14.353 203.21 14.353C203.559 14.353 203.884 14.3075 204.188 14.2166C204.494 14.1219 204.769 13.9837 205.011 13.8018C205.258 13.62 205.464 13.3965 205.631 13.1314C205.801 12.8662 205.919 12.5632 205.983 12.2223L208.108 12.2337C208.028 12.7867 207.856 13.3056 207.591 13.7905C207.33 14.2753 206.987 14.7034 206.562 15.0746C206.138 15.442 205.642 15.7299 205.074 15.9382C204.506 16.1428 203.875 16.245 203.182 16.245C202.159 16.245 201.246 16.0083 200.443 15.5348C199.64 15.0613 199.008 14.3776 198.545 13.4837C198.083 12.5897 197.852 11.5178 197.852 10.2678C197.852 9.01397 198.085 7.942 198.551 7.05185C199.017 6.15791 199.652 5.47419 200.455 5.00071C201.258 4.52722 202.167 4.29048 203.182 4.29048C203.83 4.29048 204.432 4.38139 204.989 4.56321C205.545 4.74503 206.042 5.01207 206.477 5.36435C206.913 5.71283 207.271 6.14086 207.551 6.64844C207.835 7.15223 208.021 7.72798 208.108 8.37571ZM209.947 16.0859V7.35866H212.004V10.8814H212.754L215.379 7.35866H217.857L214.624 11.6428L217.891 16.0859H215.402L213.01 12.7962H212.004V16.0859H209.947ZM218.455 16.0859L218.443 14.3928H218.744C218.972 14.3928 219.163 14.3416 219.318 14.2393C219.473 14.1371 219.602 13.9666 219.705 13.728C219.807 13.4856 219.886 13.1598 219.943 12.7507C220 12.3416 220.04 11.8321 220.062 11.2223L220.216 7.35866H226.58V16.0859H224.591V9.04616H222.085L221.949 11.8587C221.915 12.5859 221.833 13.2166 221.705 13.7507C221.58 14.281 221.402 14.7185 221.17 15.0632C220.943 15.4079 220.657 15.6655 220.312 15.8359C219.968 16.0026 219.561 16.0859 219.091 16.0859H218.455ZM231.162 16.2621C230.609 16.2621 230.111 16.1636 229.668 15.9666C229.228 15.7659 228.88 15.4704 228.622 15.0803C228.368 14.6901 228.241 14.209 228.241 13.6371C228.241 13.1446 228.332 12.7375 228.514 12.4155C228.696 12.0935 228.944 11.8359 229.259 11.6428C229.573 11.4496 229.927 11.3037 230.321 11.2053C230.719 11.103 231.13 11.0291 231.554 10.9837C232.065 10.9306 232.48 10.8833 232.798 10.8416C233.116 10.7962 233.348 10.728 233.491 10.6371C233.639 10.5424 233.713 10.3965 233.713 10.1996V10.1655C233.713 9.73745 233.586 9.40601 233.332 9.17116C233.079 8.93632 232.713 8.81889 232.236 8.81889C231.732 8.81889 231.332 8.92874 231.037 9.14844C230.745 9.36813 230.548 9.6276 230.446 9.92685L228.526 9.65412C228.677 9.12382 228.927 8.68063 229.276 8.32457C229.624 7.96472 230.05 7.69579 230.554 7.51776C231.058 7.33594 231.615 7.24503 232.224 7.24503C232.645 7.24503 233.063 7.29427 233.48 7.39276C233.897 7.49124 234.277 7.65412 234.622 7.88139C234.967 8.10488 235.243 8.4098 235.452 8.79616C235.664 9.18253 235.77 9.66548 235.77 10.245V16.0859H233.793V14.8871H233.724C233.599 15.1295 233.423 15.3568 233.196 15.5689C232.973 15.7772 232.69 15.9458 232.349 16.0746C232.012 16.1996 231.616 16.2621 231.162 16.2621ZM231.696 14.7507C232.109 14.7507 232.467 14.6693 232.77 14.5064C233.073 14.3397 233.306 14.12 233.469 13.8473C233.635 13.5746 233.719 13.2772 233.719 12.9553V11.9268C233.654 11.9799 233.545 12.0291 233.389 12.0746C233.238 12.12 233.067 12.1598 232.878 12.1939C232.688 12.228 232.501 12.2583 232.315 12.2848C232.13 12.3113 231.969 12.334 231.832 12.353C231.526 12.3946 231.251 12.4628 231.009 12.5575C230.766 12.6522 230.575 12.7848 230.435 12.9553C230.295 13.1219 230.224 13.3378 230.224 13.603C230.224 13.9818 230.363 14.2678 230.639 14.4609C230.916 14.6541 231.268 14.7507 231.696 14.7507ZM237.065 18.62V14.3928H237.759C237.944 14.2488 238.099 14.0537 238.224 13.8075C238.349 13.5575 238.452 13.264 238.531 12.9268C238.615 12.5859 238.683 12.2053 238.736 11.7848C238.789 11.3606 238.836 10.9041 238.878 10.4155L239.128 7.35866H245.435V14.3928H246.787V18.62H244.798V16.0859H239.088V18.62H237.065ZM239.872 14.3928H243.469V9.01776H240.912L240.776 10.4155C240.7 11.3397 240.599 12.1314 240.474 12.7905C240.349 13.4496 240.149 13.9837 239.872 14.3928Z" fill="#222222"/>
<rect width="87" height="3" transform="translate(256 8.58594)" fill="#E8E8E8"/>
<rect width="3" height="37" transform="translate(340 9)" fill="#E8E8E8"/>
<rect width="39.6667" height="3" transform="matrix(-1 0 0 1 39.667 44.5859)" fill="#E8E8E8"/>
<path d="M53.2124 41.745H55.5647C56.4738 41.745 57.2806 41.9401 57.9852 42.3303C58.6897 42.7204 59.2427 43.2696 59.6443 43.978C60.0458 44.6825 60.2465 45.5083 60.2465 46.4553C60.2465 47.3795 60.0458 48.1882 59.6443 48.8814C59.2427 49.5746 58.6897 50.1143 57.9852 50.5007C57.2806 50.8833 56.4738 51.0746 55.5647 51.0746H53.2124C52.2996 51.0746 51.489 50.8852 50.7806 50.5064C50.0761 50.1238 49.5231 49.5859 49.1215 48.8928C48.72 48.1996 48.5193 47.389 48.5193 46.4609C48.5193 45.514 48.7219 44.6882 49.1272 43.9837C49.5325 43.2753 50.0874 42.7261 50.792 42.3359C51.5003 41.942 52.3071 41.745 53.2124 41.745ZM53.2124 43.5291C52.6594 43.5291 52.1802 43.6428 51.7749 43.87C51.3734 44.0935 51.0628 44.4231 50.8431 44.8587C50.6234 45.2943 50.5136 45.8284 50.5136 46.4609C50.5136 47.067 50.6234 47.5803 50.8431 48.0007C51.0666 48.4212 51.381 48.7412 51.7863 48.9609C52.1916 49.1806 52.667 49.2905 53.2124 49.2905H55.5704C56.1196 49.2905 56.5931 49.1806 56.9909 48.9609C57.3924 48.7375 57.7011 48.4155 57.917 47.995C58.1367 47.5708 58.2465 47.0575 58.2465 46.4553C58.2465 45.8303 58.1367 45.3 57.917 44.8643C57.7011 44.4287 57.3924 44.0973 56.9909 43.87C56.5931 43.6428 56.1196 43.5291 55.5704 43.5291H53.2124ZM55.4056 40.245V52.5632H53.3772V40.245H55.4056ZM65.9681 52.2564C65.1159 52.2564 64.3772 52.0689 63.7522 51.6939C63.1272 51.3189 62.6424 50.7943 62.2977 50.12C61.9568 49.4458 61.7863 48.6579 61.7863 47.7564C61.7863 46.8549 61.9568 46.0651 62.2977 45.3871C62.6424 44.709 63.1272 44.1825 63.7522 43.8075C64.3772 43.4325 65.1159 43.245 65.9681 43.245C66.8204 43.245 67.559 43.4325 68.184 43.8075C68.809 44.1825 69.292 44.709 69.6329 45.3871C69.9776 46.0651 70.1499 46.8549 70.1499 47.7564C70.1499 48.6579 69.9776 49.4458 69.6329 50.12C69.292 50.7943 68.809 51.3189 68.184 51.6939C67.559 52.0689 66.8204 52.2564 65.9681 52.2564ZM65.9795 50.6087C66.4416 50.6087 66.828 50.4818 67.1386 50.228C67.4492 49.9704 67.6802 49.6257 67.8318 49.1939C67.9871 48.7621 68.0647 48.281 68.0647 47.7507C68.0647 47.2166 67.9871 46.7337 67.8318 46.3018C67.6802 45.8662 67.4492 45.5196 67.1386 45.2621C66.828 45.0045 66.4416 44.8757 65.9795 44.8757C65.506 44.8757 65.1121 45.0045 64.7977 45.2621C64.4871 45.5196 64.2541 45.8662 64.0988 46.3018C63.9473 46.7337 63.8715 47.2166 63.8715 47.7507C63.8715 48.281 63.9473 48.7621 64.0988 49.1939C64.2541 49.6257 64.4871 49.9704 64.7977 50.228C65.1121 50.4818 65.506 50.6087 65.9795 50.6087ZM70.934 45.0462V43.3587H78.5704V45.0462H75.7465V52.0859H73.7579V45.0462H70.934ZM83.6556 52.2564C82.8034 52.2564 82.0647 52.0689 81.4397 51.6939C80.8147 51.3189 80.3299 50.7943 79.9852 50.12C79.6443 49.4458 79.4738 48.6579 79.4738 47.7564C79.4738 46.8549 79.6443 46.0651 79.9852 45.3871C80.3299 44.709 80.8147 44.1825 81.4397 43.8075C82.0647 43.4325 82.8034 43.245 83.6556 43.245C84.5079 43.245 85.2465 43.4325 85.8715 43.8075C86.4965 44.1825 86.9795 44.709 87.3204 45.3871C87.6651 46.0651 87.8374 46.8549 87.8374 47.7564C87.8374 48.6579 87.6651 49.4458 87.3204 50.12C86.9795 50.7943 86.4965 51.3189 85.8715 51.6939C85.2465 52.0689 84.5079 52.2564 83.6556 52.2564ZM83.667 50.6087C84.1291 50.6087 84.5155 50.4818 84.8261 50.228C85.1367 49.9704 85.3677 49.6257 85.5193 49.1939C85.6746 48.7621 85.7522 48.281 85.7522 47.7507C85.7522 47.2166 85.6746 46.7337 85.5193 46.3018C85.3677 45.8662 85.1367 45.5196 84.8261 45.2621C84.5155 45.0045 84.1291 44.8757 83.667 44.8757C83.1935 44.8757 82.7996 45.0045 82.4852 45.2621C82.1746 45.5196 81.9416 45.8662 81.7863 46.3018C81.6348 46.7337 81.559 47.2166 81.559 47.7507C81.559 48.281 81.6348 48.7621 81.7863 49.1939C81.9416 49.6257 82.1746 49.9704 82.4852 50.228C82.7996 50.4818 83.1935 50.6087 83.667 50.6087ZM97.3588 52.2564C96.5065 52.2564 95.7678 52.0689 95.1428 51.6939C94.5178 51.3189 94.033 50.7943 93.6883 50.12C93.3474 49.4458 93.1769 48.6579 93.1769 47.7564C93.1769 46.8549 93.3474 46.0651 93.6883 45.3871C94.033 44.709 94.5178 44.1825 95.1428 43.8075C95.7678 43.4325 96.5065 43.245 97.3588 43.245C98.211 43.245 98.9497 43.4325 99.5747 43.8075C100.2 44.1825 100.683 44.709 101.024 45.3871C101.368 46.0651 101.541 46.8549 101.541 47.7564C101.541 48.6579 101.368 49.4458 101.024 50.12C100.683 50.7943 100.2 51.3189 99.5747 51.6939C98.9497 52.0689 98.211 52.2564 97.3588 52.2564ZM97.3701 50.6087C97.8322 50.6087 98.2186 50.4818 98.5292 50.228C98.8398 49.9704 99.0709 49.6257 99.2224 49.1939C99.3777 48.7621 99.4553 48.281 99.4553 47.7507C99.4553 47.2166 99.3777 46.7337 99.2224 46.3018C99.0709 45.8662 98.8398 45.5196 98.5292 45.2621C98.2186 45.0045 97.8322 44.8757 97.3701 44.8757C96.8966 44.8757 96.5027 45.0045 96.1883 45.2621C95.8777 45.5196 95.6447 45.8662 95.4894 46.3018C95.3379 46.7337 95.2622 47.2166 95.2622 47.7507C95.2622 48.281 95.3379 48.7621 95.4894 49.1939C95.6447 49.6257 95.8777 49.9704 96.1883 50.228C96.5027 50.4818 96.8966 50.6087 97.3701 50.6087ZM102.325 45.0462V43.3587H109.961V45.0462H107.137V52.0859H105.149V45.0462H102.325ZM118.529 43.3587V52.0859H116.552V43.3587H118.529ZM117.603 47.3018V48.9837C117.38 49.0821 117.126 49.1712 116.842 49.2507C116.561 49.3265 116.264 49.3871 115.95 49.4325C115.639 49.478 115.328 49.5007 115.018 49.5007C113.851 49.5007 112.929 49.2393 112.251 48.7166C111.577 48.1901 111.239 47.37 111.239 46.2564V43.3473H113.205V46.2564C113.205 46.6314 113.272 46.9325 113.404 47.1598C113.537 47.3871 113.738 47.5537 114.006 47.6598C114.275 47.7621 114.613 47.8132 115.018 47.8132C115.472 47.8132 115.904 47.7678 116.313 47.6768C116.722 47.5859 117.152 47.4609 117.603 47.3018ZM124.462 52.2564C123.587 52.2564 122.832 52.0746 122.195 51.7109C121.563 51.3435 121.076 50.8246 120.735 50.1541C120.394 49.4799 120.224 48.6863 120.224 47.7734C120.224 46.8757 120.394 46.0878 120.735 45.4098C121.08 44.728 121.561 44.1977 122.178 43.8189C122.796 43.4363 123.521 43.245 124.354 43.245C124.892 43.245 125.4 43.3321 125.877 43.5064C126.358 43.6768 126.783 43.942 127.15 44.3018C127.521 44.6617 127.813 45.12 128.025 45.6768C128.237 46.2299 128.343 46.889 128.343 47.6541V48.2848H121.19V46.8984H126.372C126.368 46.5045 126.283 46.1541 126.116 45.8473C125.949 45.5367 125.716 45.2924 125.417 45.1143C125.122 44.9363 124.777 44.8473 124.383 44.8473C123.962 44.8473 123.593 44.9496 123.275 45.1541C122.957 45.3549 122.709 45.62 122.531 45.9496C122.356 46.2753 122.267 46.6333 122.264 47.0234V48.2337C122.264 48.7412 122.356 49.1768 122.542 49.5405C122.728 49.9003 122.987 50.1768 123.32 50.37C123.654 50.5594 124.044 50.6541 124.491 50.6541C124.79 50.6541 125.061 50.6125 125.303 50.5291C125.546 50.442 125.756 50.3151 125.934 50.1484C126.112 49.9818 126.247 49.7753 126.337 49.5291L128.258 49.745C128.137 50.2526 127.906 50.6958 127.565 51.0746C127.228 51.4496 126.796 51.7412 126.269 51.9496C125.743 52.1541 125.14 52.2564 124.462 52.2564ZM129.356 45.0462V43.3587H136.992V45.0462H134.168V52.0859H132.18V45.0462H129.356Z" fill="#222222"/>
<rect width="39.6667" height="3" transform="matrix(-1 0 0 1 185.333 44.5859)" fill="#E8E8E8"/>
<path d="M143.233 45.5663C142.833 45.7973 142.833 46.3746 143.233 46.6056L153.433 52.4945C153.833 52.7255 154.333 52.4368 154.333 51.9749V40.197C154.333 39.7351 153.833 39.4464 153.433 39.6773L143.233 45.5663Z" fill="#E8E8E8"/>
<path d="M193.969 42.2166V40.4496H203.253V42.2166H199.657V52.0859H197.566V42.2166H193.969ZM207.494 52.2564C206.641 52.2564 205.903 52.0689 205.278 51.6939C204.653 51.3189 204.168 50.7943 203.823 50.12C203.482 49.4458 203.312 48.6579 203.312 47.7564C203.312 46.8549 203.482 46.0651 203.823 45.3871C204.168 44.709 204.653 44.1825 205.278 43.8075C205.903 43.4325 206.641 43.245 207.494 43.245C208.346 43.245 209.084 43.4325 209.709 43.8075C210.334 44.1825 210.817 44.709 211.158 45.3871C211.503 46.0651 211.675 46.8549 211.675 47.7564C211.675 48.6579 211.503 49.4458 211.158 50.12C210.817 50.7943 210.334 51.3189 209.709 51.6939C209.084 52.0689 208.346 52.2564 207.494 52.2564ZM207.505 50.6087C207.967 50.6087 208.353 50.4818 208.664 50.228C208.975 49.9704 209.206 49.6257 209.357 49.1939C209.512 48.7621 209.59 48.281 209.59 47.7507C209.59 47.2166 209.512 46.7337 209.357 46.3018C209.206 45.8662 208.975 45.5196 208.664 45.2621C208.353 45.0045 207.967 44.8757 207.505 44.8757C207.031 44.8757 206.637 45.0045 206.323 45.2621C206.012 45.5196 205.78 45.8662 205.624 46.3018C205.473 46.7337 205.397 47.2166 205.397 47.7507C205.397 48.281 205.473 48.7621 205.624 49.1939C205.78 49.6257 206.012 49.9704 206.323 50.228C206.637 50.4818 207.031 50.6087 207.505 50.6087ZM213.421 52.0859V43.3587H217.086C218.12 43.3587 218.936 43.5651 219.535 43.978C220.137 44.3909 220.438 44.9666 220.438 45.7053C220.438 46.1939 220.268 46.5935 219.927 46.9041C219.59 47.2109 219.129 47.4174 218.546 47.5234C219.004 47.5613 219.406 47.6768 219.751 47.87C220.099 48.0632 220.372 48.317 220.569 48.6314C220.766 48.9458 220.864 49.3075 220.864 49.7166C220.864 50.1977 220.737 50.6162 220.484 50.9723C220.234 51.3246 219.868 51.5992 219.387 51.7962C218.91 51.9893 218.33 52.0859 217.648 52.0859H213.421ZM215.347 50.4666H217.648C218.027 50.4666 218.324 50.3776 218.54 50.1996C218.756 50.0178 218.864 49.7715 218.864 49.4609C218.864 49.1011 218.756 48.8189 218.54 48.6143C218.324 48.406 218.027 48.3018 217.648 48.3018H215.347V50.4666ZM215.347 46.9723H217.126C217.406 46.9723 217.646 46.9325 217.847 46.853C218.048 46.7696 218.201 46.6541 218.307 46.5064C218.414 46.3549 218.467 46.175 218.467 45.9666C218.467 45.6674 218.343 45.4325 218.097 45.2621C217.855 45.0916 217.518 45.0064 217.086 45.0064H215.347V46.9723ZM225.073 52.2621C224.52 52.2621 224.022 52.1636 223.579 51.9666C223.139 51.7659 222.791 51.4704 222.533 51.0803C222.28 50.6901 222.153 50.209 222.153 49.6371C222.153 49.1446 222.244 48.7375 222.425 48.4155C222.607 48.0935 222.855 47.8359 223.17 47.6428C223.484 47.4496 223.838 47.3037 224.232 47.2053C224.63 47.103 225.041 47.0291 225.465 46.9837C225.976 46.9306 226.391 46.8833 226.709 46.8416C227.028 46.7962 227.259 46.728 227.403 46.6371C227.55 46.5424 227.624 46.3965 227.624 46.1996V46.1655C227.624 45.7375 227.497 45.406 227.244 45.1712C226.99 44.9363 226.624 44.8189 226.147 44.8189C225.643 44.8189 225.244 44.9287 224.948 45.1484C224.656 45.3681 224.459 45.6276 224.357 45.9268L222.437 45.6541C222.588 45.1238 222.838 44.6806 223.187 44.3246C223.535 43.9647 223.961 43.6958 224.465 43.5178C224.969 43.3359 225.526 43.245 226.136 43.245C226.556 43.245 226.975 43.2943 227.391 43.3928C227.808 43.4912 228.189 43.6541 228.533 43.8814C228.878 44.1049 229.155 44.4098 229.363 44.7962C229.575 45.1825 229.681 45.6655 229.681 46.245V52.0859H227.704V50.8871H227.636C227.511 51.1295 227.334 51.3568 227.107 51.5689C226.884 51.7772 226.601 51.9458 226.261 52.0746C225.923 52.1996 225.528 52.2621 225.073 52.2621ZM225.607 50.7507C226.02 50.7507 226.378 50.6693 226.681 50.5064C226.984 50.3397 227.217 50.12 227.38 49.8473C227.547 49.5746 227.63 49.2772 227.63 48.9553V47.9268C227.565 47.9799 227.456 48.0291 227.3 48.0746C227.149 48.12 226.978 48.1598 226.789 48.1939C226.6 48.228 226.412 48.2583 226.226 48.2848C226.041 48.3113 225.88 48.334 225.744 48.353C225.437 48.3946 225.162 48.4628 224.92 48.5575C224.677 48.6522 224.486 48.7848 224.346 48.9553C224.206 49.1219 224.136 49.3378 224.136 49.603C224.136 49.9818 224.274 50.2678 224.55 50.4609C224.827 50.6541 225.179 50.7507 225.607 50.7507ZM231.749 55.3587V43.3587H233.772V44.8018H233.891C233.997 44.5897 234.147 44.3643 234.34 44.1257C234.533 43.8833 234.795 43.6768 235.124 43.5064C235.454 43.3321 235.874 43.245 236.386 43.245C237.06 43.245 237.668 43.4174 238.209 43.7621C238.755 44.103 239.187 44.6087 239.505 45.2791C239.827 45.9458 239.988 46.764 239.988 47.7337C239.988 48.692 239.831 49.5064 239.516 50.1768C239.202 50.8473 238.774 51.3587 238.232 51.7109C237.69 52.0632 237.077 52.2393 236.391 52.2393C235.891 52.2393 235.476 52.156 235.147 51.9893C234.817 51.8227 234.552 51.6219 234.351 51.3871C234.155 51.1484 234.001 50.9231 233.891 50.7109H233.806V55.3587H231.749ZM233.766 47.7223C233.766 48.2867 233.846 48.781 234.005 49.2053C234.168 49.6295 234.401 49.9609 234.704 50.1996C235.011 50.4344 235.382 50.5518 235.817 50.5518C236.272 50.5518 236.653 50.4306 236.959 50.1882C237.266 49.942 237.497 49.6068 237.653 49.1825C237.812 48.7545 237.891 48.2678 237.891 47.7223C237.891 47.1806 237.814 46.6996 237.658 46.2791C237.503 45.8587 237.272 45.5291 236.965 45.2905C236.658 45.0518 236.276 44.9325 235.817 44.9325C235.378 44.9325 235.005 45.0481 234.698 45.2791C234.391 45.5102 234.158 45.834 233.999 46.2507C233.844 46.6674 233.766 47.1579 233.766 47.7223ZM245.718 52.0859V43.3587H249.383C250.417 43.3587 251.233 43.5651 251.832 43.978C252.434 44.3909 252.735 44.9666 252.735 45.7053C252.735 46.1939 252.565 46.5935 252.224 46.9041C251.887 47.2109 251.426 47.4174 250.843 47.5234C251.301 47.5613 251.703 47.6768 252.047 47.87C252.396 48.0632 252.669 48.317 252.866 48.6314C253.063 48.9458 253.161 49.3075 253.161 49.7166C253.161 50.1977 253.034 50.6162 252.78 50.9723C252.53 51.3246 252.165 51.5992 251.684 51.7962C251.207 51.9893 250.627 52.0859 249.945 52.0859H245.718ZM247.644 50.4666H249.945C250.324 50.4666 250.621 50.3776 250.837 50.1996C251.053 50.0178 251.161 49.7715 251.161 49.4609C251.161 49.1011 251.053 48.8189 250.837 48.6143C250.621 48.406 250.324 48.3018 249.945 48.3018H247.644V50.4666ZM247.644 46.9723H249.422C249.703 46.9723 249.943 46.9325 250.144 46.853C250.345 46.7696 250.498 46.6541 250.604 46.5064C250.71 46.3549 250.763 46.175 250.763 45.9666C250.763 45.6674 250.64 45.4325 250.394 45.2621C250.152 45.0916 249.815 45.0064 249.383 45.0064H247.644V46.9723ZM258.827 52.0859V43.3587H266.197V52.0859H264.214V45.0462H260.793V52.0859H258.827ZM269.278 55.3587C268.997 55.3587 268.738 55.3359 268.499 55.2905C268.264 55.2488 268.077 55.1996 267.937 55.1428L268.414 53.5405C268.713 53.6276 268.98 53.6693 269.215 53.6655C269.45 53.6617 269.656 53.5878 269.834 53.4439C270.016 53.3037 270.17 53.0689 270.295 52.7393L270.471 52.2678L267.306 43.3587H269.488L271.499 49.9496H271.59L273.607 43.3587H275.795L272.3 53.1428C272.137 53.6049 271.922 54.0007 271.653 54.3303C271.384 54.6636 271.054 54.9174 270.664 55.0916C270.278 55.2696 269.815 55.3587 269.278 55.3587ZM276.741 45.0462V43.3587H284.377V45.0462H281.553V52.0859H279.565V45.0462H276.741ZM287.998 49.3018L291.492 43.3587H293.606V52.0859H291.617V46.1371L288.134 52.0859H286.015V43.3587H287.998V49.3018Z" fill="#222222"/>
<rect width="39.6667" height="3" transform="matrix(-1 0 0 1 343 44.5859)" fill="#E8E8E8"/>
<path d="M300.9 45.5663C300.5 45.7973 300.5 46.3746 300.9 46.6056L311.1 52.4945C311.5 52.7255 312 52.4368 312 51.9749V40.197C312 39.7351 311.5 39.4464 311.1 39.6773L300.9 45.5663Z" fill="#E8E8E8"/>
<rect width="191" height="3" transform="translate(0 80.5859)" fill="#E8E8E8"/>
<path d="M193.1 81.5663C193.5 81.7973 193.5 82.3746 193.1 82.6056L182.9 88.4945C182.5 88.7255 182 88.4368 182 87.9749V76.197C182 75.7351 182.5 75.4464 182.9 75.6773L193.1 81.5663Z" fill="#E8E8E8"/>
<path d="M209.642 76.4496V88.0859H207.551V78.1996H202.46V88.0859H200.369V76.4496H209.642ZM215.879 88.2564C215.027 88.2564 214.288 88.0689 213.663 87.6939C213.038 87.3189 212.554 86.7943 212.209 86.12C211.868 85.4458 211.697 84.6579 211.697 83.7564C211.697 82.8549 211.868 82.0651 212.209 81.3871C212.554 80.709 213.038 80.1825 213.663 79.8075C214.288 79.4325 215.027 79.245 215.879 79.245C216.732 79.245 217.47 79.4325 218.095 79.8075C218.72 80.1825 219.203 80.709 219.544 81.3871C219.889 82.0651 220.061 82.8549 220.061 83.7564C220.061 84.6579 219.889 85.4458 219.544 86.12C219.203 86.7943 218.72 87.3189 218.095 87.6939C217.47 88.0689 216.732 88.2564 215.879 88.2564ZM215.891 86.6087C216.353 86.6087 216.739 86.4818 217.05 86.228C217.36 85.9704 217.591 85.6257 217.743 85.1939C217.898 84.7621 217.976 84.281 217.976 83.7507C217.976 83.2166 217.898 82.7337 217.743 82.3018C217.591 81.8662 217.36 81.5196 217.05 81.2621C216.739 81.0045 216.353 80.8757 215.891 80.8757C215.417 80.8757 215.023 81.0045 214.709 81.2621C214.398 81.5196 214.165 81.8662 214.01 82.3018C213.858 82.7337 213.783 83.2166 213.783 83.7507C213.783 84.281 213.858 84.7621 214.01 85.1939C214.165 85.6257 214.398 85.9704 214.709 86.228C215.023 86.4818 215.417 86.6087 215.891 86.6087ZM225.614 88.2564C224.742 88.2564 223.994 88.0651 223.369 87.6825C222.748 87.3 222.269 86.7715 221.932 86.0973C221.598 85.4193 221.432 84.639 221.432 83.7564C221.432 82.87 221.602 82.0878 221.943 81.4098C222.284 80.728 222.765 80.1977 223.386 79.8189C224.011 79.4363 224.75 79.245 225.602 79.245C226.311 79.245 226.938 79.3757 227.483 79.6371C228.032 79.8946 228.47 80.2602 228.795 80.7337C229.121 81.2034 229.307 81.7526 229.352 82.3814H227.386C227.307 81.9609 227.117 81.6106 226.818 81.3303C226.523 81.0462 226.127 80.9041 225.631 80.9041C225.21 80.9041 224.841 81.0178 224.523 81.245C224.205 81.4685 223.956 81.7905 223.778 82.2109C223.604 82.6314 223.517 83.1352 223.517 83.7223C223.517 84.317 223.604 84.8284 223.778 85.2564C223.953 85.6806 224.197 86.0083 224.511 86.2393C224.83 86.4666 225.203 86.5803 225.631 86.5803C225.934 86.5803 226.205 86.5234 226.443 86.4098C226.686 86.2924 226.888 86.1238 227.051 85.9041C227.214 85.6844 227.326 85.4174 227.386 85.103H229.352C229.303 85.7204 229.121 86.2678 228.807 86.745C228.492 87.2185 228.064 87.5897 227.523 87.8587C226.981 88.1238 226.345 88.2564 225.614 88.2564ZM232.433 82.1996H235.007C236.121 82.1996 236.982 82.4704 237.592 83.0121C238.202 83.5537 238.509 84.264 238.513 85.1428C238.509 85.7147 238.369 86.2223 238.092 86.6655C237.82 87.1087 237.422 87.4571 236.899 87.7109C236.38 87.9609 235.75 88.0859 235.007 88.0859H231.041V79.3587H233.024V86.3984H235.007C235.454 86.3984 235.821 86.2848 236.109 86.0575C236.397 85.8265 236.541 85.531 236.541 85.1712C236.541 84.7924 236.397 84.4837 236.109 84.245C235.821 84.0064 235.454 83.8871 235.007 83.8871H232.433V82.1996ZM239.598 88.0859V79.3587H241.655V88.0859H239.598ZM243.173 88.0859L243.162 86.3928H243.463C243.69 86.3928 243.882 86.3416 244.037 86.2393C244.192 86.1371 244.321 85.9666 244.423 85.728C244.526 85.4856 244.605 85.1598 244.662 84.7507C244.719 84.3416 244.759 83.8321 244.781 83.2223L244.935 79.3587H251.298V88.0859H249.31V81.0462H246.804L246.668 83.8587C246.634 84.5859 246.552 85.2166 246.423 85.7507C246.298 86.281 246.12 86.7185 245.889 87.0632C245.662 87.4079 245.376 87.6655 245.031 87.8359C244.687 88.0026 244.279 88.0859 243.81 88.0859H243.173ZM253.369 88.0859V79.3587H255.426V82.8814H256.176L258.801 79.3587H261.278L258.045 83.6428L261.312 88.0859H258.824L256.432 84.7962H255.426V88.0859H253.369ZM264.99 88.2621C264.437 88.2621 263.939 88.1636 263.496 87.9666C263.056 87.7659 262.708 87.4704 262.45 87.0803C262.196 86.6901 262.07 86.209 262.07 85.6371C262.07 85.1446 262.161 84.7375 262.342 84.4155C262.524 84.0935 262.772 83.8359 263.087 83.6428C263.401 83.4496 263.755 83.3037 264.149 83.2053C264.547 83.103 264.958 83.0291 265.382 82.9837C265.893 82.9306 266.308 82.8833 266.626 82.8416C266.945 82.7962 267.176 82.728 267.32 82.6371C267.467 82.5424 267.541 82.3965 267.541 82.1996V82.1655C267.541 81.7375 267.414 81.406 267.161 81.1712C266.907 80.9363 266.541 80.8189 266.064 80.8189C265.56 80.8189 265.161 80.9287 264.865 81.1484C264.573 81.3681 264.376 81.6276 264.274 81.9268L262.354 81.6541C262.505 81.1238 262.755 80.6806 263.104 80.3246C263.452 79.9647 263.878 79.6958 264.382 79.5178C264.886 79.3359 265.443 79.245 266.053 79.245C266.473 79.245 266.892 79.2943 267.308 79.3928C267.725 79.4912 268.106 79.6541 268.45 79.8814C268.795 80.1049 269.071 80.4098 269.28 80.7962C269.492 81.1825 269.598 81.6655 269.598 82.245V88.0859H267.621V86.8871H267.553C267.428 87.1295 267.251 87.3568 267.024 87.5689C266.801 87.7772 266.518 87.9458 266.178 88.0746C265.84 88.1996 265.445 88.2621 264.99 88.2621ZM265.524 86.7507C265.937 86.7507 266.295 86.6693 266.598 86.5064C266.901 86.3397 267.134 86.12 267.297 85.8473C267.464 85.5746 267.547 85.2772 267.547 84.9553V83.9268C267.482 83.9799 267.373 84.0291 267.217 84.0746C267.066 84.12 266.895 84.1598 266.706 84.1939C266.517 84.228 266.329 84.2583 266.143 84.2848C265.958 84.3113 265.797 84.334 265.661 84.353C265.354 84.3946 265.079 84.4628 264.837 84.5575C264.594 84.6522 264.403 84.7848 264.263 84.9553C264.123 85.1219 264.053 85.3378 264.053 85.603C264.053 85.9818 264.191 86.2678 264.467 86.4609C264.744 86.6541 265.096 86.7507 265.524 86.7507ZM275.635 88.0859V79.3587H279.3C280.334 79.3587 281.15 79.5651 281.749 79.978C282.351 80.3909 282.652 80.9666 282.652 81.7053C282.652 82.1939 282.482 82.5935 282.141 82.9041C281.804 83.2109 281.343 83.4174 280.76 83.5234C281.218 83.5613 281.62 83.6768 281.964 83.87C282.313 84.0632 282.586 84.317 282.783 84.6314C282.98 84.9458 283.078 85.3075 283.078 85.7166C283.078 86.1977 282.951 86.6162 282.697 86.9723C282.447 87.3246 282.082 87.5992 281.601 87.7962C281.124 87.9893 280.544 88.0859 279.862 88.0859H275.635ZM277.561 86.4666H279.862C280.241 86.4666 280.538 86.3776 280.754 86.1996C280.97 86.0178 281.078 85.7715 281.078 85.4609C281.078 85.1011 280.97 84.8189 280.754 84.6143C280.538 84.406 280.241 84.3018 279.862 84.3018H277.561V86.4666ZM277.561 82.9723H279.339C279.62 82.9723 279.86 82.9325 280.061 82.853C280.262 82.7696 280.415 82.6541 280.521 82.5064C280.627 82.3549 280.68 82.175 280.68 81.9666C280.68 81.6674 280.557 81.4325 280.311 81.2621C280.069 81.0916 279.732 81.0064 279.3 81.0064H277.561V82.9723ZM298.795 80.3757H296.67C296.61 80.0272 296.498 79.7185 296.335 79.4496C296.172 79.1768 295.97 78.9458 295.727 78.7564C295.485 78.567 295.208 78.425 294.898 78.3303C294.591 78.2318 294.259 78.1825 293.903 78.1825C293.271 78.1825 292.71 78.3416 292.222 78.6598C291.733 78.9742 291.35 79.4363 291.074 80.0462C290.797 80.6522 290.659 81.3928 290.659 82.2678C290.659 83.1579 290.797 83.9079 291.074 84.5178C291.354 85.1238 291.737 85.5821 292.222 85.8928C292.71 86.1996 293.269 86.353 293.898 86.353C294.246 86.353 294.572 86.3075 294.875 86.2166C295.182 86.1219 295.456 85.9837 295.699 85.8018C295.945 85.62 296.152 85.3965 296.318 85.1314C296.489 84.8662 296.606 84.5632 296.67 84.2223L298.795 84.2337C298.716 84.7867 298.544 85.3056 298.278 85.7905C298.017 86.2753 297.674 86.7034 297.25 87.0746C296.826 87.442 296.33 87.7299 295.761 87.9382C295.193 88.1428 294.563 88.245 293.869 88.245C292.847 88.245 291.934 88.0083 291.131 87.5348C290.328 87.0613 289.695 86.3776 289.233 85.4837C288.771 84.5897 288.54 83.5178 288.54 82.2678C288.54 81.014 288.773 79.942 289.239 79.0518C289.705 78.1579 290.339 77.4742 291.142 77.0007C291.945 76.5272 292.854 76.2905 293.869 76.2905C294.517 76.2905 295.119 76.3814 295.676 76.5632C296.233 76.745 296.729 77.0121 297.165 77.3643C297.6 77.7128 297.958 78.1409 298.239 78.6484C298.523 79.1522 298.708 79.728 298.795 80.3757ZM299.97 90.8928V86.3643H300.749C301.01 86.156 301.254 85.8625 301.482 85.4837C301.709 85.1049 301.902 84.5859 302.061 83.9268C302.22 83.2678 302.33 82.4155 302.391 81.37L302.697 76.4496H310.135V86.3643H311.43V90.8814H309.408V88.0859H301.993V90.8928H299.97ZM303.203 86.3643H308.112V78.2166H304.595L304.413 81.37C304.364 82.1617 304.285 82.87 304.175 83.495C304.065 84.12 303.927 84.6712 303.76 85.1484C303.593 85.6219 303.408 86.0272 303.203 86.3643ZM321.04 81.5348V83.2678H316.102V81.5348H321.04ZM312.864 84.3303H314.983C315.051 85.05 315.28 85.5954 315.67 85.9666C316.064 86.3378 316.663 86.5234 317.466 86.5234C318.087 86.5234 318.591 86.3681 318.977 86.0575C319.364 85.7431 319.646 85.3075 319.824 84.7507C320.002 84.1939 320.091 83.5462 320.091 82.8075V81.7507C320.091 80.9742 319.991 80.3094 319.79 79.7564C319.589 79.2034 319.29 78.781 318.892 78.4893C318.494 78.1939 318.002 78.0462 317.415 78.0462C316.858 78.0462 316.409 78.1352 316.068 78.3132C315.727 78.4912 315.472 78.7488 315.301 79.0859C315.131 79.4193 315.021 79.8189 314.972 80.2848H312.852C312.928 79.5272 313.144 78.8473 313.5 78.245C313.856 77.6428 314.358 77.1674 315.006 76.8189C315.653 76.4666 316.456 76.2905 317.415 76.2905C318.388 76.2905 319.231 76.514 319.943 76.9609C320.659 77.4079 321.212 78.0405 321.602 78.8587C321.996 79.6768 322.193 80.639 322.193 81.745V82.8246C322.193 83.9306 322 84.8909 321.614 85.7053C321.231 86.5159 320.688 87.1428 319.983 87.5859C319.278 88.0253 318.439 88.245 317.466 88.245C316.523 88.245 315.72 88.0784 315.057 87.745C314.394 87.4079 313.879 86.9458 313.511 86.3587C313.144 85.7678 312.928 85.0916 312.864 84.3303ZM331.166 88.0859L327.337 83.0007H326.303V88.0859H324.195V76.4496H326.303V81.2337H326.831L330.967 76.4496H333.564L328.967 81.7564L333.763 88.0859H331.166ZM338.327 88.2564C337.452 88.2564 336.696 88.0746 336.06 87.7109C335.427 87.3435 334.94 86.8246 334.599 86.1541C334.259 85.4799 334.088 84.6863 334.088 83.7734C334.088 82.8757 334.259 82.0878 334.599 81.4098C334.944 80.728 335.425 80.1977 336.043 79.8189C336.66 79.4363 337.385 79.245 338.219 79.245C338.757 79.245 339.264 79.3321 339.741 79.5064C340.223 79.6768 340.647 79.942 341.014 80.3018C341.385 80.6617 341.677 81.12 341.889 81.6768C342.101 82.2299 342.207 82.889 342.207 83.6541V84.2848H335.054V82.8984H340.236C340.232 82.5045 340.147 82.1541 339.98 81.8473C339.813 81.5367 339.58 81.2924 339.281 81.1143C338.986 80.9363 338.641 80.8473 338.247 80.8473C337.827 80.8473 337.457 80.9496 337.139 81.1541C336.821 81.3549 336.573 81.62 336.395 81.9496C336.221 82.2753 336.132 82.6333 336.128 83.0234V84.2337C336.128 84.7412 336.221 85.1768 336.406 85.5405C336.592 85.9003 336.851 86.1768 337.185 86.37C337.518 86.5594 337.908 86.6541 338.355 86.6541C338.654 86.6541 338.925 86.6125 339.168 86.5291C339.41 86.442 339.62 86.3151 339.798 86.1484C339.976 85.9818 340.111 85.7753 340.202 85.5291L342.122 85.745C342.001 86.2526 341.77 86.6958 341.429 87.0746C341.092 87.4496 340.66 87.7412 340.134 87.9496C339.607 88.1541 339.005 88.2564 338.327 88.2564Z" fill="#222222"/>
<rect width="3" height="36" transform="translate(0 46)" fill="#E8E8E8"/>
</svg>
