<svg width="17" height="16" viewBox="0 0 17 16" fill="none" xmlns="http://www.w3.org/2000/svg">
<g clip-path="url(#clip0_4993_97145)">
<path d="M16.5 4.26628C16.5 4.63294 16.2 4.93294 15.8333 4.93294H1.16667C0.8 4.93294 0.5 4.63294 0.5 4.26628C0.5 3.89961 0.8 3.59961 1.16667 3.59961H15.8333C16.2 3.59961 16.5 3.89961 16.5 4.26628Z" fill="black"/>
<path d="M13.167 7.33398H3.83366C3.46699 7.33398 3.16699 7.63398 3.16699 8.00065C3.16699 8.36732 3.46699 8.66732 3.83366 8.66732H13.167C13.5337 8.66732 13.8337 8.36732 13.8337 8.00065C13.8337 7.63398 13.5337 7.33398 13.167 7.33398Z" fill="black"/>
<path d="M10.4997 11.0664H6.49967C6.13301 11.0664 5.83301 11.3664 5.83301 11.7331C5.83301 12.0997 6.13301 12.3997 6.49967 12.3997H10.4997C10.8663 12.3997 11.1663 12.0997 11.1663 11.7331C11.1663 11.3664 10.8663 11.0664 10.4997 11.0664Z" fill="black"/>
</g>
<defs>
<clipPath id="clip0_4993_97145">
<rect width="16" height="16" fill="white" transform="translate(0.5)"/>
</clipPath>
</defs>
</svg>
