<svg width="40" height="40" viewBox="0 0 40 40" fill="none" xmlns="http://www.w3.org/2000/svg">
<path d="M12.0876 14.4768C12.5115 14.0528 13.0148 13.7166 13.5686 13.4872C14.1225 13.2577 14.7161 13.1396 15.3156 13.1396C15.9151 13.1396 16.5087 13.2577 17.0626 13.4872C17.6165 13.7166 18.1197 14.0528 18.5436 14.4768L20.0006 15.9338L21.4576 14.4768C22.3139 13.6206 23.4751 13.1397 24.686 13.1398C25.8968 13.1399 27.058 13.621 27.9141 14.4773C28.7702 15.3335 29.2511 16.4948 29.251 17.7056C29.251 18.9164 28.7699 20.0776 27.9136 20.9338L26.4566 22.3898L26.4696 22.4028L20.0136 28.8598L20.0006 28.8468L19.9876 28.8598L13.5316 22.4028L13.5446 22.3898L12.0876 20.9338C11.6635 20.5098 11.3272 20.0065 11.0976 19.4526C10.8681 18.8986 10.75 18.3049 10.75 17.7053C10.75 17.1056 10.8681 16.5119 11.0976 15.9579C11.3272 15.404 11.6635 14.9007 12.0876 14.4768Z" stroke="#222222" stroke-width="1.5" stroke-linejoin="round"/>
</svg>
