<svg width="140" height="56" viewBox="0 0 140 56" fill="none" xmlns="http://www.w3.org/2000/svg">
<path d="M12.8105 22V15.2051H4.96289L1.32617 11.5684V7.48047L4.96289 3.85742H7.01367V10.2969H15.3535L18.8672 13.9336V18.377L15.2441 22H12.8105ZM12.8105 8.94336V7.125H7.9707V3.85742H15.2305L18.375 7.01562V8.94336H12.8105ZM4.375 22L1.32617 18.377V16.5586H7.36914V18.7188H11.8535V22H4.375ZM32.6074 22L21.6152 3.85742H28L39.0332 22H32.6074ZM39.0332 20.2773L33.7695 11.6094V3.85742H39.0332V20.2773ZM21.6152 22V5.58008L26.8789 14.207V22H21.6152ZM41.959 22V3.85742H48.002V11.0488H53.7852V14.5488H48.002V22H41.959ZM52.7188 9.10742V7.37109H48.959V3.85742H58.4062V9.10742H52.7188ZM48.959 22V18.377H52.3633V16.5586H58.4062V22H48.959ZM74.0195 22L73.2539 20.0176H67.3203L68.5781 16.4219H71.8594L67.0059 3.85742H72.8984L80.1309 22H74.0195ZM59.8691 22L66.3496 4.67773L69.0293 11.8828L65.707 22H59.8691ZM88.7168 19.4297V10.6113L92.9551 3.85742H99.2441L88.7168 19.4297ZM81.7441 22V3.85742H87.7871V22H81.7441ZM92.9961 22L90.9453 17.7754L94.5273 12.4023L99.5312 22H92.9961ZM101.35 22V3.85742H107.393V11.0488H113.176V14.5488H107.393V22H101.35ZM112.109 9.10742V7.37109H108.35V3.85742H117.797V9.10742H112.109ZM108.35 22V18.377H111.754V16.5586H117.797V22H108.35ZM127.6 16.5586V13.0449H132.139V7.48047H127.6V3.85742H134.504L138.141 7.48047V12.9219L135.324 15.7383L138.756 22H132.303L129.732 16.5586H127.6ZM120.6 22V3.85742H126.643V22H120.6ZM0.710938 35.8086V31.8574H16.4609V35.8086H0.710938ZM5.44141 50V36.752H11.7305V50H5.44141ZM20.4515 50V31.8574H26.4945V39.0488H32.2777V42.5488H26.4945V50H20.4515ZM31.2113 37.1074V35.3711H27.4515V31.8574H36.8988V37.1074H31.2113ZM27.4515 50V46.377H30.8558V44.5586H36.8988V50H27.4515ZM54.192 50L53.4264 48.0176H47.4928L48.7506 44.4219H52.0319L47.1784 31.8574H53.0709L60.3034 50H54.192ZM40.0416 50L46.5221 32.6777L49.2018 39.8828L45.8795 50H40.0416ZM74.3701 50L63.6103 31.8574H70.0361L74.9033 39.9238L78.7314 33.3613V42.4941L74.3701 50ZM79.6201 50V31.8574H85.663V50H79.6201ZM63.5966 50V33.5391L69.2431 43.0137V50H63.5966Z" fill="#222222"/>
<path d="M12.8105 22H12.3105V22.5H12.8105V22ZM12.8105 15.2051H13.3105V14.7051H12.8105V15.2051ZM4.96289 15.2051L4.60934 15.5586L4.75578 15.7051H4.96289V15.2051ZM1.32617 11.5684H0.826172V11.7755L0.972618 11.9219L1.32617 11.5684ZM1.32617 7.48047L0.973285 7.12625L0.826172 7.27281V7.48047H1.32617ZM4.96289 3.85742V3.35742H4.75634L4.61 3.5032L4.96289 3.85742ZM7.01367 3.85742H7.51367V3.35742H7.01367V3.85742ZM7.01367 10.2969H6.51367V10.7969H7.01367V10.2969ZM15.3535 10.2969L15.7131 9.94946L15.5657 9.79688H15.3535V10.2969ZM18.8672 13.9336H19.3672V13.7315L19.2268 13.5862L18.8672 13.9336ZM18.8672 18.377L19.2207 18.7305L19.3672 18.5841V18.377H18.8672ZM15.2441 22V22.5H15.4512L15.5977 22.3536L15.2441 22ZM12.8105 8.94336H12.3105V9.44336H12.8105V8.94336ZM12.8105 7.125H13.3105V6.625H12.8105V7.125ZM7.9707 7.125H7.4707V7.625H7.9707V7.125ZM7.9707 3.85742V3.35742H7.4707V3.85742H7.9707ZM15.2305 3.85742L15.5848 3.50464L15.4382 3.35742H15.2305V3.85742ZM18.375 7.01562H18.875V6.80915L18.7293 6.66284L18.375 7.01562ZM18.375 8.94336V9.44336H18.875V8.94336H18.375ZM4.375 22L3.99243 22.3219L4.14228 22.5H4.375V22ZM1.32617 18.377H0.826172V18.5593L0.943604 18.6989L1.32617 18.377ZM1.32617 16.5586V16.0586H0.826172V16.5586H1.32617ZM7.36914 16.5586H7.86914V16.0586H7.36914V16.5586ZM7.36914 18.7188H6.86914V19.2188H7.36914V18.7188ZM11.8535 18.7188H12.3535V18.2188H11.8535V18.7188ZM11.8535 22V22.5H12.3535V22H11.8535ZM12.8105 22H13.3105V15.2051H12.8105H12.3105V22H12.8105ZM12.8105 15.2051V14.7051H4.96289V15.2051V15.7051H12.8105V15.2051ZM4.96289 15.2051L5.31644 14.8515L1.67973 11.2148L1.32617 11.5684L0.972618 11.9219L4.60934 15.5586L4.96289 15.2051ZM1.32617 11.5684H1.82617V7.48047H1.32617H0.826172V11.5684H1.32617ZM1.32617 7.48047L1.67906 7.83469L5.31578 4.21164L4.96289 3.85742L4.61 3.5032L0.973285 7.12625L1.32617 7.48047ZM4.96289 3.85742V4.35742H7.01367V3.85742V3.35742H4.96289V3.85742ZM7.01367 3.85742H6.51367V10.2969H7.01367H7.51367V3.85742H7.01367ZM7.01367 10.2969V10.7969H15.3535V10.2969V9.79688H7.01367V10.2969ZM15.3535 10.2969L14.9939 10.6443L18.5076 14.281L18.8672 13.9336L19.2268 13.5862L15.7131 9.94946L15.3535 10.2969ZM18.8672 13.9336H18.3672V18.377H18.8672H19.3672V13.9336H18.8672ZM18.8672 18.377L18.5136 18.0234L14.8906 21.6464L15.2441 22L15.5977 22.3536L19.2207 18.7305L18.8672 18.377ZM15.2441 22V21.5H12.8105V22V22.5H15.2441V22ZM12.8105 8.94336H13.3105V7.125H12.8105H12.3105V8.94336H12.8105ZM12.8105 7.125V6.625H7.9707V7.125V7.625H12.8105V7.125ZM7.9707 7.125H8.4707V3.85742H7.9707H7.4707V7.125H7.9707ZM7.9707 3.85742V4.35742H15.2305V3.85742V3.35742H7.9707V3.85742ZM15.2305 3.85742L14.8761 4.21021L18.0207 7.36841L18.375 7.01562L18.7293 6.66284L15.5848 3.50464L15.2305 3.85742ZM18.375 7.01562H17.875V8.94336H18.375H18.875V7.01562H18.375ZM18.375 8.94336V8.44336H12.8105V8.94336V9.44336H18.375V8.94336ZM4.375 22L4.75757 21.6781L1.70874 18.055L1.32617 18.377L0.943604 18.6989L3.99243 22.3219L4.375 22ZM1.32617 18.377H1.82617V16.5586H1.32617H0.826172V18.377H1.32617ZM1.32617 16.5586V17.0586H7.36914V16.5586V16.0586H1.32617V16.5586ZM7.36914 16.5586H6.86914V18.7188H7.36914H7.86914V16.5586H7.36914ZM7.36914 18.7188V19.2188H11.8535V18.7188V18.2188H7.36914V18.7188ZM11.8535 18.7188H11.3535V22H11.8535H12.3535V18.7188H11.8535ZM11.8535 22V21.5H4.375V22V22.5H11.8535V22ZM32.6074 22L32.1798 22.2591L32.3257 22.5H32.6074V22ZM21.6152 3.85742V3.35742H20.7277L21.1876 4.11652L21.6152 3.85742ZM28 3.85742L28.4272 3.59762L28.2811 3.35742H28V3.85742ZM39.0332 22V22.5H39.9225L39.4604 21.7402L39.0332 22ZM39.0332 20.2773L38.6058 20.5369L39.5332 22.064V20.2773H39.0332ZM33.7695 11.6094H33.2695V11.7493L33.3422 11.8689L33.7695 11.6094ZM33.7695 3.85742V3.35742H33.2695V3.85742H33.7695ZM39.0332 3.85742H39.5332V3.35742H39.0332V3.85742ZM21.6152 22H21.1152V22.5H21.6152V22ZM21.6152 5.58008L22.0421 5.31965L21.1152 3.80062V5.58008H21.6152ZM26.8789 14.207H27.3789V14.0665L27.3057 13.9466L26.8789 14.207ZM26.8789 22V22.5H27.3789V22H26.8789ZM32.6074 22L33.0351 21.7409L22.0429 3.59833L21.6152 3.85742L21.1876 4.11652L32.1798 22.2591L32.6074 22ZM21.6152 3.85742V4.35742H28V3.85742V3.35742H21.6152V3.85742ZM28 3.85742L27.5728 4.11722L38.606 22.2598L39.0332 22L39.4604 21.7402L28.4272 3.59762L28 3.85742ZM39.0332 22V21.5H32.6074V22V22.5H39.0332V22ZM39.0332 20.2773L39.4606 20.0178L34.1969 11.3499L33.7695 11.6094L33.3422 11.8689L38.6058 20.5369L39.0332 20.2773ZM33.7695 11.6094H34.2695V3.85742H33.7695H33.2695V11.6094H33.7695ZM33.7695 3.85742V4.35742H39.0332V3.85742V3.35742H33.7695V3.85742ZM39.0332 3.85742H38.5332V20.2773H39.0332H39.5332V3.85742H39.0332ZM21.6152 22H22.1152V5.58008H21.6152H21.1152V22H21.6152ZM21.6152 5.58008L21.1884 5.8405L26.4521 14.4675L26.8789 14.207L27.3057 13.9466L22.0421 5.31965L21.6152 5.58008ZM26.8789 14.207H26.3789V22H26.8789H27.3789V14.207H26.8789ZM26.8789 22V21.5H21.6152V22V22.5H26.8789V22ZM41.959 22H41.459V22.5H41.959V22ZM41.959 3.85742V3.35742H41.459V3.85742H41.959ZM48.002 3.85742H48.502V3.35742H48.002V3.85742ZM48.002 11.0488H47.502V11.5488H48.002V11.0488ZM53.7852 11.0488H54.2852V10.5488H53.7852V11.0488ZM53.7852 14.5488V15.0488H54.2852V14.5488H53.7852ZM48.002 14.5488V14.0488H47.502V14.5488H48.002ZM48.002 22V22.5H48.502V22H48.002ZM52.7188 9.10742H52.2188V9.60742H52.7188V9.10742ZM52.7188 7.37109H53.2188V6.87109H52.7188V7.37109ZM48.959 7.37109H48.459V7.87109H48.959V7.37109ZM48.959 3.85742V3.35742H48.459V3.85742H48.959ZM58.4062 3.85742H58.9062V3.35742H58.4062V3.85742ZM58.4062 9.10742V9.60742H58.9062V9.10742H58.4062ZM48.959 22H48.459V22.5H48.959V22ZM48.959 18.377V17.877H48.459V18.377H48.959ZM52.3633 18.377V18.877H52.8633V18.377H52.3633ZM52.3633 16.5586V16.0586H51.8633V16.5586H52.3633ZM58.4062 16.5586H58.9062V16.0586H58.4062V16.5586ZM58.4062 22V22.5H58.9062V22H58.4062ZM41.959 22H42.459V3.85742H41.959H41.459V22H41.959ZM41.959 3.85742V4.35742H48.002V3.85742V3.35742H41.959V3.85742ZM48.002 3.85742H47.502V11.0488H48.002H48.502V3.85742H48.002ZM48.002 11.0488V11.5488H53.7852V11.0488V10.5488H48.002V11.0488ZM53.7852 11.0488H53.2852V14.5488H53.7852H54.2852V11.0488H53.7852ZM53.7852 14.5488V14.0488H48.002V14.5488V15.0488H53.7852V14.5488ZM48.002 14.5488H47.502V22H48.002H48.502V14.5488H48.002ZM48.002 22V21.5H41.959V22V22.5H48.002V22ZM52.7188 9.10742H53.2188V7.37109H52.7188H52.2188V9.10742H52.7188ZM52.7188 7.37109V6.87109H48.959V7.37109V7.87109H52.7188V7.37109ZM48.959 7.37109H49.459V3.85742H48.959H48.459V7.37109H48.959ZM48.959 3.85742V4.35742H58.4062V3.85742V3.35742H48.959V3.85742ZM58.4062 3.85742H57.9062V9.10742H58.4062H58.9062V3.85742H58.4062ZM58.4062 9.10742V8.60742H52.7188V9.10742V9.60742H58.4062V9.10742ZM48.959 22H49.459V18.377H48.959H48.459V22H48.959ZM48.959 18.377V18.877H52.3633V18.377V17.877H48.959V18.377ZM52.3633 18.377H52.8633V16.5586H52.3633H51.8633V18.377H52.3633ZM52.3633 16.5586V17.0586H58.4062V16.5586V16.0586H52.3633V16.5586ZM58.4062 16.5586H57.9062V22H58.4062H58.9062V16.5586H58.4062ZM58.4062 22V21.5H48.959V22V22.5H58.4062V22ZM74.0195 22L73.5531 22.1801L73.6766 22.5H74.0195V22ZM73.2539 20.0176L73.7203 19.8374L73.5968 19.5176H73.2539V20.0176ZM67.3203 20.0176L66.8484 19.8525L66.6157 20.5176H67.3203V20.0176ZM68.5781 16.4219V15.9219H68.2233L68.1062 16.2568L68.5781 16.4219ZM71.8594 16.4219V16.9219H72.5885L72.3258 16.2417L71.8594 16.4219ZM67.0059 3.85742V3.35742H66.2767L66.5395 4.03759L67.0059 3.85742ZM72.8984 3.85742L73.3629 3.67227L73.2374 3.35742H72.8984V3.85742ZM80.1309 22V22.5H80.8684L80.5953 21.8148L80.1309 22ZM59.8691 22L59.4008 21.8248L59.1482 22.5H59.8691V22ZM66.3496 4.67773L66.8182 4.50344L66.351 3.24708L65.8813 4.50254L66.3496 4.67773ZM69.0293 11.8828L69.5043 12.0388L69.5589 11.8725L69.4979 11.7085L69.0293 11.8828ZM65.707 22V22.5H66.0691L66.1821 22.156L65.707 22ZM74.0195 22L74.486 21.8199L73.7203 19.8374L73.2539 20.0176L72.7875 20.1977L73.5531 22.1801L74.0195 22ZM73.2539 20.0176V19.5176H67.3203V20.0176V20.5176H73.2539V20.0176ZM67.3203 20.0176L67.7923 20.1827L69.0501 16.587L68.5781 16.4219L68.1062 16.2568L66.8484 19.8525L67.3203 20.0176ZM68.5781 16.4219V16.9219H71.8594V16.4219V15.9219H68.5781V16.4219ZM71.8594 16.4219L72.3258 16.2417L67.4723 3.67725L67.0059 3.85742L66.5395 4.03759L71.393 16.602L71.8594 16.4219ZM67.0059 3.85742V4.35742H72.8984V3.85742V3.35742H67.0059V3.85742ZM72.8984 3.85742L72.434 4.04257L79.6664 22.1852L80.1309 22L80.5953 21.8148L73.3629 3.67227L72.8984 3.85742ZM80.1309 22V21.5H74.0195V22V22.5H80.1309V22ZM59.8691 22L60.3374 22.1752L66.8179 4.85293L66.3496 4.67773L65.8813 4.50254L59.4008 21.8248L59.8691 22ZM66.3496 4.67773L65.881 4.85203L68.5607 12.0571L69.0293 11.8828L69.4979 11.7085L66.8182 4.50344L66.3496 4.67773ZM69.0293 11.8828L68.5543 11.7268L65.232 21.844L65.707 22L66.1821 22.156L69.5043 12.0388L69.0293 11.8828ZM65.707 22V21.5H59.8691V22V22.5H65.707V22ZM88.7168 19.4297H88.2168V21.0621L89.131 19.7097L88.7168 19.4297ZM88.7168 10.6113L88.2933 10.3456L88.2168 10.4674V10.6113H88.7168ZM92.9551 3.85742V3.35742H92.6786L92.5316 3.59165L92.9551 3.85742ZM99.2441 3.85742L99.6584 4.13745L100.186 3.35742H99.2441V3.85742ZM81.7441 22H81.2441V22.5H81.7441V22ZM81.7441 3.85742V3.35742H81.2441V3.85742H81.7441ZM87.7871 3.85742H88.2871V3.35742H87.7871V3.85742ZM87.7871 22V22.5H88.2871V22H87.7871ZM92.9961 22L92.5463 22.2184L92.683 22.5H92.9961V22ZM90.9453 17.7754L90.5293 17.498L90.3705 17.7362L90.4955 17.9937L90.9453 17.7754ZM94.5273 12.4023L94.9707 12.1712L94.58 11.4219L94.1113 12.125L94.5273 12.4023ZM99.5312 22V22.5H100.356L99.9746 21.7688L99.5312 22ZM88.7168 19.4297H89.2168V10.6113H88.7168H88.2168V19.4297H88.7168ZM88.7168 10.6113L89.1403 10.8771L93.3786 4.12319L92.9551 3.85742L92.5316 3.59165L88.2933 10.3456L88.7168 10.6113ZM92.9551 3.85742V4.35742H99.2441V3.85742V3.35742H92.9551V3.85742ZM99.2441 3.85742L98.8299 3.57739L88.3026 19.1497L88.7168 19.4297L89.131 19.7097L99.6584 4.13745L99.2441 3.85742ZM81.7441 22H82.2441V3.85742H81.7441H81.2441V22H81.7441ZM81.7441 3.85742V4.35742H87.7871V3.85742V3.35742H81.7441V3.85742ZM87.7871 3.85742H87.2871V22H87.7871H88.2871V3.85742H87.7871ZM87.7871 22V21.5H81.7441V22V22.5H87.7871V22ZM92.9961 22L93.4459 21.7816L91.3951 17.557L90.9453 17.7754L90.4955 17.9937L92.5463 22.2184L92.9961 22ZM90.9453 17.7754L91.3613 18.0527L94.9434 12.6797L94.5273 12.4023L94.1113 12.125L90.5293 17.498L90.9453 17.7754ZM94.5273 12.4023L94.084 12.6335L99.0879 22.2312L99.5312 22L99.9746 21.7688L94.9707 12.1712L94.5273 12.4023ZM99.5312 22V21.5H92.9961V22V22.5H99.5312V22ZM101.35 22H100.85V22.5H101.35V22ZM101.35 3.85742V3.35742H100.85V3.85742H101.35ZM107.393 3.85742H107.893V3.35742H107.393V3.85742ZM107.393 11.0488H106.893V11.5488H107.393V11.0488ZM113.176 11.0488H113.676V10.5488H113.176V11.0488ZM113.176 14.5488V15.0488H113.676V14.5488H113.176ZM107.393 14.5488V14.0488H106.893V14.5488H107.393ZM107.393 22V22.5H107.893V22H107.393ZM112.109 9.10742H111.609V9.60742H112.109V9.10742ZM112.109 7.37109H112.609V6.87109H112.109V7.37109ZM108.35 7.37109H107.85V7.87109H108.35V7.37109ZM108.35 3.85742V3.35742H107.85V3.85742H108.35ZM117.797 3.85742H118.297V3.35742H117.797V3.85742ZM117.797 9.10742V9.60742H118.297V9.10742H117.797ZM108.35 22H107.85V22.5H108.35V22ZM108.35 18.377V17.877H107.85V18.377H108.35ZM111.754 18.377V18.877H112.254V18.377H111.754ZM111.754 16.5586V16.0586H111.254V16.5586H111.754ZM117.797 16.5586H118.297V16.0586H117.797V16.5586ZM117.797 22V22.5H118.297V22H117.797ZM101.35 22H101.85V3.85742H101.35H100.85V22H101.35ZM101.35 3.85742V4.35742H107.393V3.85742V3.35742H101.35V3.85742ZM107.393 3.85742H106.893V11.0488H107.393H107.893V3.85742H107.393ZM107.393 11.0488V11.5488H113.176V11.0488V10.5488H107.393V11.0488ZM113.176 11.0488H112.676V14.5488H113.176H113.676V11.0488H113.176ZM113.176 14.5488V14.0488H107.393V14.5488V15.0488H113.176V14.5488ZM107.393 14.5488H106.893V22H107.393H107.893V14.5488H107.393ZM107.393 22V21.5H101.35V22V22.5H107.393V22ZM112.109 9.10742H112.609V7.37109H112.109H111.609V9.10742H112.109ZM112.109 7.37109V6.87109H108.35V7.37109V7.87109H112.109V7.37109ZM108.35 7.37109H108.85V3.85742H108.35H107.85V7.37109H108.35ZM108.35 3.85742V4.35742H117.797V3.85742V3.35742H108.35V3.85742ZM117.797 3.85742H117.297V9.10742H117.797H118.297V3.85742H117.797ZM117.797 9.10742V8.60742H112.109V9.10742V9.60742H117.797V9.10742ZM108.35 22H108.85V18.377H108.35H107.85V22H108.35ZM108.35 18.377V18.877H111.754V18.377V17.877H108.35V18.377ZM111.754 18.377H112.254V16.5586H111.754H111.254V18.377H111.754ZM111.754 16.5586V17.0586H117.797V16.5586V16.0586H111.754V16.5586ZM117.797 16.5586H117.297V22H117.797H118.297V16.5586H117.797ZM117.797 22V21.5H108.35V22V22.5H117.797V22ZM127.6 16.5586H127.1V17.0586H127.6V16.5586ZM127.6 13.0449V12.5449H127.1V13.0449H127.6ZM132.139 13.0449V13.5449H132.639V13.0449H132.139ZM132.139 7.48047H132.639V6.98047H132.139V7.48047ZM127.6 7.48047H127.1V7.98047H127.6V7.48047ZM127.6 3.85742V3.35742H127.1V3.85742H127.6ZM134.504 3.85742L134.857 3.5032L134.71 3.35742H134.504V3.85742ZM138.141 7.48047H138.641V7.27281L138.494 7.12625L138.141 7.48047ZM138.141 12.9219L138.494 13.2754L138.641 13.129V12.9219H138.141ZM135.324 15.7383L134.971 15.3847L134.706 15.6498L134.886 15.9786L135.324 15.7383ZM138.756 22V22.5H139.6L139.194 21.7597L138.756 22ZM132.303 22L131.851 22.2136L131.986 22.5H132.303V22ZM129.732 16.5586L130.185 16.345L130.049 16.0586H129.732V16.5586ZM120.6 22H120.1V22.5H120.6V22ZM120.6 3.85742V3.35742H120.1V3.85742H120.6ZM126.643 3.85742H127.143V3.35742H126.643V3.85742ZM126.643 22V22.5H127.143V22H126.643ZM127.6 16.5586H128.1V13.0449H127.6H127.1V16.5586H127.6ZM127.6 13.0449V13.5449H132.139V13.0449V12.5449H127.6V13.0449ZM132.139 13.0449H132.639V7.48047H132.139H131.639V13.0449H132.139ZM132.139 7.48047V6.98047H127.6V7.48047V7.98047H132.139V7.48047ZM127.6 7.48047H128.1V3.85742H127.6H127.1V7.48047H127.6ZM127.6 3.85742V4.35742H134.504V3.85742V3.35742H127.6V3.85742ZM134.504 3.85742L134.151 4.21164L137.788 7.83469L138.141 7.48047L138.494 7.12625L134.857 3.5032L134.504 3.85742ZM138.141 7.48047H137.641V12.9219H138.141H138.641V7.48047H138.141ZM138.141 12.9219L137.787 12.5683L134.971 15.3847L135.324 15.7383L135.678 16.0918L138.494 13.2754L138.141 12.9219ZM135.324 15.7383L134.886 15.9786L138.317 22.2403L138.756 22L139.194 21.7597L135.763 15.498L135.324 15.7383ZM138.756 22V21.5H132.303V22V22.5H138.756V22ZM132.303 22L132.755 21.7864L130.185 16.345L129.732 16.5586L129.28 16.7721L131.851 22.2136L132.303 22ZM129.732 16.5586V16.0586H127.6V16.5586V17.0586H129.732V16.5586ZM120.6 22H121.1V3.85742H120.6H120.1V22H120.6ZM120.6 3.85742V4.35742H126.643V3.85742V3.35742H120.6V3.85742ZM126.643 3.85742H126.143V22H126.643H127.143V3.85742H126.643ZM126.643 22V21.5H120.6V22V22.5H126.643V22ZM0.710938 35.8086H0.210938V36.3086H0.710938V35.8086ZM0.710938 31.8574V31.3574H0.210938V31.8574H0.710938ZM16.4609 31.8574H16.9609V31.3574H16.4609V31.8574ZM16.4609 35.8086V36.3086H16.9609V35.8086H16.4609ZM5.44141 50H4.94141V50.5H5.44141V50ZM5.44141 36.752V36.252H4.94141V36.752H5.44141ZM11.7305 36.752H12.2305V36.252H11.7305V36.752ZM11.7305 50V50.5H12.2305V50H11.7305ZM0.710938 35.8086H1.21094V31.8574H0.710938H0.210938V35.8086H0.710938ZM0.710938 31.8574V32.3574H16.4609V31.8574V31.3574H0.710938V31.8574ZM16.4609 31.8574H15.9609V35.8086H16.4609H16.9609V31.8574H16.4609ZM16.4609 35.8086V35.3086H0.710938V35.8086V36.3086H16.4609V35.8086ZM5.44141 50H5.94141V36.752H5.44141H4.94141V50H5.44141ZM5.44141 36.752V37.252H11.7305V36.752V36.252H5.44141V36.752ZM11.7305 36.752H11.2305V50H11.7305H12.2305V36.752H11.7305ZM11.7305 50V49.5H5.44141V50V50.5H11.7305V50ZM20.4515 50H19.9515V50.5H20.4515V50ZM20.4515 31.8574V31.3574H19.9515V31.8574H20.4515ZM26.4945 31.8574H26.9945V31.3574H26.4945V31.8574ZM26.4945 39.0488H25.9945V39.5488H26.4945V39.0488ZM32.2777 39.0488H32.7777V38.5488H32.2777V39.0488ZM32.2777 42.5488V43.0488H32.7777V42.5488H32.2777ZM26.4945 42.5488V42.0488H25.9945V42.5488H26.4945ZM26.4945 50V50.5H26.9945V50H26.4945ZM31.2113 37.1074H30.7113V37.6074H31.2113V37.1074ZM31.2113 35.3711H31.7113V34.8711H31.2113V35.3711ZM27.4515 35.3711H26.9515V35.8711H27.4515V35.3711ZM27.4515 31.8574V31.3574H26.9515V31.8574H27.4515ZM36.8988 31.8574H37.3988V31.3574H36.8988V31.8574ZM36.8988 37.1074V37.6074H37.3988V37.1074H36.8988ZM27.4515 50H26.9515V50.5H27.4515V50ZM27.4515 46.377V45.877H26.9515V46.377H27.4515ZM30.8558 46.377V46.877H31.3558V46.377H30.8558ZM30.8558 44.5586V44.0586H30.3558V44.5586H30.8558ZM36.8988 44.5586H37.3988V44.0586H36.8988V44.5586ZM36.8988 50V50.5H37.3988V50H36.8988ZM20.4515 50H20.9515V31.8574H20.4515H19.9515V50H20.4515ZM20.4515 31.8574V32.3574H26.4945V31.8574V31.3574H20.4515V31.8574ZM26.4945 31.8574H25.9945V39.0488H26.4945H26.9945V31.8574H26.4945ZM26.4945 39.0488V39.5488H32.2777V39.0488V38.5488H26.4945V39.0488ZM32.2777 39.0488H31.7777V42.5488H32.2777H32.7777V39.0488H32.2777ZM32.2777 42.5488V42.0488H26.4945V42.5488V43.0488H32.2777V42.5488ZM26.4945 42.5488H25.9945V50H26.4945H26.9945V42.5488H26.4945ZM26.4945 50V49.5H20.4515V50V50.5H26.4945V50ZM31.2113 37.1074H31.7113V35.3711H31.2113H30.7113V37.1074H31.2113ZM31.2113 35.3711V34.8711H27.4515V35.3711V35.8711H31.2113V35.3711ZM27.4515 35.3711H27.9515V31.8574H27.4515H26.9515V35.3711H27.4515ZM27.4515 31.8574V32.3574H36.8988V31.8574V31.3574H27.4515V31.8574ZM36.8988 31.8574H36.3988V37.1074H36.8988H37.3988V31.8574H36.8988ZM36.8988 37.1074V36.6074H31.2113V37.1074V37.6074H36.8988V37.1074ZM27.4515 50H27.9515V46.377H27.4515H26.9515V50H27.4515ZM27.4515 46.377V46.877H30.8558V46.377V45.877H27.4515V46.377ZM30.8558 46.377H31.3558V44.5586H30.8558H30.3558V46.377H30.8558ZM30.8558 44.5586V45.0586H36.8988V44.5586V44.0586H30.8558V44.5586ZM36.8988 44.5586H36.3988V50H36.8988H37.3988V44.5586H36.8988ZM36.8988 50V49.5H27.4515V50V50.5H36.8988V50ZM54.192 50L53.7256 50.1801L53.8491 50.5H54.192V50ZM53.4264 48.0176L53.8928 47.8374L53.7693 47.5176H53.4264V48.0176ZM47.4928 48.0176L47.0209 47.8525L46.7882 48.5176H47.4928V48.0176ZM48.7506 44.4219V43.9219H48.3958L48.2787 44.2568L48.7506 44.4219ZM52.0319 44.4219V44.9219H52.761L52.4983 44.2417L52.0319 44.4219ZM47.1784 31.8574V31.3574H46.4492L46.7119 32.0376L47.1784 31.8574ZM53.0709 31.8574L53.5354 31.6723L53.4099 31.3574H53.0709V31.8574ZM60.3034 50V50.5H61.0409L60.7678 49.8148L60.3034 50ZM40.0416 50L39.5733 49.8248L39.3207 50.5H40.0416V50ZM46.5221 32.6777L46.9907 32.5034L46.5235 31.2471L46.0538 32.5025L46.5221 32.6777ZM49.2018 39.8828L49.6768 40.0388L49.7314 39.8725L49.6704 39.7085L49.2018 39.8828ZM45.8795 50V50.5H46.2416L46.3546 50.156L45.8795 50ZM54.192 50L54.6585 49.8199L53.8928 47.8374L53.4264 48.0176L52.96 48.1977L53.7256 50.1801L54.192 50ZM53.4264 48.0176V47.5176H47.4928V48.0176V48.5176H53.4264V48.0176ZM47.4928 48.0176L47.9648 48.1827L49.2226 44.587L48.7506 44.4219L48.2787 44.2568L47.0209 47.8525L47.4928 48.0176ZM48.7506 44.4219V44.9219H52.0319V44.4219V43.9219H48.7506V44.4219ZM52.0319 44.4219L52.4983 44.2417L47.6448 31.6773L47.1784 31.8574L46.7119 32.0376L51.5655 44.602L52.0319 44.4219ZM47.1784 31.8574V32.3574H53.0709V31.8574V31.3574H47.1784V31.8574ZM53.0709 31.8574L52.6065 32.0426L59.8389 50.1852L60.3034 50L60.7678 49.8148L53.5354 31.6723L53.0709 31.8574ZM60.3034 50V49.5H54.192V50V50.5H60.3034V50ZM40.0416 50L40.5099 50.1752L46.9904 32.8529L46.5221 32.6777L46.0538 32.5025L39.5733 49.8248L40.0416 50ZM46.5221 32.6777L46.0535 32.852L48.7332 40.0571L49.2018 39.8828L49.6704 39.7085L46.9907 32.5034L46.5221 32.6777ZM49.2018 39.8828L48.7268 39.7268L45.4045 49.844L45.8795 50L46.3546 50.156L49.6768 40.0388L49.2018 39.8828ZM45.8795 50V49.5H40.0416V50V50.5H45.8795V50ZM74.3701 50L73.94 50.2551L74.3745 50.9876L74.8024 50.2512L74.3701 50ZM63.6103 31.8574V31.3574H62.7325L63.1803 32.1125L63.6103 31.8574ZM70.0361 31.8574L70.4642 31.5991L70.3184 31.3574H70.0361V31.8574ZM74.9033 39.9238L74.4752 40.1821L74.9106 40.9037L75.3352 40.1758L74.9033 39.9238ZM78.7314 33.3613H79.2314V31.5119L78.2995 33.1094L78.7314 33.3613ZM78.7314 42.4941L79.1637 42.7453L79.2314 42.6289V42.4941H78.7314ZM79.6201 50H79.1201V50.5H79.6201V50ZM79.6201 31.8574V31.3574H79.1201V31.8574H79.6201ZM85.663 31.8574H86.163V31.3574H85.663V31.8574ZM85.663 50V50.5H86.163V50H85.663ZM63.5966 50H63.0966V50.5H63.5966V50ZM63.5966 33.5391L64.0262 33.2831L63.0966 31.7234V33.5391H63.5966ZM69.2431 43.0137H69.7431V42.876L69.6726 42.7577L69.2431 43.0137ZM69.2431 50V50.5H69.7431V50H69.2431ZM74.3701 50L74.8001 49.7449L64.0404 31.6024L63.6103 31.8574L63.1803 32.1125L73.94 50.2551L74.3701 50ZM63.6103 31.8574V32.3574H70.0361V31.8574V31.3574H63.6103V31.8574ZM70.0361 31.8574L69.608 32.1157L74.4752 40.1821L74.9033 39.9238L75.3314 39.6655L70.4642 31.5991L70.0361 31.8574ZM74.9033 39.9238L75.3352 40.1758L79.1633 33.6133L78.7314 33.3613L78.2995 33.1094L74.4714 39.6719L74.9033 39.9238ZM78.7314 33.3613H78.2314V42.4941H78.7314H79.2314V33.3613H78.7314ZM78.7314 42.4941L78.2991 42.2429L73.9378 49.7488L74.3701 50L74.8024 50.2512L79.1637 42.7453L78.7314 42.4941ZM79.6201 50H80.1201V31.8574H79.6201H79.1201V50H79.6201ZM79.6201 31.8574V32.3574H85.663V31.8574V31.3574H79.6201V31.8574ZM85.663 31.8574H85.163V50H85.663H86.163V31.8574H85.663ZM85.663 50V49.5H79.6201V50V50.5H85.663V50ZM63.5966 50H64.0966V33.5391H63.5966H63.0966V50H63.5966ZM63.5966 33.5391L63.1671 33.795L68.8136 43.2696L69.2431 43.0137L69.6726 42.7577L64.0262 33.2831L63.5966 33.5391ZM69.2431 43.0137H68.7431V50H69.2431H69.7431V43.0137H69.2431ZM69.2431 50V49.5H63.5966V50V50.5H69.2431V50Z" fill="white"/>
<path d="M111.142 28.0809C109.341 28.381 107.91 29.7142 107.504 31.4712C107.337 32.1952 107.345 33.2017 107.531 33.5019C107.628 33.6608 108.317 34.1817 109.288 34.8351C112.766 37.1571 115.477 39.435 117.437 41.6687L118.223 42.5781L121.048 42.5252C127.599 42.3927 133.029 41.9248 137.585 41.086L138.397 40.9359V40.2826C138.397 38.7552 137.452 37.263 136.066 36.6097C135.378 36.283 135.033 36.2212 133.453 36.1594C130.319 36.027 128.102 35.6385 125.03 34.685L123.891 34.323L121.94 36.2654C120.271 37.9252 119.936 38.2254 119.609 38.3137C119.291 38.3932 119.176 38.3843 118.841 38.2342C118.346 38.0135 118.09 37.6162 118.09 37.0688C118.09 36.5302 118.258 36.3095 119.98 34.6055L121.357 33.237L120.368 32.7338L119.371 32.2393L117.561 34.0316C116.139 35.4443 115.68 35.8416 115.415 35.9122C114.885 36.0623 114.303 35.8327 114.029 35.3736C113.808 35.0205 113.799 34.376 113.994 34.0758C114.073 33.9522 114.815 33.1752 115.636 32.3453L117.137 30.8355L116.66 30.4912C116.404 30.3058 115.795 29.8378 115.309 29.4494C114.294 28.6459 113.437 28.2045 112.616 28.072C111.963 27.9749 111.786 27.9749 111.142 28.0809Z" fill="#222222" stroke="white" stroke-width="0.4"/>
<path d="M97.2386 30.0054C96.5499 30.2261 95.9319 30.6411 95.4109 31.215C94.7046 31.9919 94.3956 32.7954 94.2102 34.3493L94.1572 34.8437L95.1108 34.8878C96.8501 34.9761 98.457 35.6736 99.7901 36.9273C100.576 37.6778 101.167 38.4901 101.591 39.4171C101.883 40.0705 102.2 41.2801 102.2 41.7745V42.1012L102.668 42.1453C104.84 42.3837 114.738 42.7192 114.738 42.5514C114.738 42.419 112.822 40.6444 111.692 39.735C109.555 37.9957 107.171 36.3799 104.717 35.0114C104.134 34.6848 103.569 34.3316 103.463 34.2345C103.348 34.1285 102.977 33.484 102.624 32.8042C101.847 31.2768 101.335 30.7117 100.293 30.2173C99.6665 29.9171 99.5429 29.8906 98.6777 29.8641C97.9361 29.8465 97.6359 29.8729 97.2386 30.0054Z" fill="#222222" stroke="white" stroke-width="0.4"/>
<path d="M93.7742 37.6695C93.6153 38.5082 93.3593 40.8126 93.4211 40.8656C93.6418 41.0598 97.2175 41.669 98.9215 41.8103L99.6455 41.8721L99.5837 41.5277C99.3895 40.4418 98.6567 39.2057 97.8091 38.5347C96.8291 37.7754 95.8402 37.4311 94.5953 37.4311C93.8272 37.4311 93.8272 37.4311 93.7742 37.6695Z" fill="#222222" stroke="white" stroke-width="0.4"/>
<path d="M93.2102 45.3947L93.2366 47.2753L93.5192 47.8756C94.0931 49.0764 95.2585 49.9416 96.5917 50.1447C96.989 50.2065 98.9402 50.233 102.11 50.2153L107.01 50.1888L107.893 49.7474C108.714 49.3324 108.82 49.3059 109.438 49.3059C110.047 49.3059 110.171 49.3413 111.018 49.7474L111.945 50.1888L114.903 50.18C121.799 50.1535 128.182 49.1823 133.894 47.3106C135.757 46.7014 136.411 46.3747 137.046 45.7567C137.532 45.2622 138.132 44.2999 138.247 43.779L138.3 43.5582L136.958 43.7966C128.42 45.3329 111.018 45.6331 99.3728 44.4411C97.5364 44.2557 95.0378 43.8937 94.1813 43.6995C93.7752 43.6024 93.3867 43.5229 93.3073 43.5229C93.2013 43.5229 93.1837 43.779 93.2102 45.3947Z" fill="#222222" stroke="white" stroke-width="0.4"/>
</svg>
