<svg width="30" height="25" viewBox="0 0 30 25" fill="none" xmlns="http://www.w3.org/2000/svg">
<path d="M4.20316 0.999195C3.39227 0.318776 2.18286 0.424584 1.50244 1.23548C0.822249 2.04637 0.92854 3.2551 1.73935 3.93545L25.6139 23.9686C26.4247 24.6489 27.6335 24.5437 28.314 23.733C28.9944 22.9222 28.8886 21.7127 28.0777 21.0323L4.20316 0.999195Z" fill="white" stroke="white"/>
<path d="M25.6152 0.999195C26.4261 0.318776 27.6355 0.424584 28.3159 1.23548C28.9961 2.04637 28.8898 3.2551 28.079 3.93545L4.20446 23.9686C3.39365 24.6489 2.18482 24.5437 1.50437 23.733C0.823945 22.9222 0.929755 21.7127 1.74065 21.0323L25.6152 0.999195Z" fill="white" stroke="white"/>
</svg>
