<svg width="24" height="176" viewBox="0 0 24 176" fill="none" xmlns="http://www.w3.org/2000/svg">
<path d="M9.75 6H14.25C14.6562 6 15.0479 6.1412 15.3594 6.39648L15.4873 6.5127C15.8155 6.84088 16 7.28587 16 7.75V9H20.25C20.3163 9 20.3799 9.02636 20.4268 9.07324C20.4736 9.12013 20.5 9.1837 20.5 9.25C20.5 9.3163 20.4736 9.37987 20.4268 9.42676C20.3799 9.47364 20.3163 9.5 20.25 9.5H19V23.5C19 23.7321 18.9193 23.9558 18.7734 24.1338L18.707 24.207C18.5195 24.3946 18.2652 24.5 18 24.5H6C5.76791 24.5 5.54417 24.4193 5.36621 24.2734L5.29297 24.207C5.10543 24.0195 5 23.7652 5 23.5V9.5H3.75C3.70028 9.5 3.65209 9.48518 3.61133 9.45801L3.57324 9.42676C3.52636 9.37987 3.5 9.3163 3.5 9.25L3.50488 9.20117C3.51127 9.16909 3.52385 9.13855 3.54199 9.11133L3.57324 9.07324C3.62013 9.02636 3.6837 9 3.75 9H8V7.75C8 7.34377 8.1412 6.95207 8.39648 6.64062L8.5127 6.5127C8.79988 6.22551 9.1765 6.04855 9.57715 6.00879L9.75 6ZM9.75 6.5C9.41848 6.5 9.10063 6.63179 8.86621 6.86621C8.63179 7.10063 8.5 7.41848 8.5 7.75V9H15.5V7.75C15.5 7.41848 15.3682 7.10063 15.1338 6.86621C14.8994 6.63179 14.5815 6.5 14.25 6.5H9.75Z" stroke="#222222"/>
</svg>
