<svg width="24" height="25" viewBox="0 0 24 25" fill="none" xmlns="http://www.w3.org/2000/svg">
<g clip-path="url(#clip0_7028_5878)">
<path d="M11.6592 24.3857C13.1427 24.4224 14.2914 24.2806 15.498 23.9023L16.0195 23.7256H16.0205C16.7237 23.4732 16.9655 23.3453 17.0947 23.1816L17.1445 23.1084V23.1074C17.1969 23.0209 17.2204 22.9702 17.2314 22.917C17.2372 22.8893 17.2399 22.859 17.2402 22.8203L17.2344 22.6748H17.2334C17.2223 22.5278 17.197 22.4265 17.1504 22.3447C17.1156 22.2837 17.0659 22.2284 16.9932 22.1709L16.9121 22.1123L16.9111 22.1113C16.7917 22.0288 16.698 21.9925 16.5938 21.9873C16.4854 21.9819 16.3541 22.0096 16.1582 22.0811H16.1592C14.3652 22.7403 13.5044 22.9121 12.0088 22.9121C10.9085 22.9121 10.1059 22.8067 9.13965 22.5205L8.71484 22.3867C5.68883 21.3826 3.30245 19.0592 2.21387 16.0752L2.1123 15.7842C1.72934 14.6211 1.58694 13.748 1.58691 12.5C1.58691 11.4077 1.69558 10.6023 1.97949 9.63867L2.1123 9.21484C3.11646 6.18884 5.43973 3.80238 8.42383 2.71387L8.71484 2.6123C9.87794 2.22934 10.751 2.08693 11.999 2.08691C13.091 2.08691 13.8961 2.19576 14.8594 2.47949L15.2832 2.6123H15.2842C19.0028 3.85036 21.6992 7.06081 22.3115 10.9385L22.3643 11.3154C22.4267 11.8236 22.423 12.8876 22.3672 13.5498L22.3408 13.8066C22.1943 14.9146 21.9017 15.9159 21.5117 16.709C21.1716 17.4005 20.7527 17.9424 20.2832 18.2539L20.0791 18.373C19.8237 18.502 19.5902 18.5552 19.3877 18.5068C19.1801 18.4573 19.0281 18.3074 18.9258 18.083L18.8223 17.8623L18.8135 17.8428V17.8203L18.79 12.5703C18.7783 10.1912 18.7703 8.87591 18.7568 8.13965C18.7501 7.77115 18.7417 7.54955 18.7314 7.41309C18.7261 7.34252 18.72 7.29842 18.7148 7.27051L18.7021 7.22559C18.4353 6.74678 17.7514 6.71496 17.4531 7.11621L17.3984 7.20312C17.3285 7.33483 17.3028 7.44879 17.3027 7.65723V8.19336L17.1338 8.03516L16.7256 7.65039C15.7102 6.70028 14.6615 6.14187 13.3691 5.87402L13.1074 5.8252L13.1064 5.82422C12.6522 5.7439 11.7892 5.72403 11.2266 5.77246L11.0059 5.79688C8.96219 6.10442 7.16583 7.33788 6.12305 9.13184L5.9248 9.49805L5.83496 9.68945C5.653 10.1059 5.46074 10.7019 5.36133 11.1631L5.31934 11.3809V11.3818L5.29102 11.6045C5.24018 12.0913 5.2328 12.8 5.27246 13.2764L5.29688 13.4932C5.72216 16.3433 7.92021 18.6131 10.7324 19.1553L11.0059 19.2021C11.27 19.2409 11.6763 19.2572 12.082 19.252C12.3867 19.248 12.6862 19.232 12.9199 19.2051L13.1299 19.1748C14.5586 18.9112 15.6475 18.3581 16.7256 17.3496V17.3486L17.1338 16.9648L17.3027 16.8057V17.4307C17.3027 18.1042 17.5189 18.7493 17.8818 19.209L18.0469 19.3945C18.3558 19.7057 18.6998 19.899 19.0801 19.9795C19.4133 20.05 19.7794 20.0349 20.1807 19.9307L20.3555 19.8809C21.2277 19.605 22.0164 18.8658 22.6318 17.7891C23.1697 16.8479 23.5716 15.6554 23.7773 14.3086L23.8525 13.7217C23.894 13.3467 23.9037 12.7392 23.8867 12.1318C23.874 11.6761 23.8467 11.225 23.8076 10.877L23.7646 10.5664C23.3504 8.15113 22.2788 6.0067 20.6299 4.28516L20.292 3.94629C18.6093 2.32475 16.6621 1.29266 14.3906 0.821289L13.9326 0.734375H13.9316C13.597 0.675745 13.3195 0.64799 12.7988 0.633789L12.1855 0.623047C11.8582 0.618371 11.539 0.617393 11.2891 0.619141L10.8174 0.631836H10.8145C7.88941 0.94573 5.22277 2.27716 3.26172 4.39551L2.87891 4.8291V4.83008C1.56729 6.39016 0.721501 8.14569 0.302734 10.1836L0.224609 10.5947C0.137199 11.0962 0.126953 11.3373 0.126953 12.5C0.126961 13.9604 0.174156 14.3924 0.466797 15.5352C1.30418 18.7766 3.63823 21.6493 6.63965 23.1523L6.93164 23.293C8.29436 23.9275 9.54207 24.2562 11.0137 24.3564L11.6592 24.3857ZM12.5107 17.751C9.33467 18.0704 6.59487 15.4394 6.72656 12.2939L6.74805 11.9883C6.9678 9.8242 8.49174 8.00947 10.5977 7.41211V7.41113C10.8612 7.33532 11.1427 7.28476 11.5068 7.24219L11.9014 7.20117H11.9102C11.9537 7.20117 12.2265 7.22101 12.502 7.24902L12.501 7.25C14.9354 7.49529 16.8729 9.35792 17.2217 11.7549L17.25 11.9883C17.5277 14.7755 15.5368 17.2968 12.7803 17.7168L12.5107 17.751Z" fill="black" fill-opacity="0.4" stroke="#F0F0F0" stroke-width="0.2"/>
</g>
<defs>
<clipPath id="clip0_7028_5878">
<rect width="24" height="24" fill="white" transform="translate(0 0.5)"/>
</clipPath>
</defs>
</svg>
