<svg width="80" height="80" viewBox="0 0 80 80" fill="none" xmlns="http://www.w3.org/2000/svg">
<path d="M40.001 6.66797C58.4104 6.66797 73.3348 21.5916 73.335 40.001C73.335 58.4105 58.4105 73.335 40.001 73.335C21.5916 73.3348 6.66797 58.4104 6.66797 40.001C6.66815 21.5917 21.5917 6.66815 40.001 6.66797ZM40 12.334C24.7203 12.3341 12.3341 24.7203 12.334 40C12.334 55.2798 24.7202 67.6669 40 67.667C55.2799 67.667 67.667 55.2799 67.667 40C67.6669 24.7202 55.2798 12.334 40 12.334ZM40.0967 51.3994C44.4054 51.3995 48.4751 52.7766 51.5322 55.2236C52.6231 56.097 52.8215 57.7185 51.9756 58.8447C51.1296 59.9708 49.5598 60.1756 48.4688 59.3027C46.3068 57.5722 43.3179 56.5606 40.0967 56.5605C36.7945 56.5605 33.7388 57.6241 31.5693 59.4297C30.4946 60.3241 28.9204 60.1493 28.0537 59.04C27.1876 57.9307 27.3564 56.3067 28.4307 55.4121C31.5091 52.8499 35.6764 51.3994 40.0967 51.3994ZM32.2314 37.7217C32.8908 36.5212 34.3683 36.0654 35.5312 36.7041C36.6938 37.3428 37.1023 38.8339 36.4434 40.0342C33.2033 45.9338 27.0165 46.1743 20.0859 42.3682C18.9234 41.7293 18.5156 40.2384 19.1748 39.0381C19.8342 37.838 21.3109 37.383 22.4736 38.0215C27.1616 40.596 30.3546 40.5968 32.0059 38.0957L32.2314 37.7217ZM44.5312 36.541C45.7074 35.9272 47.1748 36.4139 47.8086 37.6279C49.3238 40.5299 52.5907 40.7256 57.5576 38.1328C58.7337 37.519 60.2011 38.0058 60.835 39.2197C61.4685 40.4337 61.0294 41.9162 59.8535 42.5303C52.8441 46.1893 46.6646 45.8172 43.5498 39.8506C42.9162 38.6366 43.3554 37.1551 44.5312 36.541Z" fill="#E4E4E4"/>
</svg>
