<svg width="68" height="62" viewBox="0 0 68 62" fill="none" xmlns="http://www.w3.org/2000/svg">
<g filter="url(#filter0_di_5048_164256)">
<path d="M32.2861 10.8499C33.0633 9.55754 34.9367 9.55754 35.7139 10.8499L53.8279 40.9692C54.6296 42.3022 53.6695 44 52.114 44H15.886C14.3305 44 13.3704 42.3022 14.1721 40.9692L32.2861 10.8499Z" fill="#FF9447"/>
</g>
<path d="M33.147 34.547L31.741 27.65V26.453L35.218 25.066H36.548L35.37 34.547H33.147ZM34.648 36.048C35.2307 36.048 35.712 36.238 36.092 36.618C36.472 36.9853 36.662 37.4413 36.662 37.986C36.662 38.3787 36.5227 38.746 36.244 39.088C35.978 39.4173 35.636 39.6833 35.218 39.886C34.8 40.0887 34.401 40.19 34.021 40.19C33.451 40.19 32.9697 40.0063 32.577 39.639C32.197 39.259 32.007 38.803 32.007 38.271C32.007 37.8783 32.14 37.511 32.406 37.169C32.6847 36.827 33.0267 36.5547 33.432 36.352C33.85 36.1493 34.2553 36.048 34.648 36.048Z" fill="white"/>
<defs>
<filter id="filter0_di_5048_164256" x="0.682813" y="0.68086" width="66.6344" height="60.5191" filterUnits="userSpaceOnUse" color-interpolation-filters="sRGB">
<feFlood flood-opacity="0" result="BackgroundImageFix"/>
<feColorMatrix in="SourceAlpha" type="matrix" values="0 0 0 0 0 0 0 0 0 0 0 0 0 0 0 0 0 0 127 0" result="hardAlpha"/>
<feOffset dy="4"/>
<feGaussianBlur stdDeviation="6.6"/>
<feComposite in2="hardAlpha" operator="out"/>
<feColorMatrix type="matrix" values="0 0 0 0 0 0 0 0 0 0 0 0 0 0 0 0 0 0 0.15 0"/>
<feBlend mode="normal" in2="BackgroundImageFix" result="effect1_dropShadow_5048_164256"/>
<feBlend mode="normal" in="SourceGraphic" in2="effect1_dropShadow_5048_164256" result="shape"/>
<feColorMatrix in="SourceAlpha" type="matrix" values="0 0 0 0 0 0 0 0 0 0 0 0 0 0 0 0 0 0 127 0" result="hardAlpha"/>
<feOffset dx="1"/>
<feGaussianBlur stdDeviation="2"/>
<feComposite in2="hardAlpha" operator="arithmetic" k2="-1" k3="1"/>
<feColorMatrix type="matrix" values="0 0 0 0 0 0 0 0 0 0 0 0 0 0 0 0 0 0 0.15 0"/>
<feBlend mode="normal" in2="shape" result="effect2_innerShadow_5048_164256"/>
</filter>
</defs>
</svg>
