<svg width="24" height="21" viewBox="0 0 24 21" fill="none" xmlns="http://www.w3.org/2000/svg">
<path d="M13.1203 0.28828C12.8766 0.40078 12.6 0.677343 12.4875 0.921093C12.4078 1.09453 12.3984 1.24922 12.3984 2.52891V3.94922H9.075H5.75156L5.73281 2.99766C5.71875 2.13047 5.70938 2.03203 5.61563 1.85859C5.45625 1.55391 5.29219 1.38984 5.02969 1.25859C4.79531 1.14141 4.7625 1.13672 3.87656 1.13672C3.31406 1.13672 2.89219 1.15547 2.77969 1.19297C2.52188 1.26797 2.18906 1.58203 2.05781 1.86328C1.95469 2.08359 1.94531 2.14922 1.94531 3.01641V3.93516L1.64531 3.95859C1.03594 4.01015 0.440625 4.43203 0.15 5.02266L0 5.33203V12.3867V19.4414L0.15 19.7508C0.3375 20.1258 0.7125 20.4961 1.0875 20.6742L1.35938 20.8008H11.9766H22.5938L22.8656 20.6742C23.2406 20.4961 23.6156 20.1258 23.8031 19.7508L23.9531 19.4414V12.3867V5.33203L23.8031 5.02266C23.6156 4.64766 23.2406 4.27734 22.8656 4.09922L22.5938 3.97266L20.5688 3.95859L18.5391 3.94453V2.52891C18.5391 0.939842 18.5297 0.897655 18.1875 0.550781C17.8266 0.19453 17.8875 0.199219 15.4688 0.199219C13.4672 0.199219 13.2984 0.208593 13.1203 0.28828ZM17.1328 2.61328V3.62109H15.4688H13.8047V2.61328V1.60547H15.4688H17.1328V2.61328ZM4.28906 3.24609V3.94922H3.84375H3.39844V3.24609V2.54297H3.84375H4.28906V3.24609ZM22.1906 5.41641C22.2797 5.44922 22.3969 5.53359 22.4484 5.60391L22.5469 5.73516V12.3867V19.0383L22.4484 19.1695C22.3969 19.2398 22.2797 19.3242 22.1906 19.357C21.9609 19.4367 1.99219 19.4367 1.7625 19.357C1.67344 19.3242 1.55625 19.2398 1.50469 19.1695L1.40625 19.0383V12.3867V5.73516L1.50469 5.60391C1.55625 5.53359 1.67344 5.44922 1.7625 5.41641C1.99219 5.33672 21.9609 5.33672 22.1906 5.41641Z" fill="white"/>
<path d="M10.8087 6.85977C8.69936 7.31445 7.06342 8.88008 6.50561 10.9801C6.32749 11.6363 6.29936 12.8129 6.44467 13.5066C6.91342 15.7895 8.70405 17.5473 10.9634 17.941C11.4931 18.0301 12.4587 18.0301 12.9884 17.941C15.2947 17.5379 17.1322 15.6863 17.5353 13.366C17.6478 12.7098 17.6056 11.5801 17.4462 10.9801C17.179 9.97227 16.7009 9.13789 15.965 8.39727C15.2244 7.66133 14.3947 7.1832 13.3822 6.91133C13.0025 6.81289 12.815 6.79414 12.0931 6.78008C11.3806 6.76602 11.179 6.78008 10.8087 6.85977ZM12.8056 8.28477C14.4134 8.59883 15.7353 9.91602 16.0775 11.5426C16.1665 11.9691 16.1665 12.8035 16.0775 13.2301C15.9087 14.0316 15.5009 14.7723 14.9009 15.3629C13.2556 16.9848 10.6634 16.9707 9.02749 15.3348C8.54467 14.852 8.2353 14.3551 7.99624 13.6895L7.82749 13.2066V12.3863V11.566L7.99624 11.0832C8.2353 10.4129 8.54467 9.91602 9.0228 9.4332C10.0353 8.42539 11.3994 8.01289 12.8056 8.28477Z" fill="white"/>
<path d="M11.3297 9.73359C10.1531 10.0195 9.25781 11.1445 9.25781 12.3305C9.25781 12.7945 9.53438 13.0898 9.975 13.0898C10.4203 13.0898 10.6406 12.8648 10.7063 12.3445C10.8 11.6227 11.2125 11.2102 11.9391 11.1164C12.4547 11.0508 12.6797 10.8305 12.6797 10.3852C12.6797 10.118 12.5578 9.89297 12.3422 9.76172C12.1594 9.65391 11.7234 9.63984 11.3297 9.73359Z" fill="white"/>
<path d="M19.7191 6.84141C19.077 7.15547 19.3113 8.16797 20.0238 8.16797C20.4691 8.16797 20.741 7.90547 20.741 7.47891C20.741 6.93984 20.202 6.60234 19.7191 6.84141Z" fill="white"/>
</svg>
