<svg width="24" height="24" viewBox="0 0 24 24" fill="none" xmlns="http://www.w3.org/2000/svg">
<rect width="24" height="24" rx="4" fill="#222222"/>
<path d="M15.8835 8.3608C15.8883 7.64583 15.6562 7.09896 15.1875 6.72017C14.7235 6.34138 14.0748 6.15199 13.2415 6.15199C12.6449 6.15199 12.1122 6.24669 11.6435 6.43608C11.1795 6.62074 10.8007 6.87642 10.5071 7.20312C10.2183 7.52509 10.0407 7.89205 9.97443 8.30398C9.91288 8.64962 9.94366 8.94792 10.0668 9.19886C10.1946 9.44981 10.3769 9.66051 10.6136 9.83097C10.8551 9.99669 11.1203 10.1364 11.4091 10.25C11.6979 10.3589 11.9773 10.4489 12.2472 10.5199L13.6108 10.8892C14.0511 11.0028 14.4986 11.1567 14.9531 11.3509C15.4077 11.545 15.8172 11.8007 16.1818 12.1179C16.5464 12.4351 16.8187 12.8281 16.9986 13.2969C17.1785 13.7656 17.214 14.3267 17.1051 14.9801C16.9631 15.804 16.6293 16.5355 16.1037 17.1747C15.5781 17.8139 14.8845 18.3182 14.0227 18.6875C13.161 19.0568 12.1619 19.2415 11.0256 19.2415C9.93655 19.2415 9.02036 19.0687 8.27699 18.723C7.53835 18.3774 6.99621 17.8873 6.65057 17.2528C6.30492 16.6136 6.18182 15.8561 6.28125 14.9801H8.49006C8.43797 15.5057 8.53267 15.9437 8.77415 16.294C9.02036 16.6397 9.366 16.8977 9.81108 17.0682C10.2562 17.2339 10.7604 17.3168 11.3239 17.3168C11.9489 17.3168 12.5194 17.2197 13.0355 17.0256C13.5516 16.8267 13.9777 16.5521 14.3139 16.2017C14.6501 15.8466 14.8561 15.4323 14.9318 14.9588C15.0076 14.5279 14.946 14.1752 14.7472 13.9006C14.553 13.6259 14.2595 13.3987 13.8665 13.2188C13.4782 13.0388 13.0355 12.8802 12.5384 12.7429L10.8977 12.2741C9.78504 11.9569 8.94223 11.4905 8.36932 10.875C7.7964 10.2595 7.59044 9.44508 7.75142 8.43182C7.89347 7.59375 8.24384 6.86222 8.80256 6.23722C9.36127 5.61222 10.0573 5.12689 10.8906 4.78125C11.724 4.43087 12.6283 4.25568 13.6037 4.25568C14.5885 4.25568 15.4266 4.43087 16.1179 4.78125C16.8092 5.13163 17.3205 5.61458 17.652 6.23011C17.9834 6.84564 18.0994 7.55587 18 8.3608H15.8835Z" fill="white"/>
</svg>
