<svg width="34" height="30" viewBox="0 0 34 30" fill="none" xmlns="http://www.w3.org/2000/svg">
<path d="M32.0781 0.972477C31.9456 0.986433 31.6944 1.0283 31.5269 1.07016C31.3525 1.11202 26.8661 2.94008 21.5494 5.14492C16.2257 7.34278 9.54137 10.1058 6.68067 11.285C3.81996 12.4641 1.32906 13.5107 1.13369 13.6084C0.945303 13.7131 0.624345 13.9573 0.42898 14.1457C-0.101297 14.669 -0.136184 15.1225 0.303388 15.6388C0.526663 15.897 0.631323 15.9458 1.92213 16.3714C6.51321 17.8855 7.10629 18.046 8.35523 18.046C9.17855 18.046 9.35996 18.0251 9.78558 17.8716C10.1763 17.732 11.516 16.8599 16.5955 13.434C23.3774 8.85686 23.5937 8.71731 24.438 8.30565C25.045 8.0126 25.4706 7.97074 25.6102 8.18704C25.7009 8.33356 25.5404 8.79406 25.2404 9.24061C24.9055 9.74298 21.4517 13.127 17.8444 16.4831C14.7534 19.3508 14.8093 19.288 14.8581 20.1183C14.9 20.8928 15.2 21.2137 17.2234 22.6929C18.7096 23.7814 25.045 27.9887 25.6939 28.3236C26.6149 28.7981 27.2219 28.9865 27.9406 29.0213C28.4569 29.0562 28.6523 29.0353 28.9174 28.9376C29.4965 28.7143 29.8942 28.2538 30.1664 27.4794C30.2989 27.1026 32.8666 10.9919 33.676 5.4589C34.0946 2.61215 34.1016 2.09583 33.7318 1.53764C33.4666 1.13993 32.7829 0.909681 32.0781 0.972477Z" fill="#222222"/>
</svg>
