<svg width="14" height="14" viewBox="0 0 14 14" fill="none" xmlns="http://www.w3.org/2000/svg">
<rect x="0.205882" y="0.205882" width="13.5882" height="13.5882" rx="6.79412" stroke="#222222" stroke-width="0.411765"/>
<path d="M5.99215 8.81016V8.76454C5.99721 8.28044 6.04791 7.89519 6.14422 7.60879C6.24053 7.32239 6.3774 7.09048 6.55481 6.91306C6.73223 6.73564 6.94513 6.57216 7.19352 6.42263C7.34305 6.33138 7.47738 6.22367 7.59651 6.09947C7.71563 5.97275 7.80941 5.82701 7.87784 5.66227C7.94881 5.49752 7.98429 5.31503 7.98429 5.11481C7.98429 4.86642 7.926 4.65099 7.80941 4.4685C7.69282 4.28601 7.53695 4.14535 7.34179 4.0465C7.14663 3.94765 6.92992 3.89823 6.69168 3.89823C6.48385 3.89823 6.28362 3.94132 6.09099 4.02749C5.89837 4.11366 5.73742 4.24926 5.60816 4.43428C5.4789 4.6193 5.40413 4.86135 5.38386 5.16043H4.4258C4.44608 4.72956 4.5576 4.36078 4.76036 4.0541C4.96566 3.74742 5.23559 3.51298 5.57015 3.35077C5.90724 3.18856 6.28108 3.10745 6.69168 3.10745C7.13776 3.10745 7.52554 3.19616 7.85503 3.37358C8.18705 3.551 8.44304 3.79431 8.62299 4.10353C8.80548 4.41274 8.89672 4.76504 8.89672 5.16043C8.89672 5.43923 8.85364 5.69141 8.76746 5.91699C8.68382 6.14256 8.56217 6.34406 8.40249 6.52147C8.24535 6.69889 8.05526 6.85603 7.83222 6.9929C7.60918 7.1323 7.4305 7.2793 7.29616 7.43391C7.16183 7.58598 7.06425 7.7672 7.00343 7.97757C6.9426 8.18793 6.90965 8.45026 6.90458 8.76454V8.81016H5.99215ZM6.47878 11.0608C6.29122 11.0608 6.13028 10.9937 5.99595 10.8593C5.86162 10.725 5.79445 10.5641 5.79445 10.3765C5.79445 10.1889 5.86162 10.028 5.99595 9.89367C6.13028 9.75934 6.29122 9.69218 6.47878 9.69218C6.66633 9.69218 6.82728 9.75934 6.96161 9.89367C7.09594 10.028 7.1631 10.1889 7.1631 10.3765C7.1631 10.5007 7.13142 10.6148 7.06806 10.7187C7.00723 10.8226 6.92486 10.9062 6.82094 10.9696C6.71956 11.0304 6.6055 11.0608 6.47878 11.0608Z" fill="#222222"/>
</svg>
