<svg width="36" height="36" viewBox="0 0 36 36" fill="none" xmlns="http://www.w3.org/2000/svg">
<path d="M16.2874 1.01642C11.8256 1.49519 7.7826 3.62972 4.93657 7.02102C2.93504 9.40158 1.69156 12.1013 1.13964 15.2665C1.0133 15.9913 1 16.3438 1 17.9929C1 20.0742 1.0665 20.6993 1.48542 22.3351C2.72225 27.1228 6.23989 31.3453 10.735 33.4333C12.9626 34.4706 14.9775 34.9361 17.4977 34.9959C19.9181 35.0558 21.7202 34.7831 23.735 34.0517C24.8654 33.646 25.2046 33.4532 25.4041 33.1141C25.557 32.8614 25.577 32.7616 25.5504 32.4159C25.5171 31.977 25.3908 31.7509 25.0317 31.5115C24.666 31.2588 24.4 31.2455 23.8348 31.4517C21.3013 32.3826 20.0977 32.622 17.9964 32.622C16.2276 32.622 15.0107 32.4292 13.3683 31.8839C8.97953 30.4276 5.54833 26.9964 4.09207 22.6077C3.55345 20.9719 3.35396 19.7484 3.35396 17.9929C3.35396 16.2374 3.55345 15.0138 4.09207 13.378C5.54833 8.9893 8.97953 5.5581 13.3683 4.10184C15.0041 3.56322 16.2276 3.36373 17.9831 3.36373C19.7386 3.36373 20.9621 3.56322 22.5979 4.10184C27.9908 5.89723 31.8542 10.6451 32.5457 16.3305C32.6455 17.1417 32.6255 18.9837 32.5125 19.8282C32.1002 22.9468 30.87 25.4471 29.3805 26.1985C28.6823 26.5509 28.2035 26.4379 27.9376 25.8527L27.7913 25.5402L27.758 18.0926C27.7248 11.3433 27.7115 10.6251 27.6184 10.4456C27.1662 9.62766 25.9427 9.60772 25.5171 10.4123C25.4041 10.6251 25.3642 10.8113 25.3642 11.1238V11.5561L24.7856 11.0108C23.2296 9.55452 21.6138 8.73662 19.579 8.38419C18.8276 8.2512 17.3181 8.23125 16.5534 8.34429C13.4148 8.81641 10.6818 10.8046 9.23886 13.6706C8.89973 14.3422 8.49411 15.599 8.36777 16.3837C8.24142 17.155 8.22812 18.6778 8.33452 19.4225C8.96623 23.6583 12.3176 27.0031 16.5534 27.6415C17.3248 27.7545 18.8941 27.7345 19.6123 27.6016C21.667 27.2225 23.2363 26.4246 24.7856 24.975L25.3642 24.4297V24.9883C25.3642 26.112 25.7764 27.1893 26.4613 27.8742C27.3723 28.7918 28.5094 29.0312 29.8792 28.599C32.446 27.7877 34.4542 24.2768 34.9396 19.7417C35.0593 18.6578 34.9928 16.264 34.8133 15.2266C34.1815 11.5428 32.4792 8.29774 29.846 5.75759C27.2792 3.28394 24.2803 1.76783 20.7493 1.16271C20.1043 1.04967 19.6056 1.01642 18.2491 1.00312C17.3181 0.989822 16.4337 0.996475 16.2874 1.01642ZM18.6813 10.685C22.179 11.0374 24.9386 13.7903 25.291 17.2814C25.69 21.2844 22.7243 24.8952 18.6946 25.3008C14.133 25.7596 10.2164 21.843 10.6752 17.2814C10.9811 14.2691 13.1023 11.7422 16.0348 10.911C16.5202 10.7714 17.0522 10.6916 17.8568 10.6185C17.91 10.6185 18.289 10.6451 18.6813 10.685Z" fill="#222222" stroke="#222222" stroke-width="0.6"/>
</svg>
