<svg width="16" height="16" viewBox="0 0 16 16" fill="none" xmlns="http://www.w3.org/2000/svg">
<g clip-path="url(#clip0_4630_3715)">
<path d="M11 14C12.654 14 14 12.654 14 11V3C14 1.346 12.654 0 11 0H3C1.346 0 0 1.346 0 3V11C0 12.654 1.346 14 3 14H11ZM0.666667 11V3C0.666667 1.71333 1.71333 0.666667 3 0.666667H11C12.2867 0.666667 13.3333 1.71333 13.3333 3V11C13.3333 12.2867 12.2867 13.3333 11 13.3333H3C1.71333 13.3333 0.666667 12.2867 0.666667 11ZM16 3V13C16 14.654 14.654 16 13 16H3C2.816 16 2.66667 15.8507 2.66667 15.6667C2.66667 15.4827 2.816 15.3333 3 15.3333H13C14.2867 15.3333 15.3333 14.2867 15.3333 13V3C15.3333 2.816 15.4827 2.66667 15.6667 2.66667C15.8507 2.66667 16 2.816 16 3Z" fill="#222222"/>
</g>
<defs>
<clipPath id="clip0_4630_3715">
<rect width="16" height="16" fill="white"/>
</clipPath>
</defs>
</svg>
