<svg width="24" height="24" viewBox="0 0 24 24" fill="none" xmlns="http://www.w3.org/2000/svg">
<rect x="0.6" y="0.6" width="22.8" height="22.8" rx="3.4" stroke="#222222" stroke-width="1.2"/>
<path d="M11.2273 18V9.27273H12.5682V18H11.2273ZM11.9091 7.81818C11.6477 7.81818 11.4223 7.72917 11.233 7.55114C11.0473 7.37311 10.9545 7.15909 10.9545 6.90909C10.9545 6.65909 11.0473 6.44508 11.233 6.26705C11.4223 6.08902 11.6477 6 11.9091 6C12.1705 6 12.3939 6.08902 12.5795 6.26705C12.7689 6.44508 12.8636 6.65909 12.8636 6.90909C12.8636 7.15909 12.7689 7.37311 12.5795 7.55114C12.3939 7.72917 12.1705 7.81818 11.9091 7.81818Z" fill="#222222"/>
</svg>
