<svg width="24" height="25" viewBox="0 0 24 25" fill="none" xmlns="http://www.w3.org/2000/svg">
<g clip-path="url(#clip0_4704_82827)">
<path d="M6.02539 9.09961C6.25084 9.09953 6.46746 9.18832 6.62695 9.34766C6.78645 9.50704 6.8759 9.72373 6.87598 9.94922C6.87603 10.1747 6.78632 10.3913 6.62695 10.5508L3.36523 13.8154L3.36328 13.8164C2.41431 14.792 1.88796 16.1029 1.89746 17.4639C1.90708 18.8245 2.45189 20.1268 3.41406 21.0889C4.37658 22.0511 5.68003 22.5963 7.04102 22.6055C8.40186 22.6145 9.71127 22.0868 10.6865 21.1377L10.6885 21.1367L13.9062 17.918H13.9082L13.9512 17.876C14.1115 17.7211 14.3269 17.6358 14.5498 17.6377C14.7724 17.6397 14.9851 17.7293 15.1426 17.8867C15.3002 18.0443 15.3897 18.2576 15.3916 18.4805C15.3935 18.7024 15.3089 18.9161 15.1553 19.0762L11.8936 22.3379V22.3389C10.604 23.629 8.85439 24.354 7.03027 24.3545C5.20608 24.355 3.45626 23.6304 2.16602 22.3408C0.875762 21.0512 0.150849 19.3018 0.150391 17.4775C0.149961 15.6534 0.873544 13.9035 2.16309 12.6133L5.4248 9.34863C5.58416 9.18923 5.79999 9.09971 6.02539 9.09961Z" fill="black" fill-opacity="0.4" stroke="#F0F0F0" stroke-width="0.3"/>
<path d="M16.9727 0.650391H16.9736C17.8772 0.648159 18.7728 0.82472 19.6074 1.1709C20.442 1.51708 21.1993 2.02594 21.8359 2.66699C23.1234 3.9583 23.847 5.70778 23.8467 7.53125C23.8462 9.35433 23.1225 11.1029 21.835 12.3936L18.5723 15.6543C18.4128 15.8136 18.1962 15.9033 17.9707 15.9033C17.7452 15.9032 17.5286 15.8137 17.3691 15.6543C17.2097 15.4948 17.1202 15.2782 17.1201 15.0527C17.1201 14.8273 17.2098 14.6107 17.3691 14.4512L20.6318 11.1895C21.3558 10.4654 21.8491 9.54233 22.0488 8.53809C22.2485 7.53392 22.1456 6.49282 21.7539 5.54688C21.3622 4.601 20.6987 3.79265 19.8477 3.22363C19.1029 2.72576 18.2435 2.43048 17.3545 2.36426L16.9717 2.34961C16.2915 2.34789 15.6176 2.48178 14.9893 2.74219C14.4395 2.97009 13.9341 3.29145 13.4951 3.69141L13.3115 3.86719L10.0469 7.12891C9.8874 7.28827 9.67077 7.37798 9.44531 7.37793C9.21983 7.37785 9.00314 7.28839 8.84375 7.12891C8.68439 6.96943 8.59565 6.75279 8.5957 6.52734C8.59578 6.30186 8.68523 6.08517 8.84473 5.92578L12.1113 2.66309H12.1123C12.7493 2.02307 13.5065 1.51539 14.3408 1.16992C15.1751 0.824492 16.0697 0.648053 16.9727 0.650391Z" fill="black" fill-opacity="0.4" stroke="#F0F0F0" stroke-width="0.3"/>
<path d="M14.9961 8.66211C15.2188 8.66416 15.4314 8.75364 15.5889 8.91113C15.7464 9.06863 15.8358 9.28119 15.8379 9.50391C15.8398 9.72594 15.7553 9.94047 15.6016 10.1006L9.59961 16.1025C9.52131 16.1836 9.42772 16.2485 9.32422 16.293C9.22065 16.3375 9.10881 16.3603 8.99609 16.3613C8.88323 16.3623 8.77048 16.3416 8.66602 16.2988C8.56163 16.2561 8.46745 16.1921 8.3877 16.1123C8.30794 16.0325 8.24391 15.9384 8.20117 15.834C8.15843 15.7295 8.13769 15.6168 8.13867 15.5039C8.13971 15.3912 8.16254 15.2794 8.20703 15.1758C8.25154 15.0723 8.31644 14.9787 8.39746 14.9004L14.3975 8.90039C14.5578 8.74556 14.7732 8.66017 14.9961 8.66211Z" fill="black" fill-opacity="0.4" stroke="#F0F0F0" stroke-width="0.3"/>
</g>
<defs>
<clipPath id="clip0_4704_82827">
<rect width="24" height="24" fill="white" transform="translate(0 0.5)"/>
</clipPath>
</defs>
</svg>
