<svg width="24" height="25" viewBox="0 0 24 25" fill="none" xmlns="http://www.w3.org/2000/svg">
<g clip-path="url(#clip0_7030_13563)">
<path d="M6.5 1H17.5C20.2559 1 22.5 3.2432 22.5 6V19C22.5 21.7568 20.2559 24 17.5 24H6.5C3.74408 24 1.5 21.7568 1.5 19V6C1.5 3.2432 3.74408 1 6.5 1ZM6.5 3C4.84473 3 3.5 4.34599 3.5 6V19C3.5 20.654 4.84473 22 6.5 22H17.5C19.1553 22 20.5 20.654 20.5 19V6C20.5 4.34599 19.1553 3 17.5 3H6.5Z" fill="black" fill-opacity="0.4" stroke="#F0F0F0"/>
<path d="M8 16.7988H16C16.6624 16.7989 17.2002 17.3359 17.2002 17.999C17.2 18.6621 16.6623 19.1982 16 19.1982H8C7.33766 19.1982 6.79997 18.6621 6.7998 17.999C6.7998 17.3358 7.33756 16.7988 8 16.7988ZM12.001 5.35352C12.0227 5.38348 12.0499 5.42574 12.0791 5.48535C12.1718 5.67454 12.2657 5.96935 12.3506 6.36133C12.5193 7.14031 12.6419 8.24268 12.6846 9.50879L12.6943 9.79883H15.291L15.2764 9.48438C15.2206 8.29527 15.0684 7.18269 14.8398 6.2041C14.777 5.93347 15.1032 5.70869 15.3389 5.87891C16.7694 6.91495 17.7002 8.59836 17.7002 10.499C17.7001 12.3996 16.7701 14.0822 15.3389 15.1182C15.1033 15.2885 14.7766 15.0631 14.8398 14.793C15.0685 13.8152 15.2206 12.7019 15.2764 11.5127L15.291 11.1982H12.6943L12.6855 11.4893C12.6434 12.7618 12.5205 13.8705 12.3516 14.6543C12.2666 15.0487 12.1731 15.3455 12.0801 15.5361C12.0507 15.5963 12.0228 15.6387 12.001 15.6689C11.9791 15.6387 11.9513 15.5963 11.9219 15.5361C11.8288 15.3454 11.7354 15.0488 11.6504 14.6543C11.4815 13.8703 11.3586 12.7614 11.3164 11.4893L11.3076 11.1982H8.71094L8.72559 11.5127C8.78134 12.7019 8.93349 13.8152 9.16211 14.793C9.22531 15.0631 8.89864 15.2885 8.66309 15.1182H8.66211C7.23214 14.0821 6.30186 12.3992 6.30176 10.499C6.30176 8.59826 7.23173 6.91488 8.66309 5.87891C8.89854 5.7089 9.22498 5.93421 9.16211 6.2041C8.93351 7.18176 8.78136 8.2953 8.72559 9.48438L8.71094 9.79883H11.3076L11.3174 9.50879C11.36 8.24267 11.4826 7.14031 11.6514 6.36133C11.7363 5.96935 11.8301 5.67454 11.9229 5.48535C11.9521 5.42573 11.9793 5.38347 12.001 5.35352Z" fill="black" fill-opacity="0.4" stroke="#F0F0F0" stroke-width="0.6"/>
</g>
<defs>
<clipPath id="clip0_7030_13563">
<rect width="24" height="24" fill="white" transform="translate(0 0.5)"/>
</clipPath>
</defs>
</svg>
