<svg width="24" height="25" viewBox="0 0 24 25" fill="none" xmlns="http://www.w3.org/2000/svg">
<g clip-path="url(#clip0_7030_4749)">
<path d="M22.2696 2.26922L21.1495 1.28922C20.1295 0.269219 18.3995 0.219219 17.2995 1.33922L15.4295 3.78922C14.3795 4.83922 14.3795 6.54922 15.4295 7.58922L16.9195 9.11922C15.2996 12.9192 12.3095 15.9192 8.62955 17.4192L7.09955 15.9292C6.58955 15.4192 5.91955 15.1392 5.19955 15.1392C4.47955 15.1392 3.80955 15.4192 3.34955 15.8892L0.809549 17.8492C-0.240451 18.8992 -0.240451 20.6092 0.789549 21.6292L1.80955 22.7992C2.90955 23.8992 4.38955 24.5092 5.99955 24.5092C13.7495 24.5092 24.0196 14.2292 24.0196 6.48922C24.0196 4.88922 23.4096 3.39922 22.2896 2.27922L22.2696 2.26922ZM5.97955 23.4992C4.63955 23.4992 3.40955 22.9992 2.51955 22.1092L1.49955 20.9292C0.839549 20.2692 0.839549 19.1992 1.44955 18.5792L3.98955 16.6192C4.30955 16.2992 4.72955 16.1192 5.18955 16.1192C5.64955 16.1192 6.06955 16.2992 6.38955 16.6192L8.15955 18.3492C8.29955 18.4892 8.49955 18.5292 8.68955 18.4592C12.8595 16.8692 16.2495 13.4792 17.9795 9.17922C18.0495 8.99922 18.0096 8.78922 17.8696 8.63922L16.1395 6.86922C15.4795 6.20922 15.4796 5.13922 16.1796 4.42922L18.0495 1.97922C18.7095 1.31922 19.7795 1.31922 20.4695 1.99922L21.5896 2.97922C22.4995 3.88922 22.9995 5.11922 22.9995 6.45922C22.9995 13.6192 13.1395 23.4792 5.97955 23.4792V23.4992Z" fill="black" fill-opacity="0.4"/>
</g>
<defs>
<clipPath id="clip0_7030_4749">
<rect width="24" height="24" fill="white" transform="translate(0 0.5)"/>
</clipPath>
</defs>
</svg>
