<svg width="78" height="78" viewBox="0 0 78 78" fill="none" xmlns="http://www.w3.org/2000/svg">
<rect width="78" height="78" rx="39" fill="#F0F0F0"/>
<path d="M49.6055 54.7393C50.5734 54.7971 51.372 54.6263 52.29 54.1758V54.1748C52.8759 53.8839 53.46 53.4116 53.9414 52.8633C54.4234 52.3142 54.7892 51.704 54.9541 51.1455L55.1094 50.6006H57.4668C58.4679 50.6006 59.0089 50.5964 59.3408 50.5732C59.579 50.5567 59.6966 50.532 59.7959 50.4941L59.8926 50.4512C60.0753 50.3587 60.234 50.2117 60.3281 50.0439L60.3291 50.043C60.3727 49.9657 60.3932 49.9272 60.4121 49.8379C60.4341 49.7341 60.452 49.5637 60.4639 49.2314C60.4875 48.5703 60.4873 47.3321 60.4873 44.8486V39.9434L60.2773 39.6172C60.1441 39.4175 59.5086 38.5669 58.8574 37.7334V37.7324L57.6777 36.2148L57.6621 36.1953L57.6514 36.1738L55.4824 31.8711C54.8886 30.6922 54.3303 29.6021 53.9082 28.7969C53.6972 28.3943 53.5208 28.0638 53.3916 27.8291C53.3269 27.7116 53.2744 27.6199 53.2363 27.5557C53.2171 27.5233 53.2024 27.4995 53.1924 27.4844L53.1904 27.4834C53.109 27.4103 53.0437 27.3621 52.9521 27.3252C52.85 27.2841 52.7021 27.2501 52.4512 27.2246C51.9439 27.1731 51.0874 27.1635 49.4854 27.1592H46.1738V26.0068C46.1738 25.5162 46.146 25.2446 46.0723 25.0518C46.0047 24.8752 45.8898 24.743 45.6426 24.5605L45.6406 24.5596L45.4639 24.4268L33.4727 24.4014L21.4561 24.3848L21.1455 24.5391L21.1436 24.54C20.5668 24.8251 20.3399 25.5217 20.6387 26.0908L20.6396 26.0918C20.6875 26.1837 20.7557 26.2879 20.8281 26.3799C20.9033 26.4753 20.9698 26.5415 21.0078 26.5693L21.0098 26.5703C21.035 26.5893 21.0396 26.5921 21.0518 26.5967C21.0712 26.604 21.1145 26.6159 21.2129 26.6279C21.4118 26.6521 21.7785 26.6705 22.501 26.6836C23.2203 26.6966 24.2813 26.7044 25.8613 26.7109L32.3369 26.7285L43.5615 26.7461H43.8105L43.8115 26.9951L43.8291 32.1387L43.8535 37.207L44.0449 37.4512L44.0459 37.4521C44.1842 37.6314 44.2139 37.6882 44.2969 37.7402C44.3762 37.79 44.5235 37.8399 44.8945 37.874C45.6343 37.942 47.091 37.9365 50.2148 37.9365H55.958L56.0332 38.0322L57.0566 39.3418L57.0576 39.3428L58.0723 40.6523L58.125 40.7207V48.252L57.8691 48.2471L56.6035 48.2207L55.3369 48.1953L55.165 48.1914L55.1064 48.0303L54.916 47.502C54.663 46.8152 54.3956 46.3736 53.8701 45.8057L53.6279 45.5527C51.5395 43.466 48.1689 43.4665 46.0811 45.5625L46.0791 45.5645C45.5169 46.1194 45.081 46.7789 44.8389 47.415L44.7471 47.6865L44.6436 48.0557L44.5928 48.2383H36.04L35.9844 48.0645L35.8369 47.6055V47.6045C35.6753 47.0997 35.3441 46.528 34.9238 46.0068C34.5037 45.486 34.0072 45.032 33.5283 44.752L33.5273 44.751C32.0525 43.8739 30.2774 43.7589 28.6484 44.4268L28.3242 44.5703C27.7406 44.852 27.1511 45.3276 26.6621 45.8877C26.1725 46.4485 25.7973 47.0786 25.6279 47.6592L25.5234 48.0156L25.4727 48.1914L25.2891 48.1953L23.2158 48.2383C22.2033 48.2601 21.6965 48.2736 21.4053 48.3047C21.2631 48.3199 21.1885 48.3376 21.1387 48.3564C21.0922 48.374 21.0562 48.3965 20.9902 48.4424C20.8704 48.5299 20.7401 48.6897 20.6387 48.8838C20.5627 49.0292 20.5117 49.1771 20.4893 49.3047L20.4766 49.4248C20.478 49.5816 20.5436 49.7884 20.6631 49.9883C20.7836 50.1898 20.9395 50.3517 21.085 50.4326L21.0889 50.4355C21.1666 50.4805 21.2175 50.5051 21.2783 50.5244C21.3407 50.5442 21.4254 50.5611 21.5703 50.5732C21.8672 50.5982 22.3634 50.6006 23.332 50.6006C24.2384 50.6006 24.753 50.6055 25.04 50.627C25.176 50.6371 25.2956 50.6522 25.3848 50.6904C25.4348 50.7119 25.4957 50.7492 25.54 50.8145C25.5857 50.8818 25.5947 50.9507 25.5947 50.998C25.5947 50.9765 25.5908 50.9674 25.5947 50.9834C25.5974 50.9943 25.6027 51.0115 25.6104 51.0352C25.6258 51.0825 25.6491 51.1464 25.6797 51.2227C25.741 51.3755 25.827 51.5691 25.9238 51.7627L25.9258 51.7656C26.6112 53.186 28.0722 54.3169 29.6465 54.6484C30.9017 54.9127 32.4421 54.6473 33.5684 53.96L33.5693 53.959C34.5264 53.3813 35.3833 52.3421 35.7803 51.292L35.9697 50.7666L36.0293 50.6006H44.5771L44.6377 50.7646L44.8281 51.2852V51.2861C44.9357 51.581 45.1568 51.9849 45.4141 52.374C45.6714 52.7633 45.9501 53.1139 46.166 53.3105C47.1217 54.1665 48.2998 54.6644 49.6045 54.7393H49.6055ZM46.1738 29.6084H51.6533L51.7227 29.7471L53.0928 32.4795L54.4551 35.2119L54.6357 35.5732H46.1738V29.6084ZM33.4922 50.5371C32.6155 52.479 30.1353 52.9592 28.6377 51.4619C27.0373 49.8615 27.7198 47.2608 29.833 46.5439L30.042 46.4805C30.2956 46.4117 30.4727 46.3683 30.6621 46.3643C30.8494 46.3603 31.0372 46.3957 31.3105 46.4512H31.3125C32.2569 46.6496 33.0858 47.3092 33.4834 48.1895L33.4844 48.1914C33.6322 48.5265 33.7028 48.9529 33.7051 49.3652C33.7074 49.7772 33.6424 50.2039 33.4932 50.5371H33.4922ZM52.0156 51.416C50.8259 52.6426 49.0192 52.6617 47.8018 51.4727L47.8008 51.4707C46.8532 50.5323 46.6191 49.3181 47.1689 48.1426C47.8825 46.615 49.5131 46.007 51.0439 46.6641L51.1914 46.7314C52.976 47.5954 53.3921 50.0016 52.0156 51.416Z" fill="#222222" stroke="#F0F0F0" stroke-width="0.5"/>
<path d="M25.9844 32.4727C29.5147 32.4727 31.1698 32.4791 32.001 32.416C32.4215 32.3841 32.5874 32.3355 32.6719 32.2881C32.7506 32.2437 32.7686 32.2023 32.8994 32.0322C33.358 31.4146 33.082 30.4732 32.3438 30.1914C32.3419 30.1911 32.3395 30.1899 32.3369 30.1895C32.3189 30.1867 32.2918 30.1841 32.2539 30.1807C32.1779 30.1738 32.0697 30.1672 31.9277 30.1611C31.6444 30.1491 31.2366 30.1394 30.7012 30.1318C29.6307 30.1167 28.0572 30.1104 25.9668 30.1104C23.0249 30.1104 21.4699 30.1122 20.6074 30.1338C19.734 30.1557 19.6113 30.1988 19.4961 30.252H19.4951C19.0897 30.4373 18.8608 30.8385 18.8379 31.2627C18.8151 31.6865 18.9998 32.099 19.3838 32.3135H19.3848L19.666 32.4727H25.9844Z" fill="#222222" stroke="#F0F0F0" stroke-width="0.5"/>
<path d="M23.6973 37.9805C26.9265 37.9805 28.5461 37.9807 29.3896 37.958C29.8146 37.9466 30.0261 37.9298 30.1436 37.9082C30.1988 37.898 30.2242 37.8875 30.2363 37.8818C30.2481 37.8762 30.2582 37.8703 30.2871 37.8486L30.2891 37.8467C30.3682 37.7886 30.4929 37.665 30.5869 37.5488L30.668 37.4375L30.6738 37.4297C30.7517 37.3168 30.7807 37.2525 30.7959 37.1807C30.8132 37.0987 30.8167 36.9871 30.8037 36.7705V36.7695C30.7878 36.4882 30.7292 36.2835 30.6387 36.1309C30.55 35.9815 30.4204 35.8663 30.2334 35.7764C30.2064 35.7641 30.1461 35.743 29.9678 35.7256C29.7864 35.7079 29.5042 35.6953 29.0449 35.6855C28.1276 35.6661 26.5303 35.6611 23.6797 35.6611C20.8375 35.6611 19.2422 35.666 18.3262 35.6865C17.8674 35.6968 17.5862 35.7107 17.4062 35.7295C17.2237 35.7485 17.1697 35.7707 17.1494 35.7812L17.1445 35.7832L17.0186 35.8555C16.9025 35.9325 16.8156 36.0253 16.751 36.1367C16.6849 36.2508 16.6361 36.3936 16.6094 36.5752L16.5898 36.7705C16.5768 36.9871 16.5804 37.0987 16.5977 37.1807C16.6129 37.2525 16.6411 37.317 16.7188 37.4297L16.7197 37.4287L16.7256 37.4375C16.8125 37.5751 16.9989 37.7693 17.1045 37.8467L17.1064 37.8486C17.1353 37.8703 17.1454 37.8762 17.1572 37.8818C17.1694 37.8875 17.1948 37.898 17.25 37.9082C17.3674 37.9298 17.579 37.9466 18.0039 37.958C18.8475 37.9807 20.4678 37.9805 23.6973 37.9805Z" fill="#222222" stroke="#F0F0F0" stroke-width="0.5"/>
<path d="M23.2012 43.4883C24.9787 43.4883 25.8818 43.4864 26.3818 43.4629C26.6321 43.4511 26.7666 43.434 26.8535 43.4141C26.8923 43.4051 26.9226 43.3952 26.9521 43.3828L27.0469 43.3359C27.7451 42.9416 27.8148 41.8825 27.1367 41.3701L27.1328 41.3672L26.8779 41.1689L23.3564 41.1514H23.3555C21.6654 41.1383 20.7635 41.1341 20.2422 41.1523C19.7251 41.1704 19.6184 41.2105 19.5 41.2666L19.4961 41.2686L19.3359 41.3516C19.1909 41.4396 19.0898 41.5412 19.0195 41.6582C18.9244 41.8165 18.8711 42.0278 18.8711 42.3242C18.8711 42.6054 18.9067 42.7769 18.9785 42.9111C19.0504 43.0456 19.1744 43.1719 19.4111 43.3311L19.415 43.334C19.4829 43.3812 19.5088 43.3981 19.5645 43.4141C19.6331 43.4337 19.7503 43.4516 19.9932 43.4639C20.4773 43.4884 21.3793 43.4883 23.2012 43.4883Z" fill="#222222" stroke="#F0F0F0" stroke-width="0.5"/>
</svg>
