<svg width="78" height="78" viewBox="0 0 78 78" fill="none" xmlns="http://www.w3.org/2000/svg">
<rect width="78" height="78" rx="39" fill="#F0F0F0"/>
<path d="M38.668 55.9004C38.818 55.9004 38.9357 55.8886 40.0273 55.3311C41.1104 54.7779 43.1363 53.6975 47.0879 51.5889C49.3157 50.4003 51.3578 49.3046 52.8525 48.4971C53.5998 48.0933 54.2102 47.7616 54.6387 47.5264C54.8529 47.4088 55.0214 47.3152 55.1387 47.249C55.1972 47.216 55.2426 47.1897 55.2744 47.1709C55.2901 47.1617 55.3023 47.1546 55.3105 47.1494C55.322 47.1422 55.3198 47.1426 55.3145 47.1475C55.3653 47.1008 55.4268 47.0176 55.4688 46.9443L55.5029 46.876C55.5036 46.8719 55.5036 46.8646 55.5049 46.8535C55.5076 46.8304 55.5109 46.7972 55.5137 46.7539C55.5191 46.6676 55.5238 46.5438 55.5283 46.3799C55.5374 46.0514 55.5448 45.5649 55.5498 44.9043C55.5598 43.5834 55.5613 41.5669 55.5547 38.7217L55.5352 30.7422L55.333 30.5459C55.333 30.5459 55.3322 30.5447 55.3301 30.543C55.3279 30.5412 55.3251 30.5389 55.3213 30.5361C55.3135 30.5304 55.3026 30.5235 55.2891 30.5146C55.262 30.4969 55.2252 30.4734 55.1777 30.4453C55.0829 30.3891 54.9489 30.3137 54.7744 30.2178C54.4254 30.0259 53.9161 29.7544 53.2373 29.3984C51.8798 28.6865 49.8445 27.6372 47.0557 26.2129C43.1474 24.2173 41.1263 23.1868 40.0391 22.6553C38.9453 22.1205 38.8129 22.1007 38.6689 22.1006C38.5966 22.102 38.5187 22.1107 38.3213 22.1875C38.1201 22.2658 37.8017 22.4114 37.25 22.6816C36.1478 23.2216 34.125 24.2542 30.2666 26.2266C28.0455 27.362 26.0102 28.409 24.5205 29.1816C23.7756 29.568 23.1673 29.8858 22.7402 30.1113C22.5269 30.224 22.3591 30.3134 22.2422 30.377C22.1837 30.4088 22.1381 30.4341 22.1064 30.4521C22.0906 30.4612 22.0784 30.4686 22.0703 30.4736C22.0592 30.4805 22.0616 30.4789 22.0674 30.4736V30.4746L21.96 30.5703C21.9341 30.5979 21.9159 30.6285 21.8975 30.6826C21.8556 30.8055 21.8247 31.0359 21.8047 31.54C21.765 32.5419 21.7676 34.5729 21.7676 38.8477C21.7676 42.7323 21.7697 44.7216 21.7871 45.7656C21.7958 46.2886 21.8084 46.5712 21.8262 46.7344C21.835 46.8153 21.8449 46.8629 21.8545 46.8945C21.8634 46.9238 21.8728 46.9417 21.8857 46.9629L21.8887 46.9668C21.9174 47.0185 21.96 47.0777 22.0068 47.1299C22.0545 47.183 22.1004 47.2228 22.1318 47.2422C22.1318 47.2422 22.1332 47.2427 22.1357 47.2441C22.1384 47.2457 22.1419 47.2484 22.1465 47.251C22.1558 47.2562 22.1692 47.2626 22.1855 47.2715C22.2181 47.2893 22.2636 47.3149 22.3223 47.3467C22.4396 47.4102 22.6082 47.5006 22.8213 47.6152C23.2473 47.8444 23.8533 48.1694 24.5947 48.5664C26.078 49.3607 28.1032 50.4434 30.3145 51.6221C34.233 53.7142 36.2426 54.786 37.3174 55.335C38.4004 55.8882 38.5179 55.9004 38.668 55.9004ZM46.3262 34.2754L39.4932 30.8555L32.6533 27.4414L32.4766 27.3535L32.6523 27.2637L35.6211 25.749C36.4379 25.334 37.1851 24.9555 37.7314 24.6807C38.0046 24.5433 38.2281 24.4318 38.3848 24.3545C38.4629 24.3159 38.5249 24.2853 38.5684 24.2646C38.5898 24.2545 38.6071 24.246 38.6201 24.2402C38.6264 24.2374 38.6332 24.2355 38.6387 24.2334C38.6413 24.2324 38.6453 24.2308 38.6494 24.2295C38.6514 24.2289 38.6544 24.2274 38.6582 24.2266C38.6609 24.226 38.6703 24.2246 38.6816 24.2246C38.6937 24.2246 38.703 24.227 38.7051 24.2275C38.7088 24.2284 38.7122 24.2289 38.7139 24.2295C38.7171 24.2306 38.7199 24.2317 38.7217 24.2324C38.7254 24.2339 38.7297 24.2356 38.7334 24.2373C38.7411 24.2408 38.7513 24.246 38.7637 24.252C38.7888 24.264 38.8257 24.2817 38.8721 24.3047C38.9649 24.3507 39.1 24.418 39.2725 24.5049C39.6178 24.6789 40.1141 24.9307 40.7246 25.2412C41.9457 25.8621 43.624 26.7191 45.4668 27.6621C47.3062 28.6017 48.9813 29.4599 50.1982 30.085C50.8065 30.3974 51.3009 30.6512 51.6436 30.8281C51.8149 30.9166 51.9488 30.9867 52.04 31.0342C52.0855 31.0578 52.1205 31.0762 52.1445 31.0889C52.1564 31.0951 52.1661 31.0998 52.1729 31.1035C52.1759 31.1052 52.1791 31.107 52.1816 31.1084C52.1829 31.1091 52.1856 31.1101 52.1875 31.1113C52.1884 31.1119 52.1897 31.1131 52.1914 31.1143C52.1916 31.1144 52.1989 31.1198 52.2061 31.127L52.2041 31.1289C52.2189 31.1438 52.233 31.1625 52.2354 31.1885C52.2381 31.2187 52.2256 31.2402 52.2217 31.2471C52.213 31.2622 52.2027 31.2721 52.2012 31.2734C52.1947 31.2793 52.1877 31.284 52.1846 31.2861C52.1769 31.2913 52.167 31.2974 52.1562 31.3037C52.1335 31.3172 52.0991 31.336 52.0566 31.3594C51.9715 31.4062 51.8478 31.4734 51.6943 31.5547C51.3868 31.7176 50.9591 31.9401 50.4873 32.1826C49.5437 32.6677 48.2432 33.3316 47.5996 33.6699H47.5986L46.417 34.2744L46.3721 34.2979L46.3262 34.2754ZM38.6221 38.2061L31.9355 34.7861C30.0929 33.8465 28.4145 32.9881 27.1934 32.3613C26.583 32.048 26.0866 31.7921 25.7412 31.6133C25.5686 31.5239 25.4327 31.4541 25.3398 31.4053C25.2935 31.3809 25.2575 31.3612 25.2324 31.3477C25.22 31.3409 25.2097 31.3354 25.2021 31.3311C25.1985 31.329 25.1947 31.3263 25.1914 31.3242C25.1898 31.3233 25.1878 31.3219 25.1855 31.3203C25.1853 31.3201 25.1831 31.3193 25.1807 31.3174C25.1651 31.3057 25.1514 31.2881 25.1445 31.2656C25.1382 31.2445 25.1397 31.2254 25.1426 31.2129C25.1478 31.1913 25.1594 31.1766 25.1631 31.1719C25.1718 31.1609 25.1819 31.1521 25.1865 31.1484C25.1978 31.1394 25.2127 31.1293 25.2285 31.1191C25.2616 31.0979 25.3111 31.0687 25.373 31.0332C25.4974 30.9619 25.6795 30.8618 25.9053 30.7402C26.3576 30.4966 26.9879 30.1654 27.6855 29.8066L30.2217 28.5049L30.2666 28.4824L30.3125 28.5049L37.1523 31.9248L43.9922 35.3379L44.1689 35.4258L43.9932 35.5166L43.4082 35.8154L43.4072 35.8164L40.7725 37.1562L38.7139 38.2061L38.668 38.2295L38.6221 38.2061ZM37.4912 53.1797L37.0137 52.9199H37.0127C36.7468 52.7737 33.6538 51.1275 30.1406 49.248L23.7461 45.8418L23.6934 45.8135V39.3848C23.6934 37.6351 23.6963 36.0447 23.7021 34.8916C23.7051 34.3152 23.7088 33.8478 23.7129 33.5244C23.7149 33.3628 23.7165 33.2362 23.7188 33.1504C23.7199 33.1077 23.7214 33.074 23.7227 33.0508C23.7233 33.0395 23.7237 33.0288 23.7246 33.0205C23.725 33.0168 23.7261 33.0106 23.7275 33.0039C23.7281 33.0013 23.7301 32.993 23.7344 32.9834C23.7363 32.979 23.7412 32.9681 23.751 32.957C23.7604 32.9464 23.7858 32.9239 23.8262 32.9238C23.8404 32.9238 23.8519 32.9263 23.8535 32.9268C23.857 32.9277 23.8599 32.9292 23.8613 32.9297C23.8642 32.9307 23.8666 32.932 23.8682 32.9326C23.8715 32.934 23.8754 32.9359 23.8789 32.9375C23.8863 32.9409 23.8967 32.9461 23.9092 32.9521C23.9342 32.9644 23.9709 32.9816 24.0176 33.0049C24.1114 33.0518 24.2484 33.1212 24.4238 33.21C24.775 33.3876 25.2809 33.6449 25.9033 33.9619C27.1485 34.5961 28.8625 35.4707 30.7451 36.4336L37.585 39.9336L37.6387 39.9619V53.2598L37.4912 53.1797ZM53.6426 45.8135L53.5898 45.8418L52.7803 46.2734C50.5227 47.4819 40.2612 52.9537 40.0635 53.0596L40.0615 53.0605L39.8428 53.1738L39.6973 53.249V39.9688L39.751 39.9404L42.5 38.5264L42.501 38.5254C43.2579 38.1403 43.9505 37.7889 44.4561 37.5332C44.7088 37.4054 44.9152 37.3014 45.0596 37.2295C45.1317 37.1936 45.1888 37.1647 45.2285 37.1455C45.248 37.1361 45.2638 37.1283 45.2754 37.123C45.2811 37.1204 45.2872 37.1182 45.292 37.1162L45.3096 37.1104C45.3114 37.1099 45.3219 37.1075 45.335 37.1074C45.3751 37.1074 45.4006 37.13 45.4102 37.1406C45.4201 37.1517 45.4257 37.1624 45.4277 37.167C45.4322 37.1769 45.4338 37.1862 45.4346 37.1895C45.4364 37.1975 45.4378 37.2057 45.4385 37.2119C45.44 37.2256 45.4411 37.2441 45.4424 37.2656C45.4449 37.3093 45.4479 37.3728 45.4502 37.4531C45.4549 37.6142 45.4592 37.8467 45.4629 38.1328C45.4704 38.7053 45.4746 39.4944 45.4746 40.3613C45.4746 41.8699 45.4768 42.6614 45.4941 43.1055C45.5114 43.548 45.5445 43.6287 45.5967 43.7275V43.7295C45.9153 44.3608 46.8443 44.4043 47.3135 43.7686V43.7676C47.3426 43.7288 47.361 43.7027 47.377 43.6299C47.3948 43.5488 47.408 43.4142 47.418 43.1611C47.4378 42.6569 47.4432 41.7097 47.4531 39.8428L47.4727 36.0439L47.4736 35.9834L47.5273 35.9561L50.4629 34.4482C51.2697 34.0332 52.0084 33.656 52.5498 33.3828C52.8203 33.2463 53.0421 33.1363 53.1982 33.0596C53.2762 33.0213 53.3389 32.9912 53.3828 32.9707C53.4044 32.9606 53.4221 32.9521 53.4355 32.9463C53.4421 32.9435 53.4491 32.9407 53.4551 32.9385C53.458 32.9374 53.4623 32.9359 53.4668 32.9346C53.4675 32.9344 53.4696 32.9343 53.4727 32.9336V32.9326C53.4745 32.9322 53.4767 32.933 53.4785 32.9326C53.4834 32.9318 53.4894 32.9297 53.4961 32.9297V32.9326C53.546 32.9316 53.5742 32.9666 53.5791 32.9736C53.5875 32.9858 53.5915 32.9971 53.5928 33.001C53.5956 33.0099 53.5971 33.0186 53.5977 33.0225C53.5991 33.0318 53.6007 33.0434 53.6016 33.0547C53.6033 33.0781 53.6049 33.112 53.6064 33.1543C53.6096 33.2397 53.6124 33.3654 53.6152 33.5264C53.6208 33.8489 53.6257 34.3156 53.6299 34.8916C53.6382 36.044 53.6426 37.635 53.6426 39.3848V45.8135Z" fill="#222222" stroke="#F0F0F0" stroke-width="0.2"/>
</svg>
