<svg width="78" height="78" viewBox="0 0 78 78" fill="none" xmlns="http://www.w3.org/2000/svg">
<rect width="78" height="78" rx="39" fill="#222222"/>
<path d="M25.4834 21.6026C25.3324 21.6832 25.1611 21.8342 25.1007 21.945C25.0302 22.0659 25 27.9173 25 39.7711V57.4159L25.2921 57.7079C25.5438 57.9496 25.6748 58 26.0776 58C26.5006 58 26.6215 57.9496 26.8732 57.6878L27.1653 57.3857L27.2157 49.9128L27.266 42.45L27.8401 42.1278C29.4414 41.2213 31.083 40.8286 32.9059 40.9091C34.9403 40.9998 36.4409 41.5336 38.3444 42.8327C40.6708 44.424 42.8059 45.1088 45.4345 45.1088C47.8516 45.1088 50.0773 44.4441 52.0513 43.1349C53.0886 42.45 52.998 43.3867 52.998 33.2953C52.998 23.5564 53.0282 24.0398 52.3736 23.6974C51.9204 23.4658 51.5377 23.5665 50.6514 24.1406C49.0601 25.1779 47.3178 25.7016 45.4446 25.6915C43.2591 25.6915 41.8592 25.2282 39.5932 23.7478C38.0322 22.7306 37.1257 22.2975 35.746 21.9047C33.2383 21.1796 30.3881 21.3408 27.9408 22.3277L27.2358 22.6198L27.1754 22.3277C27.1452 22.1666 26.984 21.8947 26.8229 21.7335C26.4805 21.4012 25.9467 21.3408 25.4834 21.6026ZM34.7187 23.9492C35.9373 24.2513 36.9042 24.6945 38.3142 25.6311C40.8219 27.3029 42.7354 27.9173 45.4446 27.9173C47.2876 27.9273 48.6976 27.6252 50.6111 26.8296C50.7723 26.7591 50.7823 27.1317 50.7622 34.0406L50.732 41.3221L49.8256 41.8055C49.3321 42.0573 48.5163 42.3997 48.0127 42.5507C47.1869 42.8025 46.9553 42.8227 45.4949 42.8327C43.0174 42.8428 41.8592 42.4601 39.5026 40.8789C37.0452 39.2272 34.8597 38.5928 31.9995 38.6935C30.3881 38.7539 29.24 38.9855 27.9509 39.5092C27.5984 39.6603 27.2962 39.7711 27.266 39.7711C27.2358 39.7711 27.2157 36.508 27.2157 32.5198V25.2786L27.8602 24.916C29.9349 23.7579 32.4527 23.4054 34.7187 23.9492Z" fill="white"/>
</svg>
