<svg width="78" height="78" viewBox="0 0 78 78" fill="none" xmlns="http://www.w3.org/2000/svg">
<rect width="78" height="78" rx="39" fill="#222222"/>
<path d="M49.6074 54.7393C50.5753 54.7971 51.374 54.6263 52.292 54.1758V54.1748C52.8778 53.8839 53.462 53.4116 53.9434 52.8633C54.4254 52.3142 54.7911 51.704 54.9561 51.1455L55.1113 50.6006H57.4688C58.4699 50.6006 59.0108 50.5964 59.3428 50.5732C59.5809 50.5567 59.6985 50.532 59.7979 50.4941L59.8945 50.4512C60.0772 50.3587 60.236 50.2117 60.3301 50.0439L60.3311 50.043C60.3746 49.9657 60.3952 49.9272 60.4141 49.8379C60.436 49.7341 60.4539 49.5637 60.4658 49.2314C60.4895 48.5703 60.4893 47.3321 60.4893 44.8486V39.9434L60.2793 39.6172C60.1461 39.4175 59.5105 38.5669 58.8594 37.7334V37.7324L57.6797 36.2148L57.6641 36.1953L57.6533 36.1738L55.4844 31.8711C54.8906 30.6922 54.3323 29.6021 53.9102 28.7969C53.6991 28.3943 53.5227 28.0638 53.3936 27.8291C53.3289 27.7116 53.2764 27.6199 53.2383 27.5557C53.2191 27.5233 53.2044 27.4995 53.1943 27.4844L53.1924 27.4834C53.1109 27.4103 53.0457 27.3621 52.9541 27.3252C52.8519 27.2841 52.7041 27.2501 52.4531 27.2246C51.9459 27.1731 51.0893 27.1635 49.4873 27.1592H46.1758V26.0068C46.1758 25.5162 46.148 25.2446 46.0742 25.0518C46.0066 24.8752 45.8918 24.743 45.6445 24.5605L45.6426 24.5596L45.4658 24.4268L33.4746 24.4014L21.458 24.3848L21.1475 24.5391L21.1455 24.54C20.5688 24.8251 20.3418 25.5217 20.6406 26.0908L20.6416 26.0918C20.6894 26.1837 20.7576 26.2879 20.8301 26.3799C20.9052 26.4753 20.9718 26.5415 21.0098 26.5693L21.0117 26.5703C21.037 26.5893 21.0416 26.5921 21.0537 26.5967C21.0732 26.604 21.1165 26.6159 21.2148 26.6279C21.4137 26.6521 21.7804 26.6705 22.5029 26.6836C23.2222 26.6966 24.2832 26.7044 25.8633 26.7109L32.3389 26.7285L43.5635 26.7461H43.8125L43.8135 26.9951L43.8311 32.1387L43.8555 37.207L44.0469 37.4512L44.0479 37.4521C44.1861 37.6314 44.2159 37.6882 44.2988 37.7402C44.3782 37.79 44.5254 37.8399 44.8965 37.874C45.6363 37.942 47.093 37.9365 50.2168 37.9365H55.96L56.0352 38.0322L57.0586 39.3418L57.0596 39.3428L58.0742 40.6523L58.127 40.7207V48.252L57.8711 48.2471L56.6055 48.2207L55.3389 48.1953L55.167 48.1914L55.1084 48.0303L54.918 47.502C54.6649 46.8152 54.3975 46.3736 53.8721 45.8057L53.6299 45.5527C51.5415 43.466 48.1709 43.4665 46.083 45.5625L46.0811 45.5645C45.5188 46.1194 45.0829 46.7789 44.8408 47.415L44.749 47.6865L44.6455 48.0557L44.5947 48.2383H36.042L35.9863 48.0645L35.8389 47.6055V47.6045C35.6773 47.0997 35.3461 46.528 34.9258 46.0068C34.5057 45.486 34.0092 45.032 33.5303 44.752L33.5293 44.751C32.0545 43.8739 30.2793 43.7589 28.6504 44.4268L28.3262 44.5703C27.7425 44.852 27.153 45.3276 26.6641 45.8877C26.1745 46.4485 25.7993 47.0786 25.6299 47.6592L25.5254 48.0156L25.4746 48.1914L25.291 48.1953L23.2178 48.2383C22.2053 48.2601 21.6985 48.2736 21.4072 48.3047C21.265 48.3199 21.1904 48.3376 21.1406 48.3564C21.0941 48.374 21.0582 48.3965 20.9922 48.4424C20.8723 48.5299 20.7421 48.6897 20.6406 48.8838C20.5646 49.0292 20.5136 49.1771 20.4912 49.3047L20.4785 49.4248C20.4799 49.5816 20.5456 49.7884 20.665 49.9883C20.7855 50.1898 20.9415 50.3517 21.0869 50.4326L21.0908 50.4355C21.1685 50.4805 21.2194 50.5051 21.2803 50.5244C21.3427 50.5442 21.4273 50.5611 21.5723 50.5732C21.8692 50.5982 22.3653 50.6006 23.334 50.6006C24.2404 50.6006 24.7549 50.6055 25.042 50.627C25.1779 50.6371 25.2976 50.6522 25.3867 50.6904C25.4367 50.7119 25.4977 50.7492 25.542 50.8145C25.5876 50.8818 25.5966 50.9507 25.5967 50.998C25.5966 50.9765 25.5928 50.9674 25.5967 50.9834C25.5993 50.9943 25.6046 51.0115 25.6123 51.0352C25.6277 51.0825 25.651 51.1464 25.6816 51.2227C25.743 51.3755 25.829 51.5691 25.9258 51.7627L25.9277 51.7656C26.6131 53.186 28.0742 54.3169 29.6484 54.6484C30.9037 54.9127 32.4441 54.6473 33.5703 53.96L33.5713 53.959C34.5284 53.3813 35.3852 52.3421 35.7822 51.292L35.9717 50.7666L36.0312 50.6006H44.5791L44.6396 50.7646L44.8301 51.2852V51.2861C44.9377 51.581 45.1587 51.9849 45.416 52.374C45.6734 52.7633 45.952 53.1139 46.168 53.3105C47.1237 54.1665 48.3017 54.6644 49.6064 54.7393H49.6074ZM46.1758 29.6084H51.6553L51.7246 29.7471L53.0947 32.4795L54.457 35.2119L54.6377 35.5732H46.1758V29.6084ZM33.4941 50.5371C32.6174 52.479 30.1372 52.9592 28.6396 51.4619C27.0392 49.8615 27.7218 47.2608 29.835 46.5439L30.0439 46.4805C30.2976 46.4117 30.4746 46.3683 30.6641 46.3643C30.8514 46.3603 31.0392 46.3957 31.3125 46.4512H31.3145C32.2588 46.6496 33.0878 47.3092 33.4854 48.1895L33.4863 48.1914C33.6341 48.5265 33.7047 48.9529 33.707 49.3652C33.7093 49.7772 33.6443 50.2039 33.4951 50.5371H33.4941ZM52.0176 51.416C50.8278 52.6426 49.0211 52.6617 47.8037 51.4727L47.8027 51.4707C46.8551 50.5323 46.621 49.3181 47.1709 48.1426C47.8844 46.615 49.5151 46.007 51.0459 46.6641L51.1934 46.7314C52.9779 47.5954 53.394 50.0016 52.0176 51.416Z" fill="white" stroke="#222222" stroke-width="0.5"/>
<path d="M25.9883 32.4727C29.5186 32.4727 31.1737 32.4791 32.0049 32.416C32.4254 32.3841 32.5913 32.3355 32.6758 32.2881C32.7545 32.2437 32.7725 32.2023 32.9033 32.0322C33.3619 31.4146 33.0859 30.4732 32.3477 30.1914C32.3458 30.1911 32.3434 30.1899 32.3408 30.1895C32.3228 30.1867 32.2957 30.1841 32.2578 30.1807C32.1818 30.1738 32.0736 30.1672 31.9316 30.1611C31.6483 30.1491 31.2405 30.1394 30.7051 30.1318C29.6346 30.1167 28.0612 30.1104 25.9707 30.1104C23.0288 30.1104 21.4738 30.1122 20.6113 30.1338C19.7379 30.1557 19.6152 30.1988 19.5 30.252H19.499C19.0937 30.4373 18.8647 30.8385 18.8418 31.2627C18.819 31.6865 19.0037 32.099 19.3877 32.3135H19.3887L19.6699 32.4727H25.9883Z" fill="white" stroke="#222222" stroke-width="0.5"/>
<path d="M23.6992 37.9805C26.9284 37.9805 28.548 37.9807 29.3916 37.958C29.8165 37.9466 30.0281 37.9298 30.1455 37.9082C30.2007 37.898 30.2261 37.8875 30.2383 37.8818C30.2501 37.8762 30.2602 37.8703 30.2891 37.8486L30.291 37.8467C30.3702 37.7886 30.4948 37.665 30.5889 37.5488L30.6699 37.4375L30.6758 37.4297C30.7536 37.3168 30.7826 37.2525 30.7979 37.1807C30.8151 37.0987 30.8187 36.9871 30.8057 36.7705V36.7695C30.7898 36.4882 30.7312 36.2835 30.6406 36.1309C30.552 35.9815 30.4223 35.8663 30.2354 35.7764C30.2083 35.7641 30.1481 35.743 29.9697 35.7256C29.7884 35.7079 29.5062 35.6953 29.0469 35.6855C28.1296 35.6661 26.5322 35.6611 23.6816 35.6611C20.8395 35.6611 19.2442 35.666 18.3281 35.6865C17.8694 35.6968 17.5881 35.7107 17.4082 35.7295C17.2257 35.7485 17.1717 35.7707 17.1514 35.7812L17.1465 35.7832L17.0205 35.8555C16.9044 35.9325 16.8176 36.0253 16.7529 36.1367C16.6868 36.2508 16.6381 36.3936 16.6113 36.5752L16.5918 36.7705C16.5788 36.9871 16.5823 37.0987 16.5996 37.1807C16.6148 37.2525 16.643 37.317 16.7207 37.4297L16.7217 37.4287L16.7275 37.4375C16.8145 37.5751 17.0009 37.7693 17.1064 37.8467L17.1084 37.8486C17.1373 37.8703 17.1474 37.8762 17.1592 37.8818C17.1713 37.8875 17.1967 37.898 17.252 37.9082C17.3694 37.9298 17.5809 37.9466 18.0059 37.958C18.8495 37.9807 20.4697 37.9805 23.6992 37.9805Z" fill="white" stroke="#222222" stroke-width="0.5"/>
<path d="M23.2031 43.4883C24.9806 43.4883 25.8838 43.4864 26.3838 43.4629C26.634 43.4511 26.7686 43.434 26.8555 43.4141C26.8943 43.4051 26.9245 43.3952 26.9541 43.3828L27.0488 43.3359C27.747 42.9416 27.8168 41.8825 27.1387 41.3701L27.1348 41.3672L26.8799 41.1689L23.3584 41.1514H23.3574C21.6674 41.1383 20.7655 41.1341 20.2441 41.1523C19.727 41.1704 19.6203 41.2105 19.502 41.2666L19.498 41.2686L19.3379 41.3516C19.1929 41.4396 19.0918 41.5412 19.0215 41.6582C18.9264 41.8165 18.8731 42.0278 18.873 42.3242C18.873 42.6054 18.9087 42.7769 18.9805 42.9111C19.0524 43.0456 19.1764 43.1719 19.4131 43.3311L19.417 43.334C19.4848 43.3812 19.5108 43.3981 19.5664 43.4141C19.635 43.4337 19.7523 43.4516 19.9951 43.4639C20.4792 43.4884 21.3812 43.4883 23.2031 43.4883Z" fill="white" stroke="#222222" stroke-width="0.5"/>
</svg>
