<svg width="78" height="78" viewBox="0 0 78 78" fill="none" xmlns="http://www.w3.org/2000/svg">
<rect width="78" height="78" rx="39" fill="#222222"/>
<g clip-path="url(#clip0_4914_110751)">
<path d="M41.6699 27.1695C41.566 27.1918 38.3152 27.7781 34.4336 28.4684C30.5594 29.1586 27.3086 29.7375 27.227 29.7598C27.0934 29.7895 27.034 29.7301 26.8707 29.3887C26.6184 28.884 26.0469 28.3645 25.5422 28.1863C24.9707 27.9859 22.1504 27.9859 21.5715 28.1863C21.052 28.3719 20.4434 28.9359 20.2133 29.4406L20.0352 29.834V35.5859V41.3379L20.243 41.7609C20.4656 42.2211 20.859 42.6145 21.3488 42.8742C21.6531 43.0375 21.757 43.0449 23.3824 43.0672C24.4586 43.082 25.2156 43.0598 25.4012 43.0152C26.0766 42.8297 26.8039 42.132 26.982 41.5012C27.034 41.3305 27.0934 41.1672 27.123 41.1375C27.1453 41.1004 28.0359 41.4789 29.0898 41.9688L31.0195 42.8594L31.0566 46.2957L31.0938 49.7395L31.3164 50.0957C31.4797 50.3629 31.6504 50.5188 31.9398 50.6672L32.3332 50.875H44.468C53.8566 50.875 56.677 50.8527 56.9145 50.7859C57.3078 50.6672 57.7902 50.1848 57.909 49.7914C58.0352 49.3461 58.0352 35.7789 57.909 35.3336C57.7902 34.9402 57.3078 34.4578 56.9145 34.3391C56.7141 34.2797 56.0609 34.25 55.059 34.25L53.5078 34.2426L52.7656 32.9363C52.016 31.6078 51.5484 30.9992 50.9918 30.6207C50.5094 30.2867 44.4309 27.459 43.8965 27.3105C43.4215 27.1844 42.0484 27.0953 41.6699 27.1695ZM43.659 28.8988C43.8891 28.973 45.418 29.6633 47.0508 30.4352C50.4871 32.0605 50.45 32.0383 51.2219 33.3965L51.682 34.2129L43.518 34.25L35.3465 34.2871L35.1313 34.532C34.7676 34.9402 34.8195 35.1629 35.5543 36.2984C36.2742 37.4266 36.8309 37.9832 37.5359 38.3246C38.048 38.5695 38.4785 38.666 42.4492 39.3785C44.8613 39.8164 45.0543 39.8609 45.2844 40.0613C45.5961 40.3359 45.7074 40.6848 45.6035 41.0707C45.5219 41.375 45.1953 41.7164 44.9133 41.7832C44.8242 41.8055 42.0633 41.8129 38.7754 41.8055C32.8898 41.7832 32.7934 41.7758 32.2813 41.6199C31.9992 41.5309 30.7301 40.9816 29.4609 40.3953L27.1602 39.3266L27.1379 35.3559L27.123 31.3852L29.6984 30.925C31.1234 30.6727 34.4039 30.0863 37.0016 29.6187C39.5992 29.1512 41.8258 28.7504 41.9371 28.7355C42.3082 28.6688 43.2211 28.7578 43.659 28.8988ZM25.1859 29.7672C25.5645 30.0344 25.5645 29.9973 25.5645 35.5859C25.5645 41.2859 25.5719 41.1746 25.1266 41.4047C24.8 41.5754 22.3211 41.5754 21.9945 41.4047C21.5492 41.1746 21.5566 41.2859 21.5566 35.5859C21.5566 29.9973 21.5566 30.0344 21.9352 29.7672C22.0836 29.6707 22.3359 29.6484 23.5605 29.6484C24.7852 29.6484 25.0375 29.6707 25.1859 29.7672ZM56.4023 42.5625V49.2793L44.5496 49.3016L32.6895 49.3164V46.3031V43.2898L32.8602 43.3344C32.9492 43.3566 33.298 43.3789 33.632 43.3789H34.2406L34.2629 44.4625L34.2852 45.5461L34.5301 45.7613C34.6859 45.8949 34.8492 45.9766 34.9977 45.9766C35.5023 45.9766 35.8512 46.3031 35.9551 46.8746C36.007 47.1715 36.0887 47.3273 36.252 47.4758C36.4746 47.6836 36.4895 47.6836 37.4469 47.6836C38.5082 47.6836 38.7531 47.6168 38.909 47.2754C39.0723 46.9266 39.0203 46.652 38.7457 46.3773C38.5082 46.1398 38.4637 46.125 37.9664 46.125H37.4395L37.2613 45.7688C37.0535 45.3605 36.5488 44.8707 36.1109 44.6406L35.7992 44.4848L35.8215 43.9504L35.8438 43.416L37.4469 43.3938L39.05 43.3789L39.1688 43.8762C39.3543 44.6332 39.9035 45.6648 40.423 46.2363C41.5512 47.4684 42.9242 48.077 44.5645 48.077C47.6148 48.077 50.0566 45.6277 50.0566 42.5625C50.0566 39.5047 47.6 37.0406 44.5645 37.048C43.7035 37.048 42.9984 37.1891 42.3305 37.4859L41.9074 37.6789L40.2523 37.3746C39.3469 37.2039 38.4637 37.0035 38.293 36.9293C37.9219 36.766 37.4543 36.3578 37.2688 36.0387L37.1352 35.8086L46.7688 35.8234L56.4023 35.8457V42.5625ZM47.3328 39.7941C48.0379 40.4992 48.498 41.5828 48.498 42.5625C48.498 43.8391 47.7855 45.1379 46.6871 45.8652C46.0785 46.2734 45.5219 46.4441 44.6758 46.4813C44.0152 46.5109 43.8668 46.4887 43.3547 46.318C42.6199 46.073 42.1078 45.7465 41.618 45.2047C41.2246 44.7742 40.8164 44.0469 40.7348 43.6164L40.6902 43.3789H42.9168C44.9949 43.3789 45.1805 43.3715 45.5664 43.223C46.1082 43.0227 46.7242 42.4512 46.9914 41.9094C47.1621 41.5457 47.1918 41.3898 47.1992 40.8184C47.1992 40.2469 47.1695 40.091 47.0063 39.757C46.9023 39.5492 46.8355 39.3711 46.8652 39.3711C46.8875 39.3711 47.1027 39.5566 47.3328 39.7941Z" fill="white" stroke="#222222" stroke-width="0.5"/>
<path d="M50.3619 37.6344C50.0799 37.8719 49.9982 38.2281 50.1615 38.5473C50.3322 38.8664 50.6291 39 51.1857 39H51.6607L51.7572 39.2746C51.8908 39.6309 52.6181 40.3582 52.9744 40.4918L53.249 40.5883V42.5625V44.5367L52.9744 44.6332C52.6181 44.7668 51.8908 45.4941 51.7572 45.8504L51.6607 46.125H51.1857C50.6291 46.125 50.3322 46.2586 50.1615 46.5777C49.9982 46.8969 50.0799 47.2531 50.3619 47.4906C50.5771 47.6762 50.6291 47.6836 51.5494 47.6836C52.8556 47.6836 52.9967 47.602 53.1377 46.7633C53.197 46.3848 53.5088 46.073 53.8873 46.0137C54.3623 45.932 54.5849 45.8207 54.6963 45.598C54.8595 45.2938 54.8595 39.8313 54.6963 39.527C54.5849 39.3043 54.3623 39.193 53.8873 39.1113C53.5088 39.052 53.197 38.7402 53.1377 38.3617C52.9967 37.523 52.8556 37.4414 51.5494 37.4414C50.6291 37.4414 50.5771 37.4488 50.3619 37.6344Z" fill="white" stroke="#222222" stroke-width="0.5"/>
</g>
<defs>
<clipPath id="clip0_4914_110751">
<rect width="38" height="38" fill="white" transform="translate(20 20)"/>
</clipPath>
</defs>
</svg>
