<svg width="34" height="30" viewBox="0 0 34 30" fill="none" xmlns="http://www.w3.org/2000/svg">
<path d="M32.0781 0.97443C31.9456 0.988386 31.6944 1.03025 31.5269 1.07211C31.3525 1.11398 26.8661 2.94204 21.5494 5.14687C16.2257 7.34473 9.54137 10.1078 6.68067 11.2869C3.81996 12.4661 1.32906 13.5127 1.13369 13.6104C0.945303 13.715 0.624345 13.9592 0.42898 14.1476C-0.101297 14.6709 -0.136184 15.1245 0.303388 15.6408C0.526663 15.8989 0.631323 15.9478 1.92213 16.3734C6.51321 17.8875 7.10629 18.048 8.35523 18.048C9.17855 18.048 9.35996 18.027 9.78558 17.8735C10.1763 17.734 11.516 16.8618 16.5955 13.4359C23.3774 8.85881 23.5937 8.71927 24.438 8.3076C25.045 8.01456 25.4706 7.97269 25.6102 8.18899C25.7009 8.33551 25.5404 8.79602 25.2404 9.24257C24.9055 9.74493 21.4517 13.1289 17.8444 16.485C14.7534 19.3527 14.8093 19.2899 14.8581 20.1202C14.9 20.8947 15.2 21.2157 17.2234 22.6949C18.7096 23.7833 25.045 27.9907 25.6939 28.3256C26.6149 28.8 27.2219 28.9884 27.9406 29.0233C28.4569 29.0582 28.6523 29.0373 28.9174 28.9396C29.4965 28.7163 29.8942 28.2558 30.1664 27.4813C30.2989 27.1045 32.8666 10.9939 33.676 5.46085C34.0946 2.6141 34.1016 2.09778 33.7318 1.53959C33.4666 1.14189 32.7829 0.911634 32.0781 0.97443Z" fill="white"/>
</svg>
