<svg width="24" height="25" viewBox="0 0 24 25" fill="none" xmlns="http://www.w3.org/2000/svg">
<g clip-path="url(#clip0_4724_86080)">
<path d="M11.6602 24.3867C13.3555 24.4286 14.6134 24.2374 16.0205 23.7266H16.0215C16.8257 23.438 17.0264 23.3119 17.1455 23.1094V23.1084C17.1979 23.0219 17.2213 22.9712 17.2324 22.918C17.2439 22.8629 17.2447 22.7969 17.2354 22.6758H17.2344C17.2232 22.5288 17.198 22.4274 17.1514 22.3457C17.1049 22.2643 17.0322 22.1927 16.9131 22.1133L16.9121 22.1123C16.7926 22.0298 16.6989 21.9935 16.5947 21.9883C16.4864 21.9829 16.3551 22.0106 16.1592 22.082H16.1602C14.3661 22.7412 13.5054 22.9131 12.0098 22.9131C10.7526 22.9131 9.88398 22.7755 8.71582 22.3877C5.68981 21.3836 3.30343 19.0602 2.21484 16.0762L2.11328 15.7852C1.73032 14.6221 1.58792 13.7489 1.58789 12.501C1.58789 11.2528 1.73028 10.379 2.11328 9.21582C3.14983 6.09221 5.59218 3.64976 8.71582 2.61328C9.87892 2.23032 10.752 2.08791 12 2.08789C13.248 2.08789 14.1212 2.23038 15.2842 2.61328H15.2852C19.1236 3.89124 21.873 7.27075 22.3652 11.3164C22.4277 11.8246 22.424 12.8886 22.3682 13.5508L22.3418 13.8076C22.1953 14.9155 21.9027 15.9169 21.5127 16.71C21.124 17.5002 20.6325 18.0951 20.0801 18.374C19.8247 18.5029 19.5912 18.5561 19.3887 18.5078C19.1811 18.4583 19.0291 18.3084 18.9268 18.084L18.8232 17.8633L18.8145 17.8438V17.8213L18.791 12.5713C18.7793 10.1921 18.7713 8.87688 18.7578 8.14062C18.7511 7.77213 18.7427 7.55053 18.7324 7.41406C18.7218 7.27293 18.7089 7.23761 18.7031 7.22656C18.4183 6.71567 17.6586 6.71413 17.3994 7.2041C17.3295 7.3358 17.3037 7.44976 17.3037 7.6582V8.19434L17.1348 8.03613L16.7266 7.65137C15.6436 6.63797 14.5224 6.07114 13.1084 5.82617L13.1074 5.8252C12.5883 5.73341 11.5353 5.71974 11.0068 5.79785C8.96316 6.10539 7.16681 7.33885 6.12402 9.13281L5.92578 9.49902L5.83594 9.69043C5.62365 10.1763 5.39691 10.9064 5.32031 11.3818V11.3828C5.2439 11.8499 5.22717 12.7217 5.27344 13.2773L5.29785 13.4941C5.73682 16.4361 8.06455 18.7595 11.0068 19.2031C11.271 19.2418 11.6773 19.2582 12.083 19.2529C12.4891 19.2477 12.8862 19.2211 13.1309 19.1758C14.5596 18.9122 15.6484 18.359 16.7266 17.3506V17.3496L17.1348 16.9658L17.3037 16.8066V17.4316C17.3037 18.2016 17.5866 18.9343 18.0479 19.3955C18.3568 19.7067 18.7008 19.9 19.0811 19.9805C19.462 20.0611 19.8863 20.0302 20.3564 19.8818C21.2287 19.606 22.0174 18.8668 22.6328 17.79C23.1707 16.8488 23.5726 15.6563 23.7783 14.3096L23.8535 13.7227C23.8949 13.3476 23.9046 12.7402 23.8877 12.1328C23.875 11.6771 23.8477 11.226 23.8086 10.8779L23.7656 10.5674C23.3238 7.99107 22.1335 5.72273 20.293 3.94727C18.4982 2.21776 16.4027 1.15855 13.9336 0.735352H13.9326C13.598 0.676722 13.3204 0.648967 12.7998 0.634766L12.1865 0.624023C11.8592 0.619348 11.54 0.61837 11.29 0.620117C11.0357 0.6219 10.8618 0.626883 10.8184 0.632812H10.8154C7.69548 0.967622 4.86918 2.45979 2.87988 4.83008V4.83105C1.48087 6.49509 0.611723 8.38148 0.225586 10.5957C0.138176 11.0972 0.12793 11.3383 0.12793 12.501C0.127937 13.9614 0.175133 14.3934 0.467773 15.5361C1.33211 18.882 3.79115 21.8346 6.93262 23.2939C8.49004 24.0192 9.89711 24.3448 11.6602 24.3867ZM12.5117 17.752C9.23328 18.0817 6.41941 15.2677 6.74902 11.9893C6.96878 9.82509 8.49258 8.0094 10.5986 7.41211C10.95 7.31103 11.3332 7.25389 11.9023 7.20215H11.9111C11.9546 7.20215 12.2275 7.22199 12.5029 7.25L12.502 7.25098C15.0147 7.50416 16.9977 9.48086 17.251 11.9893C17.5377 14.8665 15.4067 17.4605 12.5117 17.752Z" fill="black" fill-opacity="0.4" stroke="#F0F0F0" stroke-width="0.2"/>
</g>
<defs>
<clipPath id="clip0_4724_86080">
<rect width="24" height="24" fill="white" transform="translate(0 0.5)"/>
</clipPath>
</defs>
</svg>
