<svg width="24" height="25" viewBox="0 0 24 25" fill="none" xmlns="http://www.w3.org/2000/svg">
<g clip-path="url(#clip0_7030_6914)">
<path d="M10.8801 0.57461C8.31133 1.00586 6.16445 3.17148 5.74258 5.74961C5.65352 6.32148 5.65352 7.33398 5.74258 7.90586C6.16445 10.5074 8.3207 12.6637 10.9223 13.0855C11.4941 13.1746 12.5066 13.1746 13.0785 13.0855C15.6801 12.6637 17.8363 10.5074 18.2582 7.90586C18.3473 7.33398 18.3473 6.32148 18.2582 5.74961C17.8363 3.14805 15.6801 0.991797 13.0785 0.569922C12.5301 0.48086 11.4191 0.485548 10.8801 0.57461ZM12.5395 1.97149C13.477 2.04648 14.5316 2.52461 15.3145 3.23711C15.9426 3.80898 16.5098 4.75586 16.7441 5.60898C16.8379 5.95117 16.852 6.11992 16.852 6.82773C16.852 7.78398 16.777 8.14492 16.4254 8.88555C15.9285 9.93555 15.1316 10.7371 14.0863 11.2387C11.9348 12.2652 9.39883 11.5902 7.99258 9.6168C7.71133 9.22773 7.39258 8.53867 7.25664 8.04648C7.16289 7.69961 7.14883 7.54023 7.14883 6.82773C7.14883 5.87617 7.22383 5.51523 7.56602 4.78399C7.84258 4.20273 8.10508 3.82773 8.55039 3.37774C9.38008 2.55274 10.4441 2.05117 11.5691 1.95742C11.7941 1.93867 12.0285 1.9293 12.0941 1.93398C12.1598 1.94336 12.3613 1.95742 12.5395 1.97149Z" fill="black" fill-opacity="0.4" stroke="#F0F0F0" stroke-width="0.4"/>
<path d="M9.25781 14.6375C6.5625 15.0641 4.25156 16.6016 2.80313 18.9359C1.95938 20.2859 1.45312 22.0203 1.45312 23.5297C1.45312 24.1062 1.5 24.2375 1.7625 24.4109C1.89375 24.4953 2.18438 24.5 12 24.5C21.8156 24.5 22.1063 24.4953 22.2375 24.4109C22.5 24.2375 22.5469 24.1062 22.5469 23.5203C22.5469 21.2187 21.4734 18.7906 19.7016 17.0937C18.4031 15.8469 16.9594 15.0922 15.1125 14.6937C14.6766 14.6 14.4984 14.5953 12.1641 14.5812C10.1906 14.5719 9.59063 14.5812 9.25781 14.6375ZM13.8516 16.0156C16.2891 16.1844 18.4313 17.4219 19.8047 19.4609C20.0953 19.8969 20.5875 20.9141 20.7375 21.3922C20.85 21.7578 21 22.4516 21.0656 22.8969L21.0938 23.0938H12H2.90625L2.93438 22.8969C3 22.4516 3.15 21.7578 3.2625 21.3922C3.4125 20.9141 3.90469 19.8969 4.19531 19.4609C5.54531 17.4594 7.72031 16.1797 10.0547 16.0203C10.7906 15.9688 13.1344 15.9641 13.8516 16.0156Z" fill="black" fill-opacity="0.4" stroke="#F0F0F0" stroke-width="0.4"/>
</g>
<defs>
<clipPath id="clip0_7030_6914">
<rect width="24" height="24" fill="white" transform="translate(0 0.5)"/>
</clipPath>
</defs>
</svg>
