<svg width="24" height="25" viewBox="0 0 24 25" fill="none" xmlns="http://www.w3.org/2000/svg">
<g clip-path="url(#clip0_4704_82832)">
<path d="M18.2021 10.418L5.12891 23.4902C4.5765 24.0051 3.84587 24.2858 3.09082 24.2725C2.33574 24.2592 1.615 23.953 1.08105 23.4189C0.547234 22.8849 0.241633 22.1642 0.228516 21.4092C0.215475 20.6558 0.494919 19.9268 1.00781 19.375L14.082 6.29785L18.2021 10.418ZM9.98047 12.8115L2.21094 20.582C1.98436 20.8092 1.85742 21.1176 1.85742 21.4385C1.85753 21.7191 1.95478 21.9897 2.13086 22.2051L2.21094 22.2939L2.21387 22.2969C2.4439 22.5161 2.74964 22.6387 3.06738 22.6387C3.38513 22.6387 3.69087 22.5161 3.9209 22.2969L3.92383 22.2939L11.6973 14.5293L11.8037 14.4229L11.6973 14.3174L10.1924 12.8115L10.0859 12.7061L9.98047 12.8115ZM21.2002 15.1953L21.2227 15.2402L21.2676 15.2617L23.667 16.4619L21.2666 17.666L21.2227 17.6885L21.2002 17.7324L20.001 20.126L18.8027 17.7324L18.7803 17.6885L18.7354 17.666L16.335 16.4619L18.7354 15.2617L18.7803 15.2402L18.8027 15.1953L20.001 12.7979L21.2002 15.1953ZM13.9814 8.80762L11.2891 11.5L11.3955 11.6055L12.8955 13.1113L13.001 13.2178L15.6934 10.5254L15.7988 10.4189L15.6934 10.3135L14.1934 8.80859L14.0879 8.70215L13.9814 8.80762ZM9.22266 3.2793L9.26758 3.30078L11.666 4.5L9.22266 5.72168L9.2002 5.76562L8.00098 8.16309L6.80273 5.76562L6.78027 5.72168L6.73535 5.69922L4.33594 4.5L6.73535 3.30078L6.78027 3.2793L6.80273 3.23438L8.00098 0.835938L9.22266 3.2793ZM21.5342 2.90039L21.5566 2.94434L21.6016 2.9668L23.667 4L21.6016 5.0332L21.5566 5.05566L21.5342 5.09961L20.501 7.16406L19.4688 5.09961L19.4463 5.05566L17.335 4L19.4463 2.94434L19.4688 2.90039L20.501 0.834961L21.5342 2.90039Z" fill="black" fill-opacity="0.4" stroke="#F0F0F0" stroke-width="0.3"/>
</g>
<defs>
<clipPath id="clip0_4704_82832">
<rect width="24" height="24" fill="white" transform="translate(0 0.5)"/>
</clipPath>
</defs>
</svg>
