<svg width="45" height="44" viewBox="0 0 45 44" fill="none" xmlns="http://www.w3.org/2000/svg">
<mask id="mask0_5343_36594" style="mask-type:luminance" maskUnits="userSpaceOnUse" x="0" y="0" width="45" height="44">
<path d="M45 0H0V44H45V0Z" fill="white"/>
</mask>
<g mask="url(#mask0_5343_36594)">
<path d="M29.2308 4H10.7692C7.91399 4.00305 5.17657 5.13865 3.15761 7.15761C1.13865 9.17657 0.00305428 11.914 0 14.7692V33.2308C0.00305428 36.086 1.13865 38.8234 3.15761 40.8424C5.17657 42.8614 7.91399 43.9969 10.7692 44H29.2308C32.086 43.9969 34.8234 42.8614 36.8424 40.8424C38.8614 38.8234 39.9969 36.086 40 33.2308V14.7692C39.9969 11.914 38.8614 9.17657 36.8424 7.15761C34.8234 5.13865 32.086 4.00305 29.2308 4ZM20 33.2308C18.1743 33.2308 16.3897 32.6894 14.8717 31.6751C13.3537 30.6608 12.1705 29.2192 11.4719 27.5325C10.7732 25.8458 10.5904 23.9898 10.9466 22.1992C11.3028 20.4086 12.1819 18.7638 13.4729 17.4729C14.7638 16.1819 16.4086 15.3028 18.1992 14.9466C19.9898 14.5904 21.8458 14.7732 23.5325 15.4719C25.2192 16.1705 26.6608 17.3537 27.6751 18.8717C28.6894 20.3897 29.2308 22.1743 29.2308 24C29.2282 26.4474 28.2549 28.7938 26.5243 30.5243C24.7938 32.2549 22.4474 33.2282 20 33.2308ZM31.5385 14.7692C31.082 14.7692 30.6359 14.6339 30.2564 14.3803C29.8769 14.1267 29.5811 13.7663 29.4064 13.3447C29.2318 12.923 29.1861 12.459 29.2751 12.0113C29.3642 11.5637 29.5839 11.1525 29.9067 10.8298C30.2294 10.507 30.6406 10.2872 31.0883 10.1982C31.5359 10.1091 31.9999 10.1548 32.4216 10.3295C32.8433 10.5042 33.2037 10.8 33.4572 11.1795C33.7108 11.559 33.8462 12.0051 33.8462 12.4615C33.8462 13.0736 33.603 13.6605 33.1702 14.0933C32.7375 14.5261 32.1505 14.7692 31.5385 14.7692ZM26.1538 24C26.1538 25.2171 25.7929 26.4069 25.1167 27.4189C24.4405 28.4309 23.4794 29.2196 22.355 29.6854C21.2305 30.1512 19.9932 30.2731 18.7994 30.0356C17.6057 29.7982 16.5092 29.2121 15.6486 28.3514C14.7879 27.4908 14.2018 26.3943 13.9644 25.2006C13.727 24.0068 13.8488 22.7695 14.3146 21.645C14.7804 20.5206 15.5691 19.5595 16.5811 18.8833C17.5931 18.2071 18.7829 17.8462 20 17.8462C21.6321 17.8462 23.1974 18.4945 24.3514 19.6486C25.5055 20.8026 26.1538 22.3679 26.1538 24Z" fill="white"/>
<path d="M40.6728 7L40.8272 4.64844L38.8272 5.96701L38 4.53299L40.1543 3.5L38 2.46701L38.8272 1.03299L40.8272 2.35156L40.6728 0H42.3333L42.1728 2.35156L44.1728 1.03299L45 2.46701L42.8519 3.5L45 4.53299L44.1728 5.96701L42.1728 4.64844L42.3333 7H40.6728Z" fill="white"/>
</g>
</svg>
