<svg width="44" height="44" viewBox="0 0 44 44" fill="none" xmlns="http://www.w3.org/2000/svg">
<g clip-path="url(#clip0_5343_3174)">
<path fill-rule="evenodd" clip-rule="evenodd" d="M3.28011 3.09296C0.217773 6.18592 0.217773 11.1639 0.217773 21.12V22.88C0.217773 32.8361 0.217773 37.8142 3.28011 40.907C6.34244 44 11.2712 44 21.1286 44H22.8712C32.7287 44 37.6574 44 40.7198 40.907C43.782 37.8142 43.7822 32.8361 43.7822 22.88V21.12C43.7822 11.1639 43.782 6.18592 40.7198 3.09296C37.6574 0 32.7287 0 22.8712 0H21.1286C11.2712 0 6.34244 0 3.28011 3.09296ZM7.56934 13.3834C7.80529 24.8235 13.4686 31.6983 23.3978 31.6983H23.9604V25.1533C27.6089 25.52 30.3679 28.215 31.4751 31.6983H36.6304C35.2145 26.4917 31.4932 23.6133 29.1698 22.5133C31.4932 21.1567 34.7606 17.8567 35.541 13.3834H30.8578C29.8414 17.0134 26.8285 20.3133 23.9604 20.625V13.3834H19.2772V26.07C16.3729 25.3367 12.7063 21.78 12.5429 13.3834H7.56934Z" fill="white"/>
</g>
<defs>
<clipPath id="clip0_5343_3174">
<rect width="44" height="44" fill="white"/>
</clipPath>
</defs>
</svg>
