<svg width="44" height="38" viewBox="0 0 44 38" fill="none" xmlns="http://www.w3.org/2000/svg">
<path d="M42.8862 6.70592C42.7011 5.93092 42.3465 5.2141 41.8517 4.61464C41.3567 4.01518 40.7358 3.55024 40.04 3.25818C33.3064 0.474781 22.5892 0.500008 22 0.500008C21.4108 0.500008 10.6936 0.474781 3.96 3.25818C3.26418 3.55024 2.64321 4.01518 2.14834 4.61464C1.65345 5.2141 1.29884 5.93092 1.11375 6.70592C0.605 8.80398 0 12.6385 0 19C0 25.3614 0.605 29.1961 1.11375 31.2942C1.29856 32.0695 1.65305 32.7868 2.14795 33.3865C2.64284 33.9865 3.26396 34.4516 3.96 34.7439C10.4107 37.4075 20.5071 37.5 21.8704 37.5H22.1296C23.4929 37.5 33.5951 37.4075 40.04 34.7439C40.7361 34.4516 41.3573 33.9865 41.8521 33.3865C42.3469 32.7868 42.7015 32.0695 42.8862 31.2942C43.395 29.1918 44 25.3614 44 19C44 12.6385 43.395 8.80398 42.8862 6.70592ZM28.4016 20.3707L20.5445 26.257C20.3095 26.4333 20.0338 26.5373 19.7474 26.5576C19.4612 26.5782 19.175 26.5143 18.9202 26.373C18.6653 26.2318 18.4516 26.0185 18.3019 25.7566C18.1523 25.4944 18.0726 25.1934 18.0714 24.8863V13.1136C18.0715 12.806 18.1504 12.5042 18.2996 12.2412C18.4488 11.9783 18.6626 11.7641 18.9176 11.6221C19.1726 11.4801 19.4592 11.4157 19.7459 11.4359C20.0328 11.4561 20.3089 11.5601 20.5445 11.7367L28.4016 17.623C28.6083 17.7781 28.7771 17.9843 28.8935 18.2239C29.0099 18.4636 29.0708 18.7298 29.0708 19C29.0708 19.2701 29.0099 19.5363 28.8935 19.7761C28.7771 20.0158 28.6083 20.2219 28.4016 20.377V20.3707Z" fill="white"/>
</svg>
